ComicNeue_Light.ufo
<glyph name="exclam" format="1">
  <advance width="186"/>
  <unicode hex="0021"/>
  <outline>
    <contour>
      <point x="73" y="178" type="curve" smooth="yes"/>
      <point x="73" y="680" type="line" smooth="yes"/>
      <point x="73" y="692"/>
      <point x="83" y="701"/>
      <point x="93" y="701" type="curve" smooth="yes"/>
      <point x="104" y="701"/>
      <point x="113" y="692"/>
      <point x="113" y="680" type="curve" smooth="yes"/>
      <point x="113" y="178" type="line" smooth="yes"/>
      <point x="113" y="168"/>
      <point x="104" y="158"/>
      <point x="93" y="158" type="curve" smooth="yes"/>
      <point x="83" y="158"/>
      <point x="73" y="168"/>
    </contour>
    <contour>
      <point x="115" y="39" type="curve" smooth="yes"/>
      <point x="115" y="17"/>
      <point x="99" y="0"/>
      <point x="84" y="0" type="curve" smooth="yes"/>
      <point x="70" y="0"/>
      <point x="61" y="13"/>
      <point x="61" y="28" type="curve" smooth="yes"/>
      <point x="61" y="48"/>
      <point x="75" y="66"/>
      <point x="92" y="66" type="curve" smooth="yes"/>
      <point x="106" y="66"/>
      <point x="115" y="53"/>
    </contour>
  </outline>
</glyph>
<glyph name="numbersign" format="1">
  <advance width="736"/>
  <unicode hex="0023"/>
  <outline>
    <contour>
      <point x="474" y="219" type="line"/>
      <point x="624" y="219" type="line" smooth="yes"/>
      <point x="634" y="219"/>
      <point x="643" y="227"/>
      <point x="643" y="238" type="curve" smooth="yes"/>
      <point x="643" y="248"/>
      <point x="634" y="256"/>
      <point x="624" y="256" type="curve" smooth="yes"/>
      <point x="484" y="256" type="line"/>
      <point x="540" y="447" type="line"/>
      <point x="671" y="447" type="line" smooth="yes"/>
      <point x="681" y="447"/>
      <point x="690" y="455"/>
      <point x="690" y="466" type="curve" smooth="yes"/>
      <point x="690" y="476"/>
      <point x="681" y="485"/>
      <point x="671" y="485" type="curve" smooth="yes"/>
      <point x="551" y="485" type="line"/>
      <point x="604" y="666" type="line" smooth="yes"/>
      <point x="606" y="672"/>
      <point x="607" y="677"/>
      <point x="607" y="681" type="curve" smooth="yes"/>
      <point x="607" y="688"/>
      <point x="600" y="697"/>
      <point x="588" y="697" type="curve" smooth="yes"/>
      <point x="580" y="697"/>
      <point x="573" y="692"/>
      <point x="571" y="684" type="curve" smooth="yes"/>
      <point x="513" y="485" type="line"/>
      <point x="331" y="485" type="line"/>
      <point x="384" y="665" type="line" smooth="yes"/>
      <point x="386" y="671"/>
      <point x="387" y="675"/>
      <point x="387" y="679" type="curve" smooth="yes"/>
      <point x="387" y="689"/>
      <point x="380" y="697"/>
      <point x="369" y="697" type="curve" smooth="yes"/>
      <point x="360" y="697"/>
      <point x="353" y="692"/>
      <point x="351" y="684" type="curve" smooth="yes"/>
      <point x="294" y="485" type="line"/>
      <point x="127" y="485" type="line" smooth="yes"/>
      <point x="116" y="485"/>
      <point x="108" y="476"/>
      <point x="108" y="466" type="curve" smooth="yes"/>
      <point x="108" y="455"/>
      <point x="116" y="447"/>
      <point x="127" y="447" type="curve" smooth="yes"/>
      <point x="282" y="447" type="line"/>
      <point x="227" y="256" type="line"/>
      <point x="80" y="256" type="line" smooth="yes"/>
      <point x="70" y="256"/>
      <point x="61" y="248"/>
      <point x="61" y="238" type="curve" smooth="yes"/>
      <point x="61" y="227"/>
      <point x="70" y="219"/>
      <point x="80" y="219" type="curve" smooth="yes"/>
      <point x="216" y="219" type="line"/>
      <point x="161" y="33" type="line" smooth="yes"/>
      <point x="159" y="26"/>
      <point x="158" y="22"/>
      <point x="158" y="17" type="curve" smooth="yes"/>
      <point x="158" y="8"/>
      <point x="165" y="0"/>
      <point x="177" y="0" type="curve" smooth="yes"/>
      <point x="185" y="0"/>
      <point x="192" y="5"/>
      <point x="195" y="14" type="curve" smooth="yes"/>
      <point x="254" y="219" type="line"/>
      <point x="436" y="219" type="line"/>
      <point x="381" y="34" type="line" smooth="yes"/>
      <point x="379" y="27"/>
      <point x="378" y="22"/>
      <point x="378" y="19" type="curve" smooth="yes"/>
      <point x="378" y="8"/>
      <point x="385" y="0"/>
      <point x="397" y="0" type="curve" smooth="yes"/>
      <point x="405" y="0"/>
      <point x="411" y="5"/>
      <point x="414" y="14" type="curve" smooth="yes"/>
    </contour>
    <contour>
      <point x="447" y="256" type="line"/>
      <point x="264" y="256" type="line"/>
      <point x="321" y="447" type="line"/>
      <point x="502" y="447" type="line"/>
    </contour>
  </outline>
</glyph>
<glyph name="dollar" format="1">
  <advance width="594"/>
  <unicode hex="0024"/>
  <outline>
    <contour>
      <point x="110" y="154" type="curve"/>
      <point x="105" y="165"/>
      <point x="97" y="172"/>
      <point x="88" y="172" type="curve" smooth="yes"/>
      <point x="74" y="172"/>
      <point x="66" y="160"/>
      <point x="66" y="154" type="curve" smooth="yes"/>
      <point x="66" y="150"/>
      <point x="67" y="146"/>
      <point x="68" y="142" type="curve" smooth="yes"/>
      <point x="98" y="61"/>
      <point x="186" y="7"/>
      <point x="294" y="-1" type="curve"/>
      <point x="294" y="-58" type="line" smooth="yes"/>
      <point x="294" y="-69"/>
      <point x="302" y="-77"/>
      <point x="312" y="-77" type="curve" smooth="yes"/>
      <point x="322" y="-77"/>
      <point x="330" y="-69"/>
      <point x="330" y="-58" type="curve" smooth="yes"/>
      <point x="330" y="0" type="line"/>
      <point x="455" y="16"/>
      <point x="542" y="83"/>
      <point x="542" y="189" type="curve" smooth="yes"/>
      <point x="542" y="275"/>
      <point x="467" y="341"/>
      <point x="330" y="380" type="curve"/>
      <point x="330" y="658" type="line"/>
      <point x="380" y="658"/>
      <point x="488" y="637"/>
      <point x="503" y="554" type="curve" smooth="yes"/>
      <point x="504" y="546"/>
      <point x="513" y="539"/>
      <point x="523" y="539" type="curve" smooth="yes"/>
      <point x="533" y="539"/>
      <point x="540" y="546"/>
      <point x="540" y="554" type="curve" smooth="yes"/>
      <point x="540" y="654"/>
      <point x="422" y="688"/>
      <point x="330" y="688" type="curve"/>
      <point x="330" y="743" type="line" smooth="yes"/>
      <point x="330" y="753"/>
      <point x="322" y="762"/>
      <point x="312" y="762" type="curve" smooth="yes"/>
      <point x="302" y="762"/>
      <point x="294" y="753"/>
      <point x="294" y="743" type="curve" smooth="yes"/>
      <point x="294" y="687" type="line"/>
      <point x="201" y="679"/>
      <point x="103" y="633"/>
      <point x="103" y="521" type="curve" smooth="yes"/>
      <point x="103" y="431"/>
      <point x="200" y="379"/>
      <point x="294" y="349" type="curve"/>
      <point x="294" y="34" type="line"/>
      <point x="216" y="43"/>
      <point x="136" y="80"/>
    </contour>
    <contour>
      <point x="148" y="518" type="curve" smooth="yes"/>
      <point x="148" y="573"/>
      <point x="173" y="638"/>
      <point x="294" y="655" type="curve"/>
      <point x="294" y="391" type="line"/>
      <point x="197" y="425"/>
      <point x="148" y="467"/>
    </contour>
    <contour>
      <point x="330" y="339" type="line"/>
      <point x="487" y="289"/>
      <point x="498" y="226"/>
      <point x="498" y="195" type="curve" smooth="yes"/>
      <point x="498" y="83"/>
      <point x="408" y="41"/>
      <point x="330" y="34" type="curve"/>
    </contour>
  </outline>
</glyph>
<glyph name="percent" format="1">
  <advance width="718"/>
  <unicode hex="0025"/>
  <outline>
    <contour>
      <point x="193" y="440" type="curve" smooth="yes"/>
      <point x="121" y="440"/>
      <point x="61" y="499"/>
      <point x="61" y="571" type="curve" smooth="yes"/>
      <point x="61" y="643"/>
      <point x="121" y="702"/>
      <point x="193" y="702" type="curve" smooth="yes"/>
      <point x="265" y="702"/>
      <point x="324" y="643"/>
      <point x="324" y="571" type="curve" smooth="yes"/>
      <point x="324" y="499"/>
      <point x="265" y="440"/>
    </contour>
    <contour>
      <point x="193" y="667" type="curve" smooth="yes"/>
      <point x="141" y="667"/>
      <point x="97" y="623"/>
      <point x="97" y="571" type="curve" smooth="yes"/>
      <point x="97" y="517"/>
      <point x="141" y="475"/>
      <point x="193" y="475" type="curve" smooth="yes"/>
      <point x="245" y="475"/>
      <point x="289" y="517"/>
      <point x="289" y="571" type="curve" smooth="yes"/>
      <point x="289" y="623"/>
      <point x="245" y="667"/>
    </contour>
    <contour>
      <point x="532" y="-8" type="curve" smooth="yes"/>
      <point x="461" y="-8"/>
      <point x="401" y="51"/>
      <point x="401" y="123" type="curve" smooth="yes"/>
      <point x="401" y="195"/>
      <point x="461" y="254"/>
      <point x="532" y="254" type="curve" smooth="yes"/>
      <point x="604" y="254"/>
      <point x="664" y="195"/>
      <point x="664" y="123" type="curve" smooth="yes"/>
      <point x="664" y="51"/>
      <point x="604" y="-8"/>
    </contour>
    <contour>
      <point x="532" y="219" type="curve" smooth="yes"/>
      <point x="480" y="219"/>
      <point x="437" y="175"/>
      <point x="437" y="123" type="curve" smooth="yes"/>
      <point x="437" y="69"/>
      <point x="480" y="27"/>
      <point x="532" y="27" type="curve" smooth="yes"/>
      <point x="585" y="27"/>
      <point x="628" y="69"/>
      <point x="628" y="123" type="curve" smooth="yes"/>
      <point x="628" y="175"/>
      <point x="585" y="219"/>
    </contour>
    <contour>
      <point x="564" y="674" type="curve" smooth="yes"/>
      <point x="195" y="8" type="line" smooth="yes"/>
      <point x="192" y="3"/>
      <point x="186" y="0"/>
      <point x="180" y="0" type="curve" smooth="yes"/>
      <point x="171" y="0"/>
      <point x="165" y="7"/>
      <point x="165" y="15" type="curve" smooth="yes"/>
      <point x="165" y="17"/>
      <point x="166" y="22"/>
      <point x="169" y="27" type="curve" smooth="yes"/>
      <point x="536" y="690" type="line" smooth="yes"/>
      <point x="539" y="696"/>
      <point x="543" y="698"/>
      <point x="549" y="698" type="curve" smooth="yes"/>
      <point x="558" y="698"/>
      <point x="566" y="691"/>
      <point x="566" y="682" type="curve" smooth="yes"/>
      <point x="566" y="679"/>
      <point x="565" y="676"/>
    </contour>
  </outline>
</glyph>
<glyph name="ampersand" format="1">
  <advance width="650"/>
  <unicode hex="0026"/>
  <outline>
    <contour>
      <point x="497" y="270" type="curve" smooth="yes"/>
      <point x="488" y="243"/>
      <point x="482" y="219"/>
      <point x="463" y="183" type="curve"/>
      <point x="294" y="385" type="line"/>
      <point x="392" y="438"/>
      <point x="438" y="485"/>
      <point x="438" y="564" type="curve" smooth="yes"/>
      <point x="438" y="633"/>
      <point x="370" y="698"/>
      <point x="296" y="698" type="curve" smooth="yes"/>
      <point x="222" y="698"/>
      <point x="153" y="634"/>
      <point x="153" y="561" type="curve" smooth="yes"/>
      <point x="153" y="498"/>
      <point x="205" y="431"/>
      <point x="238" y="393" type="curve"/>
      <point x="150" y="345"/>
      <point x="62" y="292"/>
      <point x="62" y="178" type="curve" smooth="yes"/>
      <point x="62" y="66"/>
      <point x="167" y="-4"/>
      <point x="263" y="-4" type="curve" smooth="yes"/>
      <point x="288" y="-4"/>
      <point x="384" y="3"/>
      <point x="468" y="121" type="curve"/>
      <point x="565" y="6" type="line" smooth="yes"/>
      <point x="569" y="2"/>
      <point x="574" y="0"/>
      <point x="579" y="0" type="curve" smooth="yes"/>
      <point x="588" y="0"/>
      <point x="597" y="8"/>
      <point x="597" y="18" type="curve" smooth="yes"/>
      <point x="597" y="22"/>
      <point x="595" y="25"/>
      <point x="592" y="29" type="curve" smooth="yes"/>
      <point x="488" y="154" type="line"/>
      <point x="505" y="185"/>
      <point x="520" y="223"/>
      <point x="531" y="262" type="curve" smooth="yes"/>
      <point x="534" y="273"/>
      <point x="535" y="278"/>
      <point x="535" y="279" type="curve" smooth="yes"/>
      <point x="535" y="289"/>
      <point x="528" y="296"/>
      <point x="519" y="296" type="curve" smooth="yes"/>
      <point x="506" y="296"/>
      <point x="503" y="290"/>
    </contour>
    <contour>
      <point x="188" y="561" type="curve" smooth="yes"/>
      <point x="188" y="619"/>
      <point x="246" y="663"/>
      <point x="296" y="663" type="curve" smooth="yes"/>
      <point x="351" y="663"/>
      <point x="404" y="612"/>
      <point x="404" y="562" type="curve" smooth="yes"/>
      <point x="404" y="522"/>
      <point x="403" y="477"/>
      <point x="271" y="412" type="curve"/>
      <point x="238" y="444"/>
      <point x="188" y="507"/>
    </contour>
    <contour>
      <point x="263" y="31" type="curve" smooth="yes"/>
      <point x="197" y="31"/>
      <point x="98" y="77"/>
      <point x="98" y="178" type="curve" smooth="yes"/>
      <point x="98" y="278"/>
      <point x="170" y="319"/>
      <point x="263" y="368" type="curve"/>
      <point x="445" y="150" type="line"/>
      <point x="372" y="39"/>
      <point x="286" y="31"/>
    </contour>
  </outline>
</glyph>
<glyph name="quotesingle" format="1">
  <advance width="179"/>
  <unicode hex="0027"/>
  <outline>
    <contour>
      <point x="93" y="521" type="curve" smooth="yes"/>
      <point x="83" y="521"/>
      <point x="74" y="529"/>
      <point x="74" y="540" type="curve" smooth="yes"/>
      <point x="74" y="679" type="line" smooth="yes"/>
      <point x="74" y="690"/>
      <point x="83" y="698"/>
      <point x="93" y="698" type="curve" smooth="yes"/>
      <point x="103" y="698"/>
      <point x="112" y="690"/>
      <point x="112" y="679" type="curve" smooth="yes"/>
      <point x="112" y="540" type="line" smooth="yes"/>
      <point x="112" y="529"/>
      <point x="103" y="521"/>
    </contour>
  </outline>
</glyph>
<glyph name="asterisk" format="1">
  <advance width="387"/>
  <unicode hex="002A"/>
  <outline>
    <contour>
      <point x="197" y="564" type="curve"/>
      <point x="197" y="564"/>
      <point x="169" y="513"/>
      <point x="160" y="503" type="curve" smooth="yes"/>
      <point x="122" y="463" type="line" smooth="yes"/>
      <point x="119" y="460"/>
      <point x="115" y="457"/>
      <point x="111" y="457" type="curve" smooth="yes"/>
      <point x="102" y="457"/>
      <point x="94" y="465"/>
      <point x="94" y="475" type="curve" smooth="yes"/>
      <point x="94" y="480"/>
      <point x="95" y="485"/>
      <point x="98" y="489" type="curve" smooth="yes"/>
      <point x="132" y="525" type="line"/>
      <point x="145" y="541"/>
      <point x="185" y="567"/>
      <point x="188" y="570" type="curve"/>
      <point x="185" y="570"/>
      <point x="128" y="581"/>
      <point x="117" y="588" type="curve"/>
      <point x="105" y="593"/>
      <point x="94" y="600"/>
      <point x="83" y="605" type="curve"/>
      <point x="84" y="605" type="line"/>
      <point x="77" y="609"/>
      <point x="74" y="615"/>
      <point x="74" y="621" type="curve" smooth="yes"/>
      <point x="74" y="628"/>
      <point x="82" y="638"/>
      <point x="91" y="638" type="curve" smooth="yes"/>
      <point x="95" y="638"/>
      <point x="98" y="637"/>
      <point x="101" y="636" type="curve" smooth="yes"/>
      <point x="130" y="621" type="line"/>
      <point x="129" y="621" type="line"/>
      <point x="146" y="612"/>
      <point x="191" y="577"/>
      <point x="191" y="577" type="curve"/>
      <point x="191" y="577"/>
      <point x="178" y="638"/>
      <point x="178" y="652" type="curve" smooth="yes"/>
      <point x="178" y="680" type="line" smooth="yes"/>
      <point x="178" y="690"/>
      <point x="187" y="698"/>
      <point x="196" y="698" type="curve" smooth="yes"/>
      <point x="206" y="698"/>
      <point x="214" y="690"/>
      <point x="214" y="680" type="curve" smooth="yes"/>
      <point x="214" y="652" type="line" smooth="yes"/>
      <point x="214" y="638"/>
      <point x="201" y="577"/>
      <point x="201" y="577" type="curve"/>
      <point x="201" y="577"/>
      <point x="246" y="612"/>
      <point x="263" y="621" type="curve"/>
      <point x="262" y="621" type="line"/>
      <point x="291" y="636" type="line" smooth="yes"/>
      <point x="294" y="637"/>
      <point x="296" y="638"/>
      <point x="301" y="638" type="curve" smooth="yes"/>
      <point x="311" y="638"/>
      <point x="318" y="628"/>
      <point x="318" y="621" type="curve" smooth="yes"/>
      <point x="318" y="615"/>
      <point x="315" y="609"/>
      <point x="309" y="605" type="curve"/>
      <point x="310" y="605" type="line"/>
      <point x="274" y="588" type="line"/>
      <point x="262" y="580"/>
      <point x="208" y="570"/>
      <point x="203" y="570" type="curve"/>
      <point x="206" y="569"/>
      <point x="243" y="543"/>
      <point x="260" y="525" type="curve" smooth="yes"/>
      <point x="294" y="489" type="line" smooth="yes"/>
      <point x="297" y="485"/>
      <point x="298" y="480"/>
      <point x="298" y="475" type="curve" smooth="yes"/>
      <point x="298" y="465"/>
      <point x="290" y="457"/>
      <point x="282" y="457" type="curve" smooth="yes"/>
      <point x="276" y="457"/>
      <point x="272" y="460"/>
      <point x="269" y="463" type="curve" smooth="yes"/>
      <point x="233" y="503" type="line" smooth="yes"/>
      <point x="223" y="513"/>
      <point x="197" y="564"/>
    </contour>
  </outline>
</glyph>
<glyph name="comma" format="1">
  <advance width="251"/>
  <unicode hex="002C"/>
  <outline>
    <contour>
      <point x="98" y="-76" type="line" smooth="yes"/>
      <point x="96" y="-81"/>
      <point x="96" y="-83"/>
      <point x="96" y="-86" type="curve" smooth="yes"/>
      <point x="96" y="-91"/>
      <point x="102" y="-96"/>
      <point x="109" y="-96" type="curve" smooth="yes"/>
      <point x="120" y="-96"/>
      <point x="131" y="-67"/>
      <point x="147" y="-27" type="curve" smooth="yes"/>
      <point x="162" y="11"/>
      <point x="165" y="18"/>
      <point x="165" y="36" type="curve" smooth="yes"/>
      <point x="165" y="47"/>
      <point x="155" y="59"/>
      <point x="142" y="59" type="curve" smooth="yes"/>
      <point x="126" y="59"/>
      <point x="111" y="43"/>
      <point x="111" y="23" type="curve" smooth="yes"/>
      <point x="111" y="14"/>
      <point x="116" y="3"/>
      <point x="125" y="-5" type="curve"/>
    </contour>
  </outline>
</glyph>
<glyph name="slash" format="1">
  <advance width="535"/>
  <unicode hex="002F"/>
  <outline>
    <contour>
      <point x="474" y="672" type="line" smooth="yes"/>
      <point x="475" y="674"/>
      <point x="476" y="677"/>
      <point x="476" y="680" type="curve" smooth="yes"/>
      <point x="476" y="692"/>
      <point x="469" y="700"/>
      <point x="457" y="700" type="curve" smooth="yes"/>
      <point x="451" y="700"/>
      <point x="445" y="698"/>
      <point x="442" y="692" type="curve" smooth="yes"/>
      <point x="75" y="29" type="line" smooth="yes"/>
      <point x="72" y="24"/>
      <point x="71" y="19"/>
      <point x="71" y="17" type="curve" smooth="yes"/>
      <point x="71" y="6"/>
      <point x="81" y="-2"/>
      <point x="90" y="-2" type="curve" smooth="yes"/>
      <point x="96" y="-2"/>
      <point x="101" y="-1"/>
      <point x="105" y="6" type="curve" smooth="yes"/>
    </contour>
  </outline>
</glyph>
<glyph name="zero" format="1">
  <advance width="604"/>
  <unicode hex="0030"/>
  <outline>
    <contour>
      <point x="297" y="-3" type="curve" smooth="yes"/>
      <point x="433" y="-3"/>
      <point x="546" y="166"/>
      <point x="546" y="363" type="curve" smooth="yes"/>
      <point x="546" y="541"/>
      <point x="452" y="694"/>
      <point x="321" y="694" type="curve" smooth="yes"/>
      <point x="181" y="694"/>
      <point x="71" y="521"/>
      <point x="71" y="327" type="curve" smooth="yes"/>
      <point x="71" y="151"/>
      <point x="166" y="-3"/>
    </contour>
    <contour>
      <point x="321" y="658" type="curve" smooth="yes"/>
      <point x="430" y="658"/>
      <point x="512" y="517"/>
      <point x="512" y="361" type="curve" smooth="yes"/>
      <point x="512" y="182"/>
      <point x="411" y="33"/>
      <point x="297" y="33" type="curve" smooth="yes"/>
      <point x="184" y="33"/>
      <point x="106" y="175"/>
      <point x="106" y="329" type="curve" smooth="yes"/>
      <point x="106" y="509"/>
      <point x="206" y="658"/>
    </contour>
  </outline>
</glyph>
<glyph name="two" format="1">
  <advance width="518"/>
  <unicode hex="0032"/>
  <outline>
    <contour>
      <point x="106" y="568" type="curve" smooth="yes"/>
      <point x="113" y="576"/>
      <point x="177" y="647"/>
      <point x="271" y="647" type="curve" smooth="yes"/>
      <point x="354" y="647"/>
      <point x="419" y="593"/>
      <point x="419" y="519" type="curve" smooth="yes"/>
      <point x="419" y="429"/>
      <point x="349" y="386"/>
      <point x="271" y="334" type="curve"/>
      <point x="170" y="269"/>
      <point x="71" y="197"/>
      <point x="71" y="18" type="curve" smooth="yes"/>
      <point x="71" y="0" type="line"/>
      <point x="447" y="0" type="line" smooth="yes"/>
      <point x="457" y="0"/>
      <point x="466" y="8"/>
      <point x="466" y="18" type="curve" smooth="yes"/>
      <point x="466" y="28"/>
      <point x="457" y="36"/>
      <point x="447" y="36" type="curve" smooth="yes"/>
      <point x="109" y="36" type="line"/>
      <point x="117" y="181"/>
      <point x="202" y="243"/>
      <point x="287" y="299" type="curve"/>
      <point x="373" y="353"/>
      <point x="456" y="403"/>
      <point x="456" y="519" type="curve" smooth="yes"/>
      <point x="456" y="610"/>
      <point x="379" y="685"/>
      <point x="271" y="685" type="curve" smooth="yes"/>
      <point x="187" y="685"/>
      <point x="126" y="641"/>
      <point x="91" y="606" type="curve"/>
      <point x="70" y="587"/>
      <point x="65" y="578"/>
      <point x="65" y="571" type="curve" smooth="yes"/>
      <point x="65" y="562"/>
      <point x="73" y="551"/>
      <point x="84" y="551" type="curve" smooth="yes"/>
      <point x="94" y="551"/>
      <point x="99" y="560"/>
    </contour>
  </outline>
</glyph>
<glyph name="three" format="1">
  <advance width="533"/>
  <unicode hex="0033"/>
  <outline>
    <contour>
      <point x="268" y="-6" type="curve" smooth="yes"/>
      <point x="346" y="-6"/>
      <point x="473" y="47"/>
      <point x="473" y="198" type="curve" smooth="yes"/>
      <point x="473" y="278"/>
      <point x="426" y="351"/>
      <point x="338" y="388" type="curve"/>
      <point x="408" y="425"/>
      <point x="456" y="482"/>
      <point x="456" y="544" type="curve" smooth="yes"/>
      <point x="456" y="627"/>
      <point x="373" y="692"/>
      <point x="266" y="692" type="curve" smooth="yes"/>
      <point x="209" y="692"/>
      <point x="159" y="672"/>
      <point x="130" y="654" type="curve" smooth="yes"/>
      <point x="108" y="640"/>
      <point x="101" y="629"/>
      <point x="101" y="622" type="curve" smooth="yes"/>
      <point x="101" y="614"/>
      <point x="107" y="603"/>
      <point x="120" y="603" type="curve" smooth="yes"/>
      <point x="124" y="603"/>
      <point x="129" y="606"/>
      <point x="137" y="613" type="curve" smooth="yes"/>
      <point x="155" y="626"/>
      <point x="192" y="654"/>
      <point x="266" y="654" type="curve" smooth="yes"/>
      <point x="364" y="654"/>
      <point x="419" y="597"/>
      <point x="419" y="544" type="curve" smooth="yes"/>
      <point x="419" y="469"/>
      <point x="329" y="405"/>
      <point x="249" y="405" type="curve" smooth="yes"/>
      <point x="238" y="405"/>
      <point x="230" y="397"/>
      <point x="230" y="387" type="curve" smooth="yes"/>
      <point x="230" y="376"/>
      <point x="238" y="368"/>
      <point x="248" y="368" type="curve" smooth="yes"/>
      <point x="301" y="368"/>
      <point x="435" y="338"/>
      <point x="435" y="198" type="curve" smooth="yes"/>
      <point x="435" y="83"/>
      <point x="345" y="31"/>
      <point x="265" y="31" type="curve" smooth="yes"/>
      <point x="169" y="31"/>
      <point x="120" y="97"/>
      <point x="105" y="123" type="curve" smooth="yes"/>
      <point x="101" y="129"/>
      <point x="96" y="133"/>
      <point x="88" y="133" type="curve" smooth="yes"/>
      <point x="79" y="133"/>
      <point x="70" y="126"/>
      <point x="70" y="117" type="curve" smooth="yes"/>
      <point x="70" y="114"/>
      <point x="70" y="109"/>
      <point x="73" y="102" type="curve" smooth="yes"/>
      <point x="77" y="93"/>
      <point x="132" y="-6"/>
    </contour>
  </outline>
</glyph>
<glyph name="six" format="1">
  <advance width="536"/>
  <unicode hex="0036"/>
  <outline>
    <contour>
      <point x="102" y="326" type="curve"/>
      <point x="121" y="347"/>
      <point x="184" y="406"/>
      <point x="290" y="407" type="curve" smooth="yes"/>
      <point x="327" y="407"/>
      <point x="446" y="395"/>
      <point x="446" y="242" type="curve" smooth="yes"/>
      <point x="446" y="69"/>
      <point x="327" y="31"/>
      <point x="280" y="31" type="curve" smooth="yes"/>
      <point x="196" y="31"/>
      <point x="97" y="69"/>
      <point x="97" y="247" type="curve" smooth="yes"/>
      <point x="97" y="274"/>
      <point x="98" y="301"/>
    </contour>
    <contour>
      <point x="335" y="685" type="curve" smooth="yes"/>
      <point x="288" y="661"/>
      <point x="63" y="545"/>
      <point x="63" y="247" type="curve" smooth="yes"/>
      <point x="63" y="57"/>
      <point x="175" y="-3"/>
      <point x="280" y="-3" type="curve" smooth="yes"/>
      <point x="333" y="-3"/>
      <point x="479" y="40"/>
      <point x="479" y="242" type="curve" smooth="yes"/>
      <point x="479" y="373"/>
      <point x="395" y="442"/>
      <point x="290" y="442" type="curve" smooth="yes"/>
      <point x="227" y="442"/>
      <point x="154" y="413"/>
      <point x="111" y="377" type="curve"/>
      <point x="155" y="501"/>
      <point x="252" y="605"/>
      <point x="357" y="656" type="curve" smooth="yes"/>
      <point x="362" y="659"/>
      <point x="367" y="665"/>
      <point x="367" y="672" type="curve" smooth="yes"/>
      <point x="367" y="681"/>
      <point x="359" y="689"/>
      <point x="350" y="689" type="curve" smooth="yes"/>
      <point x="345" y="689"/>
      <point x="341" y="688"/>
    </contour>
  </outline>
</glyph>
<glyph name="seven" format="1">
  <advance width="491"/>
  <unicode hex="0037"/>
  <outline>
    <contour>
      <point x="477" y="649" type="line" smooth="yes"/>
      <point x="478" y="652"/>
      <point x="479" y="654"/>
      <point x="479" y="658" type="curve" smooth="yes"/>
      <point x="479" y="668"/>
      <point x="471" y="677"/>
      <point x="460" y="677" type="curve" smooth="yes"/>
      <point x="85" y="677" type="line" smooth="yes"/>
      <point x="75" y="677"/>
      <point x="66" y="669"/>
      <point x="66" y="659" type="curve" smooth="yes"/>
      <point x="66" y="648"/>
      <point x="75" y="640"/>
      <point x="85" y="640" type="curve" smooth="yes"/>
      <point x="430" y="640" type="line"/>
      <point x="122" y="28" type="line" smooth="yes"/>
      <point x="121" y="26"/>
      <point x="120" y="23"/>
      <point x="120" y="20" type="curve" smooth="yes"/>
      <point x="120" y="9"/>
      <point x="128" y="1"/>
      <point x="138" y="1" type="curve" smooth="yes"/>
      <point x="145" y="1"/>
      <point x="152" y="4"/>
      <point x="155" y="10" type="curve" smooth="yes"/>
    </contour>
  </outline>
</glyph>
<glyph name="nine" format="1">
  <advance width="536"/>
  <unicode hex="0039"/>
  <outline>
    <contour>
      <point x="441" y="363" type="curve"/>
      <point x="422" y="342"/>
      <point x="359" y="283"/>
      <point x="253" y="282" type="curve" smooth="yes"/>
      <point x="216" y="282"/>
      <point x="97" y="294"/>
      <point x="97" y="447" type="curve" smooth="yes"/>
      <point x="97" y="620"/>
      <point x="216" y="658"/>
      <point x="263" y="658" type="curve" smooth="yes"/>
      <point x="347" y="658"/>
      <point x="446" y="620"/>
      <point x="446" y="442" type="curve" smooth="yes"/>
      <point x="446" y="415"/>
      <point x="445" y="388"/>
    </contour>
    <contour>
      <point x="208" y="4" type="curve" smooth="yes"/>
      <point x="255" y="28"/>
      <point x="480" y="144"/>
      <point x="480" y="442" type="curve" smooth="yes"/>
      <point x="480" y="632"/>
      <point x="368" y="692"/>
      <point x="263" y="692" type="curve" smooth="yes"/>
      <point x="210" y="692"/>
      <point x="64" y="649"/>
      <point x="64" y="447" type="curve" smooth="yes"/>
      <point x="64" y="316"/>
      <point x="148" y="247"/>
      <point x="253" y="247" type="curve" smooth="yes"/>
      <point x="316" y="247"/>
      <point x="389" y="276"/>
      <point x="432" y="312" type="curve"/>
      <point x="388" y="188"/>
      <point x="291" y="84"/>
      <point x="186" y="33" type="curve" smooth="yes"/>
      <point x="181" y="30"/>
      <point x="176" y="24"/>
      <point x="176" y="17" type="curve" smooth="yes"/>
      <point x="176" y="8"/>
      <point x="184" y="0"/>
      <point x="193" y="0" type="curve" smooth="yes"/>
      <point x="198" y="0"/>
      <point x="202" y="1"/>
    </contour>
  </outline>
</glyph>
<glyph name="colon" format="1">
  <advance width="225"/>
  <unicode hex="003A"/>
  <outline>
    <contour>
      <point x="96" y="0" type="curve" smooth="yes"/>
      <point x="112" y="0"/>
      <point x="127" y="18"/>
      <point x="127" y="39" type="curve" smooth="yes"/>
      <point x="127" y="53"/>
      <point x="117" y="66"/>
      <point x="104" y="66" type="curve" smooth="yes"/>
      <point x="87" y="66"/>
      <point x="73" y="48"/>
      <point x="73" y="29" type="curve" smooth="yes"/>
      <point x="73" y="14"/>
      <point x="82" y="0"/>
    </contour>
    <contour>
      <point x="126" y="373" type="curve" smooth="yes"/>
      <point x="143" y="373"/>
      <point x="157" y="391"/>
      <point x="157" y="412" type="curve" smooth="yes"/>
      <point x="157" y="426"/>
      <point x="147" y="439"/>
      <point x="134" y="439" type="curve" smooth="yes"/>
      <point x="118" y="439"/>
      <point x="103" y="421"/>
      <point x="103" y="402" type="curve" smooth="yes"/>
      <point x="103" y="387"/>
      <point x="112" y="373"/>
    </contour>
  </outline>
</glyph>
<glyph name="question" format="1">
  <advance width="523"/>
  <unicode hex="003F"/>
  <outline>
    <contour>
      <point x="328" y="296" type="line" smooth="yes"/>
      <point x="380" y="342"/>
      <point x="465" y="405"/>
      <point x="465" y="516" type="curve" smooth="yes"/>
      <point x="465" y="638"/>
      <point x="376" y="720"/>
      <point x="245" y="720" type="curve" smooth="yes"/>
      <point x="169" y="720"/>
      <point x="113" y="680"/>
      <point x="81" y="645" type="curve" smooth="yes"/>
      <point x="71" y="634"/>
      <point x="62" y="623"/>
      <point x="62" y="614" type="curve" smooth="yes"/>
      <point x="62" y="606"/>
      <point x="70" y="598"/>
      <point x="80" y="598" type="curve" smooth="yes"/>
      <point x="86" y="598"/>
      <point x="90" y="601"/>
      <point x="92" y="603" type="curve" smooth="yes"/>
      <point x="124" y="640"/>
      <point x="171" y="685"/>
      <point x="245" y="685" type="curve" smooth="yes"/>
      <point x="381" y="685"/>
      <point x="430" y="597"/>
      <point x="430" y="516" type="curve" smooth="yes"/>
      <point x="430" y="437"/>
      <point x="372" y="383"/>
      <point x="308" y="326" type="curve" smooth="yes"/>
      <point x="182" y="213" type="line" smooth="yes"/>
      <point x="178" y="209"/>
      <point x="176" y="205"/>
      <point x="176" y="200" type="curve" smooth="yes"/>
      <point x="176" y="191"/>
      <point x="184" y="182"/>
      <point x="194" y="182" type="curve" smooth="yes"/>
      <point x="198" y="182"/>
      <point x="202" y="185"/>
      <point x="206" y="188" type="curve" smooth="yes"/>
    </contour>
    <contour>
      <point x="158" y="0" type="curve" smooth="yes"/>
      <point x="175" y="0"/>
      <point x="190" y="18"/>
      <point x="190" y="39" type="curve" smooth="yes"/>
      <point x="190" y="53"/>
      <point x="179" y="66"/>
      <point x="167" y="66" type="curve" smooth="yes"/>
      <point x="150" y="66"/>
      <point x="135" y="48"/>
      <point x="135" y="29" type="curve" smooth="yes"/>
      <point x="135" y="14"/>
      <point x="145" y="0"/>
    </contour>
  </outline>
</glyph>
<glyph name="B" format="1">
  <advance width="593"/>
  <unicode hex="0042"/>
  <outline>
    <contour>
      <point x="97" y="-2" type="curve" smooth="yes"/>
      <point x="80" y="-2"/>
      <point x="68" y="2"/>
      <point x="68" y="23" type="curve" smooth="yes"/>
      <point x="68" y="662" type="line" smooth="yes"/>
      <point x="68" y="673"/>
      <point x="76" y="681"/>
      <point x="86" y="681" type="curve" smooth="yes"/>
      <point x="274" y="681" type="line" smooth="yes"/>
      <point x="467" y="681"/>
      <point x="489" y="547"/>
      <point x="489" y="518" type="curve" smooth="yes"/>
      <point x="489" y="446"/>
      <point x="447" y="398"/>
      <point x="406" y="368" type="curve"/>
      <point x="498" y="335"/>
      <point x="550" y="279"/>
      <point x="550" y="200" type="curve" smooth="yes"/>
      <point x="550" y="72"/>
      <point x="403" y="-2"/>
    </contour>
    <contour>
      <point x="106" y="340" type="line"/>
      <point x="106" y="35" type="line"/>
      <point x="326" y="35"/>
      <point x="513" y="84"/>
      <point x="513" y="200" type="curve" smooth="yes"/>
      <point x="513" y="300"/>
      <point x="411" y="340"/>
      <point x="328" y="340" type="curve" smooth="yes"/>
    </contour>
    <contour>
      <point x="106" y="643" type="line"/>
      <point x="106" y="378" type="line"/>
      <point x="318" y="378" type="line" smooth="yes"/>
      <point x="395" y="378"/>
      <point x="452" y="446"/>
      <point x="452" y="515" type="curve" smooth="yes"/>
      <point x="452" y="536"/>
      <point x="440" y="643"/>
      <point x="274" y="643" type="curve" smooth="yes"/>
    </contour>
  </outline>
</glyph>
<glyph name="D" format="1">
  <advance width="610"/>
  <unicode hex="0044"/>
  <outline>
    <contour>
      <point x="207" y="-21" type="curve" smooth="yes"/>
      <point x="148" y="-21"/>
      <point x="90" y="-5"/>
      <point x="82" y="-3" type="curve" smooth="yes"/>
      <point x="74" y="-1"/>
      <point x="68" y="7"/>
      <point x="68" y="15" type="curve" smooth="yes"/>
      <point x="68" y="662" type="line" smooth="yes"/>
      <point x="68" y="673"/>
      <point x="77" y="681"/>
      <point x="87" y="681" type="curve" smooth="yes"/>
      <point x="252" y="681"/>
      <point x="557" y="625"/>
      <point x="557" y="299" type="curve" smooth="yes"/>
      <point x="557" y="76"/>
      <point x="399" y="-21"/>
    </contour>
    <contour>
      <point x="106" y="643" type="curve"/>
      <point x="106" y="31" type="line"/>
      <point x="132" y="25"/>
      <point x="173" y="18"/>
      <point x="207" y="18" type="curve" smooth="yes"/>
      <point x="396" y="18"/>
      <point x="519" y="109"/>
      <point x="519" y="299" type="curve" smooth="yes"/>
      <point x="519" y="545"/>
      <point x="326" y="633"/>
    </contour>
  </outline>
</glyph>
<glyph name="I" format="1">
  <advance width="423"/>
  <unicode hex="0049"/>
  <outline>
    <contour>
      <point x="235" y="37" type="line"/>
      <point x="347" y="37" type="line" smooth="yes"/>
      <point x="359" y="37"/>
      <point x="366" y="29"/>
      <point x="366" y="19" type="curve" smooth="yes"/>
      <point x="366" y="8"/>
      <point x="357" y="-1"/>
      <point x="347" y="-1" type="curve" smooth="yes"/>
      <point x="83" y="-1" type="line" smooth="yes"/>
      <point x="73" y="-1"/>
      <point x="64" y="8"/>
      <point x="64" y="19" type="curve" smooth="yes"/>
      <point x="64" y="29"/>
      <point x="73" y="37"/>
      <point x="83" y="37" type="curve" smooth="yes"/>
      <point x="197" y="37" type="line"/>
      <point x="197" y="643" type="line"/>
      <point x="83" y="643" type="line" smooth="yes"/>
      <point x="73" y="643"/>
      <point x="64" y="652"/>
      <point x="64" y="662" type="curve" smooth="yes"/>
      <point x="64" y="673"/>
      <point x="73" y="681"/>
      <point x="83" y="681" type="curve" smooth="yes"/>
      <point x="347" y="681" type="line" smooth="yes"/>
      <point x="357" y="681"/>
      <point x="366" y="673"/>
      <point x="366" y="662" type="curve" smooth="yes"/>
      <point x="366" y="652"/>
      <point x="357" y="643"/>
      <point x="347" y="643" type="curve" smooth="yes"/>
      <point x="235" y="643" type="line"/>
    </contour>
  </outline>
</glyph>
<glyph name="J" format="1">
  <advance width="462"/>
  <unicode hex="004A"/>
  <outline>
    <contour>
      <point x="217" y="677" type="line" smooth="yes"/>
      <point x="207" y="677"/>
      <point x="197" y="669"/>
      <point x="197" y="658" type="curve" smooth="yes"/>
      <point x="197" y="648"/>
      <point x="207" y="639"/>
      <point x="217" y="639" type="curve" smooth="yes"/>
      <point x="354" y="639" type="line"/>
      <point x="354" y="154" type="line" smooth="yes"/>
      <point x="354" y="118"/>
      <point x="341" y="38"/>
      <point x="226" y="38" type="curve" smooth="yes"/>
      <point x="96" y="38"/>
      <point x="91" y="142"/>
      <point x="91" y="166" type="curve" smooth="yes"/>
      <point x="91" y="176"/>
      <point x="83" y="185"/>
      <point x="73" y="185" type="curve" smooth="yes"/>
      <point x="60" y="185"/>
      <point x="53" y="176"/>
      <point x="53" y="164" type="curve" smooth="yes"/>
      <point x="53" y="124"/>
      <point x="74" y="0"/>
      <point x="226" y="0" type="curve" smooth="yes"/>
      <point x="349" y="0"/>
      <point x="392" y="83"/>
      <point x="392" y="154" type="curve" smooth="yes"/>
      <point x="392" y="639" type="line"/>
      <point x="428" y="639" type="line" smooth="yes"/>
      <point x="438" y="639"/>
      <point x="447" y="648"/>
      <point x="447" y="658" type="curve" smooth="yes"/>
      <point x="447" y="669"/>
      <point x="438" y="677"/>
      <point x="428" y="677" type="curve" smooth="yes"/>
    </contour>
  </outline>
</glyph>
<glyph name="K" format="1">
  <advance width="560"/>
  <unicode hex="004B"/>
  <outline>
    <contour>
      <point x="104" y="367" type="line"/>
      <point x="104" y="664" type="line" smooth="yes"/>
      <point x="104" y="673"/>
      <point x="96" y="681"/>
      <point x="85" y="681" type="curve" smooth="yes"/>
      <point x="76" y="681"/>
      <point x="68" y="673"/>
      <point x="68" y="664" type="curve" smooth="yes"/>
      <point x="68" y="19" type="line" smooth="yes"/>
      <point x="68" y="8"/>
      <point x="76" y="0"/>
      <point x="85" y="0" type="curve" smooth="yes"/>
      <point x="96" y="0"/>
      <point x="104" y="8"/>
      <point x="104" y="19" type="curve" smooth="yes"/>
      <point x="104" y="301" type="line"/>
      <point x="486" y="3" type="line" smooth="yes"/>
      <point x="489" y="0"/>
      <point x="493" y="-1"/>
      <point x="497" y="-1" type="curve" smooth="yes"/>
      <point x="507" y="-1"/>
      <point x="516" y="6"/>
      <point x="516" y="17" type="curve" smooth="yes"/>
      <point x="516" y="22"/>
      <point x="515" y="27"/>
      <point x="509" y="32" type="curve" smooth="yes"/>
      <point x="119" y="335" type="line"/>
      <point x="489" y="650" type="line" smooth="yes"/>
      <point x="493" y="653"/>
      <point x="496" y="658"/>
      <point x="496" y="664" type="curve" smooth="yes"/>
      <point x="496" y="673"/>
      <point x="488" y="682"/>
      <point x="479" y="682" type="curve" smooth="yes"/>
      <point x="474" y="682"/>
      <point x="470" y="680"/>
      <point x="466" y="677" type="curve" smooth="yes"/>
    </contour>
  </outline>
</glyph>
<glyph name="L" format="1">
  <advance width="467"/>
  <unicode hex="004C"/>
  <outline>
    <contour>
      <point x="443" y="25" type="line" smooth="yes"/>
      <point x="454" y="26"/>
      <point x="461" y="34"/>
      <point x="461" y="43" type="curve" smooth="yes"/>
      <point x="461" y="54"/>
      <point x="452" y="63"/>
      <point x="441" y="62" type="curve" smooth="yes"/>
      <point x="105" y="38" type="line"/>
      <point x="105" y="662" type="line" smooth="yes"/>
      <point x="105" y="673"/>
      <point x="97" y="681"/>
      <point x="87" y="681" type="curve" smooth="yes"/>
      <point x="76" y="681"/>
      <point x="68" y="673"/>
      <point x="68" y="662" type="curve" smooth="yes"/>
      <point x="68" y="19" type="line" smooth="yes"/>
      <point x="68" y="7"/>
      <point x="77" y="-1"/>
      <point x="87" y="0" type="curve" smooth="yes"/>
    </contour>
  </outline>
</glyph>
<glyph name="N" format="1">
  <advance width="609"/>
  <unicode hex="004E"/>
  <outline>
    <contour>
      <point x="517" y="7" type="line" smooth="yes"/>
      <point x="520" y="2"/>
      <point x="525" y="0"/>
      <point x="532" y="0" type="curve" smooth="yes"/>
      <point x="543" y="0"/>
      <point x="551" y="8"/>
      <point x="551" y="19" type="curve" smooth="yes"/>
      <point x="551" y="664" type="line" smooth="yes"/>
      <point x="551" y="674"/>
      <point x="543" y="682"/>
      <point x="532" y="682" type="curve" smooth="yes"/>
      <point x="522" y="682"/>
      <point x="514" y="674"/>
      <point x="514" y="664" type="curve" smooth="yes"/>
      <point x="514" y="77" type="line"/>
      <point x="105" y="670" type="line" smooth="yes"/>
      <point x="100" y="678"/>
      <point x="94" y="681"/>
      <point x="86" y="681" type="curve" smooth="yes"/>
      <point x="76" y="681"/>
      <point x="69" y="673"/>
      <point x="69" y="662" type="curve" smooth="yes"/>
      <point x="68" y="19" type="line" smooth="yes"/>
      <point x="68" y="8"/>
      <point x="76" y="0"/>
      <point x="86" y="0" type="curve" smooth="yes"/>
      <point x="96" y="0"/>
      <point x="105" y="8"/>
      <point x="105" y="19" type="curve" smooth="yes"/>
      <point x="106" y="603" type="line"/>
    </contour>
  </outline>
</glyph>
<glyph name="P" format="1">
  <advance width="537"/>
  <unicode hex="0050"/>
  <outline>
    <contour>
      <point x="86" y="0" type="curve" smooth="yes"/>
      <point x="97" y="0"/>
      <point x="105" y="8"/>
      <point x="105" y="19" type="curve" smooth="yes"/>
      <point x="105" y="246" type="line"/>
      <point x="249" y="246"/>
      <point x="513" y="298"/>
      <point x="513" y="481" type="curve" smooth="yes"/>
      <point x="513" y="610"/>
      <point x="391" y="682"/>
      <point x="139" y="682" type="curve" smooth="yes"/>
      <point x="70" y="682"/>
      <point x="68" y="674"/>
      <point x="68" y="650" type="curve" smooth="yes"/>
      <point x="68" y="19" type="line" smooth="yes"/>
      <point x="68" y="8"/>
      <point x="76" y="0"/>
    </contour>
    <contour>
      <point x="105" y="643" type="line"/>
      <point x="123" y="645"/>
      <point x="143" y="645"/>
      <point x="156" y="645" type="curve" smooth="yes"/>
      <point x="360" y="645"/>
      <point x="476" y="586"/>
      <point x="476" y="481" type="curve" smooth="yes"/>
      <point x="476" y="312"/>
      <point x="199" y="283"/>
      <point x="105" y="283" type="curve"/>
    </contour>
  </outline>
</glyph>
<glyph name="Q" format="1">
  <advance width="704"/>
  <unicode hex="0051"/>
  <outline>
    <contour>
      <point x="540" y="83" type="line"/>
      <point x="614" y="158"/>
      <point x="661" y="261"/>
      <point x="661" y="367" type="curve" smooth="yes"/>
      <point x="661" y="537"/>
      <point x="543" y="680"/>
      <point x="381" y="680" type="curve" smooth="yes"/>
      <point x="205" y="680"/>
      <point x="52" y="512"/>
      <point x="52" y="310" type="curve" smooth="yes"/>
      <point x="52" y="141"/>
      <point x="170" y="-2"/>
      <point x="333" y="-2" type="curve" smooth="yes"/>
      <point x="393" y="-2"/>
      <point x="455" y="21"/>
      <point x="510" y="60" type="curve"/>
      <point x="633" y="-22" type="line" smooth="yes"/>
      <point x="638" y="-25"/>
      <point x="641" y="-25"/>
      <point x="644" y="-25" type="curve" smooth="yes"/>
      <point x="653" y="-25"/>
      <point x="663" y="-19"/>
      <point x="663" y="-7" type="curve" smooth="yes"/>
      <point x="663" y="-1"/>
      <point x="661" y="5"/>
      <point x="655" y="9" type="curve" smooth="yes"/>
    </contour>
    <contour>
      <point x="333" y="33" type="curve" smooth="yes"/>
      <point x="194" y="33"/>
      <point x="94" y="157"/>
      <point x="94" y="314" type="curve" smooth="yes"/>
      <point x="94" y="498"/>
      <point x="227" y="645"/>
      <point x="373" y="645" type="curve" smooth="yes"/>
      <point x="516" y="645"/>
      <point x="619" y="507"/>
      <point x="619" y="364" type="curve" smooth="yes"/>
      <point x="619" y="264"/>
      <point x="573" y="169"/>
      <point x="508" y="105" type="curve"/>
      <point x="404" y="174" type="line" smooth="yes"/>
      <point x="401" y="176"/>
      <point x="396" y="177"/>
      <point x="392" y="177" type="curve" smooth="yes"/>
      <point x="383" y="177"/>
      <point x="375" y="169"/>
      <point x="375" y="159" type="curve" smooth="yes"/>
      <point x="375" y="152"/>
      <point x="378" y="146"/>
      <point x="383" y="143" type="curve" smooth="yes"/>
      <point x="477" y="81" type="line"/>
      <point x="427" y="50"/>
      <point x="378" y="33"/>
    </contour>
  </outline>
</glyph>
<glyph name="R" format="1">
  <advance width="587"/>
  <unicode hex="0052"/>
  <outline>
    <contour>
      <point x="541" y="27" type="curve" smooth="yes"/>
      <point x="542" y="24"/>
      <point x="543" y="22"/>
      <point x="543" y="19" type="curve" smooth="yes"/>
      <point x="543" y="9"/>
      <point x="537" y="0"/>
      <point x="524" y="0" type="curve" smooth="yes"/>
      <point x="517" y="0"/>
      <point x="512" y="5"/>
      <point x="508" y="11" type="curve" smooth="yes"/>
      <point x="372" y="241"/>
      <point x="259" y="258"/>
      <point x="214" y="258" type="curve" smooth="yes"/>
      <point x="193" y="258"/>
      <point x="144" y="253"/>
      <point x="105" y="247" type="curve"/>
      <point x="105" y="19" type="line" smooth="yes"/>
      <point x="105" y="8"/>
      <point x="96" y="0"/>
      <point x="86" y="0" type="curve" smooth="yes"/>
      <point x="76" y="0"/>
      <point x="68" y="8"/>
      <point x="68" y="19" type="curve" smooth="yes"/>
      <point x="68" y="657" type="line" smooth="yes"/>
      <point x="68" y="687.118"/>
      <point x="80.4014" y="688.003"/>
      <point x="151.892" y="688.003" type="curve" smooth="yes"/>
      <point x="156.36" y="688.003"/>
      <point x="161.059" y="688"/>
      <point x="166" y="688" type="curve" smooth="yes"/>
      <point x="391" y="688"/>
      <point x="517" y="613"/>
      <point x="517" y="482" type="curve" smooth="yes"/>
      <point x="517" y="373"/>
      <point x="413" y="311"/>
      <point x="309" y="276" type="curve"/>
      <point x="359" y="246"/>
      <point x="473" y="161"/>
    </contour>
    <contour>
      <point x="105" y="649" type="curve"/>
      <point x="105" y="285" type="line"/>
      <point x="261" y="288"/>
      <point x="480" y="342"/>
      <point x="480" y="482" type="curve" smooth="yes"/>
      <point x="480" y="594"/>
      <point x="362" y="651"/>
      <point x="162" y="651" type="curve" smooth="yes"/>
      <point x="152" y="651"/>
      <point x="120" y="650"/>
    </contour>
  </outline>
</glyph>
<glyph name="S" format="1">
  <advance width="588"/>
  <unicode hex="0053"/>
  <outline>
    <contour>
      <point x="315" y="379" type="curve" smooth="yes"/>
      <point x="461" y="338"/>
      <point x="533" y="278"/>
      <point x="533" y="188" type="curve" smooth="yes"/>
      <point x="533" y="61"/>
      <point x="406" y="0"/>
      <point x="304" y="0" type="curve" smooth="yes"/>
      <point x="191" y="0"/>
      <point x="100" y="56"/>
      <point x="66" y="138" type="curve" smooth="yes"/>
      <point x="65" y="141"/>
      <point x="63" y="147"/>
      <point x="63" y="151" type="curve" smooth="yes"/>
      <point x="63" y="162"/>
      <point x="73" y="171"/>
      <point x="84" y="171" type="curve" smooth="yes"/>
      <point x="95" y="171"/>
      <point x="101" y="165"/>
      <point x="104" y="156" type="curve" smooth="yes"/>
      <point x="132" y="76"/>
      <point x="227" y="34"/>
      <point x="303" y="34" type="curve" smooth="yes"/>
      <point x="384" y="34"/>
      <point x="490" y="77"/>
      <point x="490" y="188" type="curve" smooth="yes"/>
      <point x="490" y="227"/>
      <point x="478" y="295"/>
      <point x="308" y="341" type="curve" smooth="yes"/>
      <point x="211" y="367"/>
      <point x="100" y="419"/>
      <point x="100" y="515" type="curve" smooth="yes"/>
      <point x="100" y="642"/>
      <point x="215" y="682"/>
      <point x="327" y="682" type="curve" smooth="yes"/>
      <point x="398" y="682"/>
      <point x="519" y="659"/>
      <point x="530" y="553" type="curve"/>
      <point x="530" y="543"/>
      <point x="524" y="534"/>
      <point x="513" y="534" type="curve" smooth="yes"/>
      <point x="502" y="534"/>
      <point x="496" y="541"/>
      <point x="495" y="549" type="curve" smooth="yes"/>
      <point x="487" y="619"/>
      <point x="403" y="650"/>
      <point x="324" y="650" type="curve" smooth="yes"/>
      <point x="230" y="650"/>
      <point x="140" y="619"/>
      <point x="140" y="520" type="curve" smooth="yes"/>
      <point x="140" y="455"/>
      <point x="202" y="410"/>
    </contour>
  </outline>
</glyph>
<glyph name="T" format="1">
  <advance width="512"/>
  <unicode hex="0054"/>
  <outline>
    <contour>
      <point x="30" y="681" type="line" smooth="yes"/>
      <point x="20" y="681"/>
      <point x="11" y="673"/>
      <point x="11" y="662" type="curve" smooth="yes"/>
      <point x="11" y="652"/>
      <point x="20" y="644"/>
      <point x="30" y="644" type="curve" smooth="yes"/>
      <point x="234" y="644" type="line"/>
      <point x="234" y="19" type="line" smooth="yes"/>
      <point x="234" y="8"/>
      <point x="242" y="0"/>
      <point x="253" y="0" type="curve" smooth="yes"/>
      <point x="263" y="0"/>
      <point x="271" y="8"/>
      <point x="271" y="19" type="curve" smooth="yes"/>
      <point x="271" y="644" type="line"/>
      <point x="490" y="644" type="line" smooth="yes"/>
      <point x="500" y="644"/>
      <point x="509" y="652"/>
      <point x="509" y="662" type="curve" smooth="yes"/>
      <point x="509" y="673"/>
      <point x="500" y="681"/>
      <point x="490" y="681" type="curve" smooth="yes"/>
    </contour>
  </outline>
</glyph>
<glyph name="V" format="1">
  <advance width="525"/>
  <unicode hex="0056"/>
  <outline>
    <contour>
      <point x="249" y="0" type="curve" smooth="yes"/>
      <point x="241" y="0"/>
      <point x="233" y="3"/>
      <point x="230" y="12" type="curve" smooth="yes"/>
      <point x="15" y="650" type="line" smooth="yes"/>
      <point x="14" y="654"/>
      <point x="13" y="659"/>
      <point x="13" y="662" type="curve" smooth="yes"/>
      <point x="13" y="672"/>
      <point x="20" y="680"/>
      <point x="32" y="680" type="curve" smooth="yes"/>
      <point x="41" y="680"/>
      <point x="47" y="676"/>
      <point x="50" y="668" type="curve" smooth="yes"/>
      <point x="251" y="74" type="line"/>
      <point x="484" y="669" type="line" smooth="yes"/>
      <point x="487" y="676"/>
      <point x="493" y="680"/>
      <point x="501" y="680" type="curve" smooth="yes"/>
      <point x="511" y="680"/>
      <point x="521" y="674"/>
      <point x="521" y="664" type="curve" smooth="yes"/>
      <point x="521" y="658"/>
      <point x="520" y="655"/>
      <point x="519" y="652" type="curve" smooth="yes"/>
      <point x="266" y="12" type="line" smooth="yes"/>
      <point x="263" y="4"/>
      <point x="257" y="0"/>
    </contour>
  </outline>
</glyph>
<glyph name="W" format="1">
  <advance width="857"/>
  <unicode hex="0057"/>
  <outline>
    <contour>
      <point x="45" y="668" type="line" smooth="yes"/>
      <point x="43" y="676"/>
      <point x="37" y="681"/>
      <point x="28" y="681" type="curve" smooth="yes"/>
      <point x="18" y="681"/>
      <point x="10" y="674"/>
      <point x="10" y="664" type="curve" smooth="yes"/>
      <point x="10" y="661"/>
      <point x="11" y="657"/>
      <point x="15" y="644" type="curve" smooth="yes"/>
      <point x="207" y="12" type="line" smooth="yes"/>
      <point x="209" y="4"/>
      <point x="216" y="0"/>
      <point x="223" y="0" type="curve" smooth="yes"/>
      <point x="232" y="0"/>
      <point x="238" y="3"/>
      <point x="241" y="12" type="curve" smooth="yes"/>
      <point x="430" y="601" type="line"/>
      <point x="592" y="12" type="line" smooth="yes"/>
      <point x="594" y="4"/>
      <point x="600" y="0"/>
      <point x="610" y="0" type="curve" smooth="yes"/>
      <point x="619" y="0"/>
      <point x="625" y="5"/>
      <point x="627" y="11" type="curve" smooth="yes"/>
      <point x="858" y="653" type="line" smooth="yes"/>
      <point x="859" y="656"/>
      <point x="860" y="660"/>
      <point x="860" y="665" type="curve" smooth="yes"/>
      <point x="860" y="672"/>
      <point x="854" y="681"/>
      <point x="842" y="681" type="curve" smooth="yes"/>
      <point x="833" y="681"/>
      <point x="827" y="677"/>
      <point x="823" y="667" type="curve" smooth="yes"/>
      <point x="611" y="79" type="line"/>
      <point x="449" y="668" type="line" smooth="yes"/>
      <point x="447" y="676"/>
      <point x="441" y="681"/>
      <point x="433" y="681" type="curve" smooth="yes"/>
      <point x="425" y="681"/>
      <point x="418" y="677"/>
      <point x="415" y="669" type="curve" smooth="yes"/>
      <point x="224" y="78" type="line"/>
    </contour>
  </outline>
</glyph>
<glyph name="X" format="1">
  <advance width="671"/>
  <unicode hex="0058"/>
  <outline>
    <contour>
      <point x="592" y="6" type="curve" smooth="yes"/>
      <point x="344" y="316" type="line"/>
      <point x="85" y="6" type="line" smooth="yes"/>
      <point x="82" y="2"/>
      <point x="76" y="0"/>
      <point x="71" y="0" type="curve" smooth="yes"/>
      <point x="60" y="0"/>
      <point x="52" y="9"/>
      <point x="52" y="19" type="curve" smooth="yes"/>
      <point x="52" y="23"/>
      <point x="54" y="28"/>
      <point x="57" y="31" type="curve" smooth="yes"/>
      <point x="322" y="346" type="line"/>
      <point x="78" y="651" type="line" smooth="yes"/>
      <point x="76" y="654"/>
      <point x="73" y="659"/>
      <point x="73" y="664" type="curve" smooth="yes"/>
      <point x="73" y="673"/>
      <point x="83" y="681"/>
      <point x="93" y="681" type="curve" smooth="yes"/>
      <point x="98" y="681"/>
      <point x="103" y="680"/>
      <point x="107" y="675" type="curve" smooth="yes"/>
      <point x="345" y="375" type="line"/>
      <point x="597" y="675" type="line" smooth="yes"/>
      <point x="601" y="680"/>
      <point x="606" y="681"/>
      <point x="611" y="681" type="curve" smooth="yes"/>
      <point x="621" y="681"/>
      <point x="630" y="673"/>
      <point x="630" y="664" type="curve" smooth="yes"/>
      <point x="630" y="659"/>
      <point x="629" y="655"/>
      <point x="625" y="650" type="curve" smooth="yes"/>
      <point x="369" y="345" type="line"/>
      <point x="620" y="30" type="line" smooth="yes"/>
      <point x="622" y="27"/>
      <point x="623" y="23"/>
      <point x="623" y="19" type="curve" smooth="yes"/>
      <point x="623" y="8"/>
      <point x="615" y="0"/>
      <point x="606" y="0" type="curve" smooth="yes"/>
      <point x="601" y="0"/>
      <point x="596" y="1"/>
    </contour>
  </outline>
</glyph>
<glyph name="bracketleft" format="1">
  <advance width="305"/>
  <unicode hex="005B"/>
  <outline>
    <contour>
      <point x="216" y="-129" type="line" smooth="yes"/>
      <point x="226" y="-129"/>
      <point x="234" y="-121"/>
      <point x="234" y="-110" type="curve" smooth="yes"/>
      <point x="234" y="-100"/>
      <point x="226" y="-92"/>
      <point x="216" y="-92" type="curve" smooth="yes"/>
      <point x="108" y="-92" type="line"/>
      <point x="108" y="782" type="line"/>
      <point x="232" y="782" type="line" smooth="yes"/>
      <point x="243" y="782"/>
      <point x="251" y="790"/>
      <point x="251" y="800" type="curve" smooth="yes"/>
      <point x="251" y="811"/>
      <point x="243" y="819"/>
      <point x="232" y="819" type="curve" smooth="yes"/>
      <point x="90" y="819" type="line" smooth="yes"/>
      <point x="79" y="819"/>
      <point x="71" y="811"/>
      <point x="71" y="800" type="curve" smooth="yes"/>
      <point x="71" y="-110" type="line" smooth="yes"/>
      <point x="71" y="-121"/>
      <point x="79" y="-129"/>
      <point x="90" y="-129" type="curve" smooth="yes"/>
    </contour>
  </outline>
</glyph>
<glyph name="backslash" format="1">
  <advance width="535"/>
  <unicode hex="005C"/>
  <outline>
    <contour>
      <point x="442" y="6" type="curve" smooth="yes"/>
      <point x="73" y="672" type="line" smooth="yes"/>
      <point x="72" y="674"/>
      <point x="71" y="677"/>
      <point x="71" y="680" type="curve" smooth="yes"/>
      <point x="71" y="692"/>
      <point x="78" y="700"/>
      <point x="90" y="700" type="curve" smooth="yes"/>
      <point x="96" y="700"/>
      <point x="102" y="698"/>
      <point x="105" y="692" type="curve" smooth="yes"/>
      <point x="472" y="29" type="line" smooth="yes"/>
      <point x="475" y="24"/>
      <point x="476" y="19"/>
      <point x="476" y="17" type="curve" smooth="yes"/>
      <point x="476" y="6"/>
      <point x="466" y="-2"/>
      <point x="457" y="-2" type="curve" smooth="yes"/>
      <point x="451" y="-2"/>
      <point x="446" y="-1"/>
    </contour>
  </outline>
</glyph>
<glyph name="grave" format="1">
  <advance width="490"/>
  <unicode hex="0060"/>
  <outline>
    <contour>
      <point x="217" y="763" type="line" smooth="yes"/>
      <point x="211" y="771"/>
      <point x="204" y="774"/>
      <point x="196" y="774" type="curve" smooth="yes"/>
      <point x="182" y="774"/>
      <point x="169" y="763"/>
      <point x="169" y="749" type="curve" smooth="yes"/>
      <point x="169" y="742"/>
      <point x="172" y="736"/>
      <point x="177" y="730" type="curve" smooth="yes"/>
      <point x="300" y="604" type="line" smooth="yes"/>
      <point x="304" y="600"/>
      <point x="309" y="598"/>
      <point x="313" y="598" type="curve" smooth="yes"/>
      <point x="322" y="598"/>
      <point x="332" y="604"/>
      <point x="332" y="614" type="curve" smooth="yes"/>
      <point x="332" y="618"/>
      <point x="330" y="622"/>
      <point x="326" y="627" type="curve" smooth="yes"/>
    </contour>
  </outline>
</glyph>
<glyph name="b" format="1">
  <advance width="514"/>
  <unicode hex="0062"/>
  <outline>
    <contour>
      <point x="302" y="491" type="curve" smooth="yes"/>
      <point x="233" y="491"/>
      <point x="158" y="451"/>
      <point x="104" y="388" type="curve"/>
      <point x="104" y="683" type="line" smooth="yes"/>
      <point x="104" y="692"/>
      <point x="96" y="698"/>
      <point x="86" y="698" type="curve" smooth="yes"/>
      <point x="76" y="698"/>
      <point x="67" y="692"/>
      <point x="67" y="683" type="curve" smooth="yes"/>
      <point x="67" y="17" type="line" smooth="yes"/>
      <point x="67" y="7"/>
      <point x="76" y="0"/>
      <point x="86" y="0" type="curve" smooth="yes"/>
      <point x="96" y="0"/>
      <point x="104" y="8"/>
      <point x="104" y="17" type="curve" smooth="yes"/>
      <point x="104" y="42" type="line"/>
      <point x="143" y="26"/>
      <point x="204" y="7"/>
      <point x="257" y="7" type="curve" smooth="yes"/>
      <point x="410" y="7"/>
      <point x="473" y="126"/>
      <point x="473" y="272" type="curve" smooth="yes"/>
      <point x="473" y="374"/>
      <point x="428" y="491"/>
    </contour>
    <contour>
      <point x="249" y="42" type="curve" smooth="yes"/>
      <point x="188" y="42"/>
      <point x="125" y="65"/>
      <point x="104" y="74" type="curve"/>
      <point x="104" y="296" type="line" smooth="yes"/>
      <point x="104" y="383"/>
      <point x="190" y="453"/>
      <point x="306" y="453" type="curve" smooth="yes"/>
      <point x="409" y="453"/>
      <point x="438" y="348"/>
      <point x="438" y="272" type="curve" smooth="yes"/>
      <point x="438" y="133"/>
      <point x="387" y="42"/>
    </contour>
  </outline>
</glyph>
<glyph name="e" format="1">
  <advance width="511"/>
  <unicode hex="0065"/>
  <outline>
    <contour>
      <point x="470" y="83" type="curve" smooth="yes"/>
      <point x="470" y="93"/>
      <point x="463" y="100"/>
      <point x="453" y="100" type="curve" smooth="yes"/>
      <point x="449" y="100"/>
      <point x="446" y="98"/>
      <point x="443" y="95" type="curve" smooth="yes"/>
      <point x="414" y="60"/>
      <point x="349" y="33"/>
      <point x="301" y="33" type="curve" smooth="yes"/>
      <point x="213" y="33"/>
      <point x="146" y="74"/>
      <point x="102" y="155" type="curve"/>
      <point x="443" y="350" type="line" smooth="yes"/>
      <point x="455" y="357"/>
      <point x="461" y="365"/>
      <point x="461" y="371" type="curve" smooth="yes"/>
      <point x="461" y="413"/>
      <point x="403" y="499"/>
      <point x="276" y="499" type="curve" smooth="yes"/>
      <point x="141" y="499"/>
      <point x="53" y="376"/>
      <point x="53" y="238" type="curve" smooth="yes"/>
      <point x="53" y="114"/>
      <point x="149" y="0"/>
      <point x="302" y="0" type="curve" smooth="yes"/>
      <point x="363" y="0"/>
      <point x="430" y="32"/>
      <point x="465" y="72" type="curve" smooth="yes"/>
      <point x="468" y="75"/>
      <point x="470" y="79"/>
    </contour>
    <contour>
      <point x="276" y="465" type="curve" smooth="yes"/>
      <point x="358" y="465"/>
      <point x="404" y="432"/>
      <point x="427" y="373" type="curve"/>
      <point x="91" y="188" type="line"/>
      <point x="85" y="216"/>
      <point x="85" y="225"/>
      <point x="85" y="237" type="curve" smooth="yes"/>
      <point x="85" y="364"/>
      <point x="164" y="465"/>
    </contour>
  </outline>
</glyph>
<glyph name="g" format="1">
  <advance width="511"/>
  <unicode hex="0067"/>
  <outline>
    <contour>
      <point x="114" y="-177" type="curve" smooth="yes"/>
      <point x="146" y="-184"/>
      <point x="192" y="-193"/>
      <point x="240" y="-193" type="curve" smooth="yes"/>
      <point x="355" y="-193"/>
      <point x="440" y="-130"/>
      <point x="443" y="9" type="curve" smooth="yes"/>
      <point x="454" y="492" type="line" smooth="yes"/>
      <point x="454" y="507"/>
      <point x="445" y="512"/>
      <point x="439" y="512" type="curve" smooth="yes"/>
      <point x="418" y="512"/>
      <point x="416" y="494"/>
      <point x="416" y="458" type="curve"/>
      <point x="384" y="481"/>
      <point x="336" y="500"/>
      <point x="290" y="500" type="curve" smooth="yes"/>
      <point x="155" y="500"/>
      <point x="53" y="374"/>
      <point x="53" y="241" type="curve" smooth="yes"/>
      <point x="53" y="105"/>
      <point x="132" y="-1"/>
      <point x="249" y="-1" type="curve" smooth="yes"/>
      <point x="313" y="-1"/>
      <point x="380" y="51"/>
      <point x="408" y="102" type="curve"/>
      <point x="405" y="14" type="line" smooth="yes"/>
      <point x="401" y="-89"/>
      <point x="361" y="-155"/>
      <point x="239" y="-155" type="curve" smooth="yes"/>
      <point x="186" y="-155"/>
      <point x="156" y="-149"/>
      <point x="139" y="-145" type="curve" smooth="yes"/>
      <point x="131" y="-143"/>
      <point x="121" y="-141"/>
      <point x="118" y="-141" type="curve" smooth="yes"/>
      <point x="107" y="-141"/>
      <point x="99" y="-149"/>
      <point x="99" y="-159" type="curve" smooth="yes"/>
      <point x="99" y="-168"/>
      <point x="105" y="-175"/>
    </contour>
    <contour>
      <point x="412" y="268" type="line" smooth="yes"/>
      <point x="412" y="88"/>
      <point x="317" y="33"/>
      <point x="241" y="33" type="curve" smooth="yes"/>
      <point x="128" y="33"/>
      <point x="85" y="157"/>
      <point x="85" y="237" type="curve" smooth="yes"/>
      <point x="85" y="367"/>
      <point x="179" y="464"/>
      <point x="294" y="464" type="curve" smooth="yes"/>
      <point x="337" y="464"/>
      <point x="386" y="447"/>
      <point x="412" y="424" type="curve"/>
    </contour>
  </outline>
</glyph>
<glyph name="h" format="1">
  <advance width="493"/>
  <unicode hex="0068"/>
  <outline>
    <contour>
      <point x="105" y="678" type="curve" smooth="yes"/>
      <point x="105" y="311" type="line"/>
      <point x="142" y="394"/>
      <point x="242" y="502"/>
      <point x="324" y="502" type="curve" smooth="yes"/>
      <point x="419" y="502"/>
      <point x="451" y="387"/>
      <point x="451" y="158" type="curve" smooth="yes"/>
      <point x="451" y="91"/>
      <point x="451" y="50"/>
      <point x="448" y="19" type="curve" smooth="yes"/>
      <point x="447" y="8"/>
      <point x="441" y="0"/>
      <point x="430" y="0" type="curve" smooth="yes"/>
      <point x="422" y="0"/>
      <point x="413" y="8"/>
      <point x="413" y="18" type="curve" smooth="yes"/>
      <point x="413" y="22"/>
      <point x="414" y="36"/>
      <point x="414" y="45" type="curve" smooth="yes"/>
      <point x="415" y="70"/>
      <point x="415" y="108"/>
      <point x="415" y="150" type="curve" smooth="yes"/>
      <point x="415" y="431"/>
      <point x="361" y="466"/>
      <point x="319" y="466" type="curve" smooth="yes"/>
      <point x="225" y="466"/>
      <point x="140" y="326"/>
      <point x="122" y="288" type="curve" smooth="yes"/>
      <point x="110" y="261"/>
      <point x="105" y="225"/>
      <point x="105" y="191" type="curve" smooth="yes"/>
      <point x="105" y="20" type="line" smooth="yes"/>
      <point x="105" y="6"/>
      <point x="97" y="-1"/>
      <point x="86" y="-1" type="curve" smooth="yes"/>
      <point x="76" y="-1"/>
      <point x="68" y="7"/>
      <point x="68" y="18" type="curve" smooth="yes"/>
      <point x="68" y="678" type="line" smooth="yes"/>
      <point x="68" y="689"/>
      <point x="76" y="698"/>
      <point x="86" y="698" type="curve" smooth="yes"/>
      <point x="98" y="698"/>
      <point x="105" y="689"/>
    </contour>
  </outline>
</glyph>
<glyph name="i" format="1">
  <advance width="184"/>
  <unicode hex="0069"/>
  <outline>
    <contour>
      <point x="117" y="476" type="curve" smooth="yes"/>
      <point x="111" y="20" type="line" smooth="yes"/>
      <point x="111" y="9"/>
      <point x="101" y="0"/>
      <point x="91" y="0" type="curve" smooth="yes"/>
      <point x="80" y="0"/>
      <point x="71" y="9"/>
      <point x="71" y="20" type="curve" smooth="yes"/>
      <point x="77" y="476" type="line" smooth="yes"/>
      <point x="77" y="487"/>
      <point x="87" y="496"/>
      <point x="97" y="496" type="curve" smooth="yes"/>
      <point x="108" y="496"/>
      <point x="117" y="487"/>
    </contour>
    <contour>
      <point x="97" y="610" type="curve" smooth="yes"/>
      <point x="88" y="610"/>
      <point x="79" y="618"/>
      <point x="79" y="628" type="curve" smooth="yes"/>
      <point x="80" y="671" type="line" smooth="yes"/>
      <point x="80" y="680"/>
      <point x="89" y="689"/>
      <point x="99" y="689" type="curve" smooth="yes"/>
      <point x="109" y="689"/>
      <point x="117" y="679"/>
      <point x="117" y="670" type="curve" smooth="yes"/>
      <point x="116" y="627" type="line" smooth="yes"/>
      <point x="116" y="616"/>
      <point x="107" y="610"/>
    </contour>
  </outline>
</glyph>
<glyph name="j" format="1">
  <advance width="323"/>
  <unicode hex="006A"/>
  <outline>
    <contour>
      <point x="253" y="483" type="curve" smooth="yes"/>
      <point x="258" y="-13" type="line" smooth="yes"/>
      <point x="259" y="-75"/>
      <point x="238" y="-189"/>
      <point x="142" y="-189" type="curve" smooth="yes"/>
      <point x="51" y="-189"/>
      <point x="4" y="-73"/>
      <point x="-7" y="-47" type="curve" smooth="yes"/>
      <point x="-8" y="-44"/>
      <point x="-9" y="-42"/>
      <point x="-9" y="-38" type="curve" smooth="yes"/>
      <point x="-9" y="-28"/>
      <point x="0" y="-21"/>
      <point x="11" y="-21" type="curve" smooth="yes"/>
      <point x="19" y="-21"/>
      <point x="25" y="-24"/>
      <point x="30" y="-36" type="curve" smooth="yes"/>
      <point x="50" y="-87"/>
      <point x="87" y="-156"/>
      <point x="142" y="-156" type="curve" smooth="yes"/>
      <point x="217" y="-156"/>
      <point x="220" y="-42"/>
      <point x="220" y="-18" type="curve" smooth="yes"/>
      <point x="213" y="482" type="line" smooth="yes"/>
      <point x="213" y="493"/>
      <point x="221" y="502"/>
      <point x="233" y="502" type="curve" smooth="yes"/>
      <point x="243" y="502"/>
      <point x="253" y="497"/>
    </contour>
    <contour>
      <point x="241" y="698" type="curve" smooth="yes"/>
      <point x="255" y="698"/>
      <point x="262" y="690"/>
      <point x="260" y="676" type="curve" smooth="yes"/>
      <point x="255" y="633" type="line" smooth="yes"/>
      <point x="254" y="623"/>
      <point x="245" y="618"/>
      <point x="235" y="618" type="curve" smooth="yes"/>
      <point x="224" y="618"/>
      <point x="217" y="627"/>
      <point x="218" y="635" type="curve" smooth="yes"/>
      <point x="224" y="685" type="line" smooth="yes"/>
      <point x="225" y="695"/>
      <point x="234" y="698"/>
    </contour>
  </outline>
</glyph>
<glyph name="k" format="1">
  <advance width="484"/>
  <unicode hex="006B"/>
  <outline>
    <contour>
      <point x="243" y="301" type="curve"/>
      <point x="290" y="344"/>
      <point x="378" y="432"/>
      <point x="423" y="491" type="curve" smooth="yes"/>
      <point x="425" y="493"/>
      <point x="427" y="497"/>
      <point x="427" y="501" type="curve" smooth="yes"/>
      <point x="427" y="511"/>
      <point x="419" y="519"/>
      <point x="409" y="519" type="curve" smooth="yes"/>
      <point x="403" y="519"/>
      <point x="397" y="516"/>
      <point x="394" y="511" type="curve" smooth="yes"/>
      <point x="314" y="405"/>
      <point x="174" y="279"/>
      <point x="106" y="235" type="curve"/>
      <point x="105" y="678" type="line" smooth="yes"/>
      <point x="105" y="689"/>
      <point x="98" y="698"/>
      <point x="86" y="698" type="curve" smooth="yes"/>
      <point x="76" y="698"/>
      <point x="68" y="690"/>
      <point x="68" y="680" type="curve" smooth="yes"/>
      <point x="70" y="19" type="line" smooth="yes"/>
      <point x="70" y="8"/>
      <point x="78" y="0"/>
      <point x="88" y="0" type="curve" smooth="yes"/>
      <point x="99" y="0"/>
      <point x="107" y="8"/>
      <point x="107" y="19" type="curve" smooth="yes"/>
      <point x="107" y="202" type="line"/>
      <point x="134" y="218"/>
      <point x="173" y="247"/>
      <point x="216" y="281" type="curve"/>
      <point x="249" y="241"/>
      <point x="362" y="96"/>
      <point x="428" y="9" type="curve" smooth="yes"/>
      <point x="432" y="4"/>
      <point x="436" y="2"/>
      <point x="443" y="2" type="curve" smooth="yes"/>
      <point x="454" y="2"/>
      <point x="461" y="12"/>
      <point x="461" y="20" type="curve" smooth="yes"/>
      <point x="461" y="27"/>
      <point x="458" y="31"/>
      <point x="455" y="35" type="curve" smooth="yes"/>
      <point x="415" y="88"/>
      <point x="343" y="177"/>
    </contour>
  </outline>
</glyph>
<glyph name="m" format="1">
  <advance width="803"/>
  <unicode hex="006D"/>
  <outline>
    <contour>
      <point x="624" y="512" type="curve" smooth="yes"/>
      <point x="571" y="512"/>
      <point x="480" y="467"/>
      <point x="438" y="382" type="curve"/>
      <point x="421" y="491"/>
      <point x="360" y="512"/>
      <point x="313" y="512" type="curve" smooth="yes"/>
      <point x="245" y="512"/>
      <point x="136" y="416"/>
      <point x="102" y="339" type="curve"/>
      <point x="102" y="480" type="line" smooth="yes"/>
      <point x="102" y="491"/>
      <point x="94" y="499"/>
      <point x="83" y="499" type="curve" smooth="yes"/>
      <point x="73" y="499"/>
      <point x="65" y="491"/>
      <point x="65" y="480" type="curve" smooth="yes"/>
      <point x="65" y="18" type="line" smooth="yes"/>
      <point x="65" y="8"/>
      <point x="73" y="0"/>
      <point x="83" y="0" type="curve" smooth="yes"/>
      <point x="94" y="0"/>
      <point x="102" y="8"/>
      <point x="102" y="18" type="curve" smooth="yes"/>
      <point x="102" y="256" type="line" smooth="yes"/>
      <point x="102" y="278"/>
      <point x="108" y="298"/>
      <point x="116" y="310" type="curve" smooth="yes"/>
      <point x="187" y="425"/>
      <point x="265" y="481"/>
      <point x="312" y="481" type="curve" smooth="yes"/>
      <point x="351" y="481"/>
      <point x="404" y="467"/>
      <point x="404" y="338" type="curve" smooth="yes"/>
      <point x="404" y="18" type="line" smooth="yes"/>
      <point x="404" y="8"/>
      <point x="413" y="0"/>
      <point x="423" y="0" type="curve" smooth="yes"/>
      <point x="433" y="0"/>
      <point x="442" y="8"/>
      <point x="442" y="18" type="curve" smooth="yes"/>
      <point x="442" y="284" type="line" smooth="yes"/>
      <point x="442" y="408"/>
      <point x="564" y="481"/>
      <point x="624" y="481" type="curve" smooth="yes"/>
      <point x="664" y="481"/>
      <point x="718" y="467"/>
      <point x="718" y="338" type="curve" smooth="yes"/>
      <point x="718" y="18" type="line" smooth="yes"/>
      <point x="718" y="8"/>
      <point x="726" y="0"/>
      <point x="737" y="0" type="curve" smooth="yes"/>
      <point x="747" y="0"/>
      <point x="755" y="8"/>
      <point x="755" y="18" type="curve" smooth="yes"/>
      <point x="755" y="330" type="line" smooth="yes"/>
      <point x="755" y="480"/>
      <point x="684" y="512"/>
    </contour>
  </outline>
</glyph>
<glyph name="n" format="1">
  <advance width="525"/>
  <unicode hex="006E"/>
  <outline>
    <contour>
      <point x="105" y="482" type="line" smooth="yes"/>
      <point x="105" y="492"/>
      <point x="97" y="500"/>
      <point x="86" y="500" type="curve" smooth="yes"/>
      <point x="76" y="500"/>
      <point x="68" y="492"/>
      <point x="68" y="482" type="curve" smooth="yes"/>
      <point x="68" y="17" type="line" smooth="yes"/>
      <point x="68" y="7"/>
      <point x="76" y="0"/>
      <point x="86" y="0" type="curve" smooth="yes"/>
      <point x="98" y="0"/>
      <point x="104" y="9"/>
      <point x="104" y="21" type="curve" smooth="yes"/>
      <point x="105" y="105" type="line" smooth="yes"/>
      <point x="106" y="179"/>
      <point x="127" y="269"/>
      <point x="162" y="334" type="curve" smooth="yes"/>
      <point x="219" y="438"/>
      <point x="280" y="464"/>
      <point x="328" y="464" type="curve" smooth="yes"/>
      <point x="430" y="464"/>
      <point x="431" y="357"/>
      <point x="432" y="145" type="curve" smooth="yes"/>
      <point x="432" y="106"/>
      <point x="432" y="65"/>
      <point x="433" y="19" type="curve" smooth="yes"/>
      <point x="433" y="8"/>
      <point x="442" y="0"/>
      <point x="451" y="0" type="curve" smooth="yes"/>
      <point x="461" y="0"/>
      <point x="468" y="9"/>
      <point x="468" y="20" type="curve" smooth="yes"/>
      <point x="469" y="66"/>
      <point x="469" y="108"/>
      <point x="469" y="148" type="curve" smooth="yes"/>
      <point x="469" y="388"/>
      <point x="453" y="499"/>
      <point x="333" y="499" type="curve" smooth="yes"/>
      <point x="229" y="499"/>
      <point x="125" y="380"/>
      <point x="105" y="265" type="curve"/>
    </contour>
  </outline>
</glyph>
<glyph name="o" format="1">
  <advance width="525"/>
  <unicode hex="006F"/>
  <outline>
    <contour>
      <point x="252" y="0" type="curve" smooth="yes"/>
      <point x="138" y="0"/>
      <point x="52" y="103"/>
      <point x="52" y="229" type="curve" smooth="yes"/>
      <point x="52" y="376"/>
      <point x="158" y="500"/>
      <point x="284" y="500" type="curve" smooth="yes"/>
      <point x="397" y="500"/>
      <point x="484" y="395"/>
      <point x="484" y="271" type="curve" smooth="yes"/>
      <point x="484" y="123"/>
      <point x="378" y="0"/>
    </contour>
    <contour>
      <point x="279" y="471" type="curve" smooth="yes"/>
      <point x="177" y="471"/>
      <point x="90" y="358"/>
      <point x="90" y="231" type="curve" smooth="yes"/>
      <point x="90" y="123"/>
      <point x="155" y="29"/>
      <point x="252" y="29" type="curve" smooth="yes"/>
      <point x="352" y="29"/>
      <point x="445" y="140"/>
      <point x="445" y="266" type="curve" smooth="yes"/>
      <point x="445" y="375"/>
      <point x="372" y="471"/>
    </contour>
  </outline>
</glyph>
<glyph name="q" format="1">
  <advance width="504"/>
  <unicode hex="0071"/>
  <outline>
    <contour>
      <point x="388" y="-176" type="curve" smooth="yes"/>
      <point x="396" y="56" type="line"/>
      <point x="396" y="56"/>
      <point x="352" y="-6"/>
      <point x="261" y="-6" type="curve" smooth="yes"/>
      <point x="136" y="-6"/>
      <point x="52" y="88"/>
      <point x="52" y="209" type="curve" smooth="yes"/>
      <point x="52" y="380"/>
      <point x="162" y="489"/>
      <point x="324" y="489" type="curve" smooth="yes"/>
      <point x="347" y="489"/>
      <point x="375" y="486"/>
      <point x="412" y="479" type="curve"/>
      <point x="412" y="501" type="line" smooth="yes"/>
      <point x="412" y="511"/>
      <point x="420" y="519"/>
      <point x="429" y="519" type="curve" smooth="yes"/>
      <point x="439" y="519"/>
      <point x="447" y="511"/>
      <point x="447" y="501" type="curve" smooth="yes"/>
      <point x="423" y="-177" type="line" smooth="yes"/>
      <point x="423" y="-190"/>
      <point x="414" y="-197"/>
      <point x="405" y="-197" type="curve" smooth="yes"/>
      <point x="394" y="-197"/>
      <point x="387" y="-191"/>
    </contour>
    <contour>
      <point x="251" y="25" type="curve" smooth="yes"/>
      <point x="340" y="25"/>
      <point x="398" y="73"/>
      <point x="401" y="159" type="curve" smooth="yes"/>
      <point x="410" y="450" type="line"/>
      <point x="377" y="455"/>
      <point x="349" y="457"/>
      <point x="324" y="457" type="curve" smooth="yes"/>
      <point x="183" y="457"/>
      <point x="84" y="367"/>
      <point x="84" y="207" type="curve" smooth="yes"/>
      <point x="84" y="100"/>
      <point x="160" y="25"/>
    </contour>
  </outline>
</glyph>
<glyph name="r" format="1">
  <advance width="406"/>
  <unicode hex="0072"/>
  <outline>
    <contour>
      <point x="107" y="481" type="line" smooth="yes"/>
      <point x="107" y="491"/>
      <point x="98" y="499"/>
      <point x="87" y="499" type="curve" smooth="yes"/>
      <point x="77" y="499"/>
      <point x="69" y="491"/>
      <point x="69" y="481" type="curve" smooth="yes"/>
      <point x="69" y="17" type="line" smooth="yes"/>
      <point x="69" y="7"/>
      <point x="78" y="0"/>
      <point x="87" y="0" type="curve" smooth="yes"/>
      <point x="98" y="0"/>
      <point x="106" y="7"/>
      <point x="106" y="17" type="curve" smooth="yes"/>
      <point x="107" y="253" type="line" smooth="yes"/>
      <point x="107" y="289"/>
      <point x="124" y="340"/>
      <point x="145" y="368" type="curve" smooth="yes"/>
      <point x="185" y="422"/>
      <point x="234" y="466"/>
      <point x="288" y="466" type="curve" smooth="yes"/>
      <point x="339" y="466"/>
      <point x="336" y="436"/>
      <point x="336" y="407" type="curve" smooth="yes"/>
      <point x="336" y="397" type="line" smooth="yes"/>
      <point x="336" y="386"/>
      <point x="341" y="377"/>
      <point x="355" y="377" type="curve" smooth="yes"/>
      <point x="365" y="377"/>
      <point x="372" y="385"/>
      <point x="372" y="396" type="curve" smooth="yes"/>
      <point x="372" y="413" type="line" smooth="yes"/>
      <point x="374" y="481"/>
      <point x="345" y="502"/>
      <point x="298" y="502" type="curve" smooth="yes"/>
      <point x="211" y="502"/>
      <point x="129" y="409"/>
      <point x="107" y="342" type="curve"/>
    </contour>
  </outline>
</glyph>
<glyph name="u" format="1">
  <advance width="502"/>
  <unicode hex="0075"/>
  <outline>
    <contour>
      <point x="391" y="115" type="curve" smooth="yes"/>
      <point x="368" y="89"/>
      <point x="313" y="27"/>
      <point x="216" y="27" type="curve" smooth="yes"/>
      <point x="102" y="27"/>
      <point x="103" y="162"/>
      <point x="103" y="294" type="curve" smooth="yes"/>
      <point x="103" y="370"/>
      <point x="112" y="427"/>
      <point x="116" y="462" type="curve" smooth="yes"/>
      <point x="117" y="471"/>
      <point x="118" y="479"/>
      <point x="118" y="483" type="curve" smooth="yes"/>
      <point x="119" y="493"/>
      <point x="110" y="500"/>
      <point x="100" y="500" type="curve" smooth="yes"/>
      <point x="91" y="500"/>
      <point x="84" y="496"/>
      <point x="81" y="474" type="curve" smooth="yes"/>
      <point x="76" y="435"/>
      <point x="67" y="372"/>
      <point x="68" y="293" type="curve" smooth="yes"/>
      <point x="69" y="144"/>
      <point x="68" y="-3"/>
      <point x="216" y="-3" type="curve" smooth="yes"/>
      <point x="293" y="-3"/>
      <point x="369" y="34"/>
      <point x="402" y="82" type="curve"/>
      <point x="402" y="24" type="line" smooth="yes"/>
      <point x="402" y="10"/>
      <point x="411" y="0"/>
      <point x="424" y="0" type="curve" smooth="yes"/>
      <point x="436" y="0"/>
      <point x="445" y="8"/>
      <point x="445" y="19" type="curve" smooth="yes"/>
      <point x="445" y="483" type="line" smooth="yes"/>
      <point x="445" y="492"/>
      <point x="436" y="500"/>
      <point x="426" y="500" type="curve" smooth="yes"/>
      <point x="417" y="500"/>
      <point x="408" y="492"/>
      <point x="408" y="483" type="curve" smooth="yes"/>
      <point x="406" y="167" type="line" smooth="yes"/>
      <point x="406" y="143"/>
      <point x="402" y="127"/>
    </contour>
  </outline>
</glyph>
<glyph name="v" format="1">
  <advance width="426"/>
  <unicode hex="0076"/>
  <outline>
    <contour>
      <point x="422" y="473" type="curve" smooth="yes"/>
      <point x="235" y="11" type="line" smooth="yes"/>
      <point x="232" y="4"/>
      <point x="227" y="-1"/>
      <point x="218" y="-1" type="curve" smooth="yes"/>
      <point x="208" y="-1"/>
      <point x="204" y="4"/>
      <point x="200" y="13" type="curve" smooth="yes"/>
      <point x="13" y="472" type="line" smooth="yes"/>
      <point x="12" y="475"/>
      <point x="11" y="479"/>
      <point x="11" y="482" type="curve" smooth="yes"/>
      <point x="11" y="493"/>
      <point x="22" y="499"/>
      <point x="32" y="499" type="curve" smooth="yes"/>
      <point x="40" y="499"/>
      <point x="46" y="494"/>
      <point x="49" y="486" type="curve" smooth="yes"/>
      <point x="219" y="59" type="line"/>
      <point x="386" y="489" type="line" smooth="yes"/>
      <point x="389" y="496"/>
      <point x="394" y="500"/>
      <point x="404" y="500" type="curve" smooth="yes"/>
      <point x="415" y="500"/>
      <point x="424" y="493"/>
      <point x="424" y="484" type="curve" smooth="yes"/>
      <point x="424" y="480"/>
      <point x="424" y="478"/>
    </contour>
  </outline>
</glyph>
<glyph name="w" format="1">
  <advance width="584"/>
  <unicode hex="0077"/>
  <outline>
    <contour>
      <point x="129" y="61" type="line"/>
      <point x="277" y="486" type="line" smooth="yes"/>
      <point x="280" y="494"/>
      <point x="287" y="500"/>
      <point x="298" y="500" type="curve" smooth="yes"/>
      <point x="308" y="500"/>
      <point x="315" y="495"/>
      <point x="318" y="481" type="curve" smooth="yes"/>
      <point x="421" y="61" type="line"/>
      <point x="550" y="483" type="line" smooth="yes"/>
      <point x="553" y="493"/>
      <point x="560" y="499"/>
      <point x="568" y="499" type="curve" smooth="yes"/>
      <point x="579" y="499"/>
      <point x="587" y="493"/>
      <point x="587" y="484" type="curve" smooth="yes"/>
      <point x="587" y="480"/>
      <point x="586" y="477"/>
      <point x="585" y="474" type="curve" smooth="yes"/>
      <point x="438" y="16" type="line" smooth="yes"/>
      <point x="435" y="6"/>
      <point x="428" y="0"/>
      <point x="420" y="0" type="curve" smooth="yes"/>
      <point x="411" y="0"/>
      <point x="404" y="6"/>
      <point x="402" y="15" type="curve" smooth="yes"/>
      <point x="295" y="433" type="line"/>
      <point x="145" y="15" type="line" smooth="yes"/>
      <point x="142" y="6"/>
      <point x="136" y="0"/>
      <point x="127" y="0" type="curve" smooth="yes"/>
      <point x="118" y="0"/>
      <point x="111" y="5"/>
      <point x="108" y="17" type="curve" smooth="yes"/>
      <point x="12" y="469" type="line" smooth="yes"/>
      <point x="11" y="473"/>
      <point x="10" y="479"/>
      <point x="10" y="481" type="curve" smooth="yes"/>
      <point x="10" y="492"/>
      <point x="18" y="500"/>
      <point x="27" y="500" type="curve" smooth="yes"/>
      <point x="37" y="500"/>
      <point x="44" y="494"/>
      <point x="46" y="483" type="curve" smooth="yes"/>
    </contour>
  </outline>
</glyph>
<glyph name="z" format="1">
  <advance width="499"/>
  <unicode hex="007A"/>
  <outline>
    <contour>
      <point x="57" y="30" type="curve" smooth="yes"/>
      <point x="400" y="463" type="line"/>
      <point x="82" y="463" type="line" smooth="yes"/>
      <point x="72" y="463"/>
      <point x="64" y="471"/>
      <point x="64" y="481" type="curve" smooth="yes"/>
      <point x="64" y="492"/>
      <point x="72" y="500"/>
      <point x="82" y="500" type="curve" smooth="yes"/>
      <point x="434" y="500" type="line" smooth="yes"/>
      <point x="444" y="500"/>
      <point x="452" y="492"/>
      <point x="452" y="481" type="curve" smooth="yes"/>
      <point x="452" y="477"/>
      <point x="451" y="473"/>
      <point x="448" y="470" type="curve" smooth="yes"/>
      <point x="104" y="36" type="line"/>
      <point x="439" y="36" type="line" smooth="yes"/>
      <point x="449" y="36"/>
      <point x="458" y="28"/>
      <point x="458" y="18" type="curve" smooth="yes"/>
      <point x="458" y="7"/>
      <point x="449" y="-1"/>
      <point x="439" y="-1" type="curve" smooth="yes"/>
      <point x="71" y="-1" type="line" smooth="yes"/>
      <point x="61" y="-1"/>
      <point x="52" y="7"/>
      <point x="52" y="18" type="curve" smooth="yes"/>
      <point x="52" y="22"/>
      <point x="53" y="24"/>
    </contour>
  </outline>
</glyph>
<glyph name="braceleft" format="1">
  <advance width="366"/>
  <unicode hex="007B"/>
  <outline>
    <contour>
      <point x="182" y="225" type="line" smooth="yes"/>
      <point x="182" y="280"/>
      <point x="152" y="326"/>
      <point x="114" y="354" type="curve"/>
      <point x="155" y="387"/>
      <point x="182" y="430"/>
      <point x="182" y="483" type="curve" smooth="yes"/>
      <point x="182" y="679" type="line" smooth="yes"/>
      <point x="182" y="754"/>
      <point x="251" y="778"/>
      <point x="290" y="786" type="curve" smooth="yes"/>
      <point x="303" y="788"/>
      <point x="309" y="793"/>
      <point x="309" y="804" type="curve" smooth="yes"/>
      <point x="309" y="816"/>
      <point x="299" y="823"/>
      <point x="288" y="821" type="curve" smooth="yes"/>
      <point x="228" y="810"/>
      <point x="146" y="769"/>
      <point x="146" y="679" type="curve" smooth="yes"/>
      <point x="146" y="482" type="line" smooth="yes"/>
      <point x="146" y="436"/>
      <point x="131" y="400"/>
      <point x="69" y="370" type="curve" smooth="yes"/>
      <point x="61" y="366"/>
      <point x="58" y="362"/>
      <point x="58" y="354" type="curve" smooth="yes"/>
      <point x="58" y="347"/>
      <point x="61" y="342"/>
      <point x="70" y="338" type="curve" smooth="yes"/>
      <point x="112" y="322"/>
      <point x="146" y="283"/>
      <point x="146" y="226" type="curve" smooth="yes"/>
      <point x="146" y="13" type="line" smooth="yes"/>
      <point x="146" y="-77"/>
      <point x="228" y="-118"/>
      <point x="288" y="-129" type="curve" smooth="yes"/>
      <point x="299" y="-131"/>
      <point x="309" y="-124"/>
      <point x="309" y="-112" type="curve" smooth="yes"/>
      <point x="309" y="-101"/>
      <point x="303" y="-96"/>
      <point x="290" y="-94" type="curve" smooth="yes"/>
      <point x="251" y="-86"/>
      <point x="182" y="-62"/>
      <point x="182" y="13" type="curve" smooth="yes"/>
    </contour>
  </outline>
</glyph>
<glyph name="bar" format="1">
  <advance width="183"/>
  <unicode hex="007C"/>
  <outline>
    <contour>
      <point x="93" y="-175" type="curve" smooth="yes"/>
      <point x="103" y="-175"/>
      <point x="112" y="-167"/>
      <point x="112" y="-156" type="curve" smooth="yes"/>
      <point x="112" y="836" type="line" smooth="yes"/>
      <point x="112" y="846"/>
      <point x="103" y="854"/>
      <point x="93" y="854" type="curve" smooth="yes"/>
      <point x="83" y="854"/>
      <point x="74" y="846"/>
      <point x="74" y="836" type="curve" smooth="yes"/>
      <point x="74" y="-156" type="line" smooth="yes"/>
      <point x="74" y="-167"/>
      <point x="83" y="-175"/>
    </contour>
  </outline>
</glyph>
<glyph name="cent" format="1">
  <advance width="546"/>
  <unicode hex="00A2"/>
  <outline>
    <contour>
      <point x="463" y="227" type="curve" smooth="yes"/>
      <point x="473" y="227"/>
      <point x="481" y="219"/>
      <point x="481" y="208" type="curve" smooth="yes"/>
      <point x="481" y="204"/>
      <point x="479" y="200"/>
      <point x="476" y="196" type="curve" smooth="yes"/>
      <point x="438" y="143"/>
      <point x="369" y="104"/>
      <point x="289" y="104" type="curve"/>
      <point x="287" y="15" type="line" smooth="yes"/>
      <point x="287" y="6"/>
      <point x="280" y="0"/>
      <point x="272" y="0" type="curve" smooth="yes"/>
      <point x="263" y="0"/>
      <point x="256" y="7"/>
      <point x="256" y="17" type="curve" smooth="yes"/>
      <point x="258" y="105" type="line"/>
      <point x="109" y="142"/>
      <point x="77" y="252"/>
      <point x="77" y="317" type="curve" smooth="yes"/>
      <point x="77" y="440"/>
      <point x="149" y="563"/>
      <point x="273" y="601" type="curve"/>
      <point x="275" y="684" type="line" smooth="yes"/>
      <point x="275" y="694"/>
      <point x="283" y="699"/>
      <point x="291" y="699" type="curve" smooth="yes"/>
      <point x="300" y="699"/>
      <point x="306" y="692"/>
      <point x="306" y="683" type="curve" smooth="yes"/>
      <point x="304" y="602" type="line"/>
      <point x="305.09" y="602.038"/>
      <point x="306.191" y="602.057"/>
      <point x="307.304" y="602.057" type="curve" smooth="yes"/>
      <point x="364.408" y="602.057"/>
      <point x="451" y="552.388"/>
      <point x="451" y="521" type="curve" smooth="yes"/>
      <point x="451" y="512"/>
      <point x="443" y="504"/>
      <point x="434" y="504" type="curve" smooth="yes"/>
      <point x="429" y="504"/>
      <point x="425" y="505"/>
      <point x="421" y="510" type="curve" smooth="yes"/>
      <point x="391" y="547"/>
      <point x="351" y="568"/>
      <point x="302" y="572" type="curve"/>
      <point x="291" y="135" type="line"/>
      <point x="358" y="139"/>
      <point x="412" y="169"/>
      <point x="446" y="214" type="curve" smooth="yes"/>
      <point x="450" y="219"/>
      <point x="456" y="227"/>
    </contour>
    <contour>
      <point x="111" y="319" type="curve" smooth="yes"/>
      <point x="111" y="228"/>
      <point x="175" y="158"/>
      <point x="260" y="138" type="curve"/>
      <point x="271" y="568" type="line"/>
      <point x="153" y="529"/>
      <point x="111" y="387"/>
    </contour>
  </outline>
</glyph>
<glyph name="sterling" format="1">
  <advance width="734"/>
  <unicode hex="00A3"/>
  <outline>
    <contour>
      <point x="670" y="143" type="curve" smooth="yes"/>
      <point x="661" y="143"/>
      <point x="654" y="137"/>
      <point x="651" y="123" type="curve" smooth="yes"/>
      <point x="636" y="57"/>
      <point x="595" y="25"/>
      <point x="535" y="25" type="curve" smooth="yes"/>
      <point x="492" y="25"/>
      <point x="437" y="45"/>
      <point x="393" y="79" type="curve"/>
      <point x="366" y="98"/>
      <point x="335" y="109"/>
      <point x="304" y="109" type="curve" smooth="yes"/>
      <point x="287" y="109"/>
      <point x="261" y="107"/>
      <point x="229" y="93" type="curve"/>
      <point x="255" y="133"/>
      <point x="259" y="181"/>
      <point x="259" y="209" type="curve" smooth="yes"/>
      <point x="259" y="235"/>
      <point x="251" y="267"/>
      <point x="244" y="293" type="curve"/>
      <point x="240" y="304"/>
      <point x="232" y="341"/>
      <point x="232" y="341" type="curve"/>
      <point x="480" y="341" type="line" smooth="yes"/>
      <point x="489" y="341"/>
      <point x="498" y="349"/>
      <point x="498" y="358" type="curve" smooth="yes"/>
      <point x="498" y="368"/>
      <point x="489" y="376"/>
      <point x="480" y="376" type="curve" smooth="yes"/>
      <point x="224" y="376" type="line"/>
      <point x="215" y="422"/>
      <point x="212" y="461"/>
      <point x="212" y="492" type="curve" smooth="yes"/>
      <point x="212" y="638"/>
      <point x="278" y="701"/>
      <point x="432" y="701" type="curve" smooth="yes"/>
      <point x="515" y="701"/>
      <point x="577" y="645"/>
      <point x="595" y="551" type="curve" smooth="yes"/>
      <point x="597" y="539"/>
      <point x="602" y="531"/>
      <point x="613" y="531" type="curve" smooth="yes"/>
      <point x="627" y="531"/>
      <point x="632" y="543"/>
      <point x="629" y="557" type="curve" smooth="yes"/>
      <point x="611" y="636"/>
      <point x="560" y="736"/>
      <point x="431" y="736" type="curve" smooth="yes"/>
      <point x="261" y="736"/>
      <point x="178" y="653"/>
      <point x="178" y="492" type="curve" smooth="yes"/>
      <point x="178" y="461"/>
      <point x="182" y="422"/>
      <point x="189" y="376" type="curve"/>
      <point x="82" y="376" type="line" smooth="yes"/>
      <point x="73" y="376"/>
      <point x="64" y="368"/>
      <point x="64" y="358" type="curve" smooth="yes"/>
      <point x="64" y="349"/>
      <point x="73" y="341"/>
      <point x="82" y="341" type="curve" smooth="yes"/>
      <point x="196" y="341" type="line"/>
      <point x="206" y="303" type="line" smooth="yes"/>
      <point x="214" y="274"/>
      <point x="224" y="242"/>
      <point x="224" y="209" type="curve" smooth="yes"/>
      <point x="224" y="152"/>
      <point x="196" y="78"/>
      <point x="136" y="32" type="curve" smooth="yes"/>
      <point x="132" y="29"/>
      <point x="129" y="24"/>
      <point x="129" y="18" type="curve" smooth="yes"/>
      <point x="129" y="8"/>
      <point x="137" y="0"/>
      <point x="146" y="0" type="curve" smooth="yes"/>
      <point x="152" y="0"/>
      <point x="160" y="6"/>
      <point x="173" y="17" type="curve" smooth="yes"/>
      <point x="203" y="40"/>
      <point x="247" y="74"/>
      <point x="304" y="74" type="curve" smooth="yes"/>
      <point x="326" y="74"/>
      <point x="349" y="67"/>
      <point x="371" y="51" type="curve" smooth="yes"/>
      <point x="424" y="10"/>
      <point x="483" y="-10"/>
      <point x="535" y="-10" type="curve" smooth="yes"/>
      <point x="580" y="-10"/>
      <point x="659" y="6"/>
      <point x="685" y="116" type="curve" smooth="yes"/>
      <point x="688" y="129"/>
      <point x="683" y="143"/>
    </contour>
  </outline>
</glyph>
<glyph name="currency" format="1">
  <advance width="507"/>
  <unicode hex="00A4"/>
  <outline>
    <contour>
      <point x="382" y="154" type="curve"/>
      <point x="462" y="74" type="line" smooth="yes"/>
      <point x="465" y="71"/>
      <point x="466" y="67"/>
      <point x="466" y="63" type="curve" smooth="yes"/>
      <point x="466" y="54"/>
      <point x="460" y="46"/>
      <point x="450" y="46" type="curve" smooth="yes"/>
      <point x="446" y="46"/>
      <point x="442" y="48"/>
      <point x="439" y="51" type="curve" smooth="yes"/>
      <point x="359" y="130" type="line"/>
      <point x="329" y="108"/>
      <point x="295" y="95"/>
      <point x="259" y="95" type="curve" smooth="yes"/>
      <point x="226" y="95"/>
      <point x="191" y="108"/>
      <point x="160" y="130" type="curve"/>
      <point x="79" y="50" type="line" smooth="yes"/>
      <point x="76" y="47"/>
      <point x="73" y="46"/>
      <point x="69" y="46" type="curve" smooth="yes"/>
      <point x="60" y="46"/>
      <point x="52" y="53"/>
      <point x="52" y="63" type="curve" smooth="yes"/>
      <point x="52" y="67"/>
      <point x="54" y="71"/>
      <point x="57" y="74" type="curve" smooth="yes"/>
      <point x="138" y="154" type="line"/>
      <point x="117" y="184"/>
      <point x="104" y="218"/>
      <point x="104" y="251" type="curve" smooth="yes"/>
      <point x="104" y="286"/>
      <point x="117" y="320"/>
      <point x="140" y="350" type="curve"/>
      <point x="57" y="432" type="line" smooth="yes"/>
      <point x="53" y="436"/>
      <point x="52" y="440"/>
      <point x="52" y="444" type="curve" smooth="yes"/>
      <point x="52" y="452"/>
      <point x="59" y="460"/>
      <point x="69" y="460" type="curve" smooth="yes"/>
      <point x="73" y="460"/>
      <point x="77" y="458"/>
      <point x="80" y="455" type="curve" smooth="yes"/>
      <point x="163" y="373" type="line"/>
      <point x="193" y="395"/>
      <point x="226" y="406"/>
      <point x="259" y="406" type="curve" smooth="yes"/>
      <point x="294" y="406"/>
      <point x="327" y="395"/>
      <point x="357" y="373" type="curve"/>
      <point x="439" y="455" type="line" smooth="yes"/>
      <point x="442" y="458"/>
      <point x="446" y="460"/>
      <point x="450" y="460" type="curve" smooth="yes"/>
      <point x="458" y="460"/>
      <point x="466" y="452"/>
      <point x="466" y="444" type="curve" smooth="yes"/>
      <point x="466" y="440"/>
      <point x="466" y="436"/>
      <point x="462" y="432" type="curve" smooth="yes"/>
      <point x="380" y="350" type="line"/>
      <point x="402" y="320"/>
      <point x="416" y="284"/>
      <point x="416" y="251" type="curve" smooth="yes"/>
      <point x="416" y="218"/>
      <point x="403" y="184"/>
    </contour>
    <contour>
      <point x="137" y="251" type="curve" smooth="yes"/>
      <point x="137" y="182"/>
      <point x="193" y="127"/>
      <point x="259" y="127" type="curve" smooth="yes"/>
      <point x="328" y="127"/>
      <point x="383" y="182"/>
      <point x="383" y="251" type="curve" smooth="yes"/>
      <point x="383" y="320"/>
      <point x="328" y="374"/>
      <point x="259" y="374" type="curve" smooth="yes"/>
      <point x="193" y="374"/>
      <point x="137" y="320"/>
    </contour>
  </outline>
</glyph>
<glyph name="dieresis" format="1">
  <advance width="490"/>
  <unicode hex="00A8"/>
  <outline>
    <contour>
      <point x="207" y="636" type="curve" smooth="yes"/>
      <point x="207" y="616"/>
      <point x="188" y="600"/>
      <point x="164" y="600" type="curve" smooth="yes"/>
      <point x="144" y="600"/>
      <point x="127" y="613"/>
      <point x="127" y="630" type="curve" smooth="yes"/>
      <point x="127" y="649"/>
      <point x="146" y="666"/>
      <point x="170" y="666" type="curve" smooth="yes"/>
      <point x="189" y="666"/>
      <point x="207" y="652"/>
    </contour>
    <contour>
      <point x="372" y="636" type="curve" smooth="yes"/>
      <point x="372" y="616"/>
      <point x="353" y="600"/>
      <point x="329" y="600" type="curve" smooth="yes"/>
      <point x="310" y="600"/>
      <point x="293" y="613"/>
      <point x="293" y="630" type="curve" smooth="yes"/>
      <point x="293" y="649"/>
      <point x="312" y="666"/>
      <point x="336" y="666" type="curve" smooth="yes"/>
      <point x="354" y="666"/>
      <point x="372" y="652"/>
    </contour>
  </outline>
</glyph>
<glyph name="guillemotleft" format="1">
  <advance width="581"/>
  <unicode hex="00AB"/>
  <outline>
    <contour>
      <point x="261" y="78" type="curve" smooth="yes"/>
      <point x="257" y="78"/>
      <point x="253" y="79"/>
      <point x="248" y="83" type="curve" smooth="yes"/>
      <point x="78" y="235" type="line" smooth="yes"/>
      <point x="74" y="238"/>
      <point x="71" y="243"/>
      <point x="71" y="249" type="curve" smooth="yes"/>
      <point x="71" y="254"/>
      <point x="72" y="259"/>
      <point x="78" y="264" type="curve" smooth="yes"/>
      <point x="265" y="425" type="line" smooth="yes"/>
      <point x="270" y="429"/>
      <point x="275" y="430"/>
      <point x="278" y="430" type="curve" smooth="yes"/>
      <point x="287" y="430"/>
      <point x="296" y="422"/>
      <point x="296" y="412" type="curve" smooth="yes"/>
      <point x="296" y="406"/>
      <point x="293" y="401"/>
      <point x="289" y="397" type="curve" smooth="yes"/>
      <point x="119" y="249" type="line"/>
      <point x="273" y="110" type="line" smooth="yes"/>
      <point x="278" y="105"/>
      <point x="280" y="101"/>
      <point x="280" y="96" type="curve" smooth="yes"/>
      <point x="280" y="87"/>
      <point x="271" y="78"/>
    </contour>
    <contour>
      <point x="471" y="78" type="curve" smooth="yes"/>
      <point x="467" y="78"/>
      <point x="463" y="79"/>
      <point x="458" y="83" type="curve" smooth="yes"/>
      <point x="288" y="235" type="line" smooth="yes"/>
      <point x="284" y="238"/>
      <point x="281" y="243"/>
      <point x="281" y="249" type="curve" smooth="yes"/>
      <point x="281" y="254"/>
      <point x="282" y="259"/>
      <point x="288" y="264" type="curve" smooth="yes"/>
      <point x="475" y="425" type="line" smooth="yes"/>
      <point x="480" y="429"/>
      <point x="485" y="430"/>
      <point x="488" y="430" type="curve" smooth="yes"/>
      <point x="497" y="430"/>
      <point x="506" y="422"/>
      <point x="506" y="412" type="curve" smooth="yes"/>
      <point x="506" y="406"/>
      <point x="503" y="401"/>
      <point x="499" y="397" type="curve" smooth="yes"/>
      <point x="329" y="249" type="line"/>
      <point x="483" y="110" type="line" smooth="yes"/>
      <point x="488" y="105"/>
      <point x="490" y="101"/>
      <point x="490" y="96" type="curve" smooth="yes"/>
      <point x="490" y="87"/>
      <point x="481" y="78"/>
    </contour>
  </outline>
</glyph>
<glyph name="uni00AD" format="1">
  <advance width="431"/>
  <unicode hex="00AD"/>
  <outline>
    <contour>
      <point x="350" y="232" type="line" smooth="yes"/>
      <point x="359" y="232"/>
      <point x="368" y="241"/>
      <point x="368" y="250" type="curve" smooth="yes"/>
      <point x="368" y="259"/>
      <point x="359" y="268"/>
      <point x="350" y="268" type="curve" smooth="yes"/>
      <point x="92" y="268" type="line" smooth="yes"/>
      <point x="83" y="268"/>
      <point x="75" y="259"/>
      <point x="75" y="250" type="curve" smooth="yes"/>
      <point x="75" y="241"/>
      <point x="83" y="232"/>
      <point x="92" y="232" type="curve" smooth="yes"/>
    </contour>
  </outline>
</glyph>
<glyph name="macron" format="1">
  <advance width="490"/>
  <unicode hex="00AF"/>
  <outline>
    <contour>
      <point x="359" y="625" type="line" smooth="yes"/>
      <point x="367" y="625"/>
      <point x="374" y="633"/>
      <point x="374" y="642" type="curve" smooth="yes"/>
      <point x="374" y="650"/>
      <point x="367" y="658"/>
      <point x="359" y="658" type="curve" smooth="yes"/>
      <point x="141" y="658" type="line" smooth="yes"/>
      <point x="133" y="658"/>
      <point x="125" y="650"/>
      <point x="125" y="642" type="curve" smooth="yes"/>
      <point x="125" y="633"/>
      <point x="133" y="625"/>
      <point x="141" y="625" type="curve" smooth="yes"/>
    </contour>
  </outline>
</glyph>
<glyph name="degree" format="1">
  <advance width="233"/>
  <unicode hex="00B0"/>
  <outline>
    <contour>
      <point x="120" y="483" type="curve" smooth="yes"/>
      <point x="183" y="483"/>
      <point x="235" y="536"/>
      <point x="235" y="600" type="curve" smooth="yes"/>
      <point x="235" y="665"/>
      <point x="183" y="717"/>
      <point x="120" y="717" type="curve" smooth="yes"/>
      <point x="55" y="717"/>
      <point x="3" y="665"/>
      <point x="3" y="600" type="curve" smooth="yes"/>
      <point x="3" y="536"/>
      <point x="55" y="483"/>
    </contour>
    <contour>
      <point x="120" y="690" type="curve" smooth="yes"/>
      <point x="170" y="690"/>
      <point x="209" y="650"/>
      <point x="209" y="600" type="curve" smooth="yes"/>
      <point x="209" y="550"/>
      <point x="170" y="511"/>
      <point x="120" y="511" type="curve" smooth="yes"/>
      <point x="71" y="511"/>
      <point x="29" y="550"/>
      <point x="29" y="600" type="curve" smooth="yes"/>
      <point x="29" y="650"/>
      <point x="71" y="690"/>
    </contour>
  </outline>
</glyph>
<glyph name="twosuperior" format="1">
  <advance width="230"/>
  <unicode hex="00B2"/>
  <outline>
    <contour>
      <point x="213" y="462" type="line" smooth="yes"/>
      <point x="220" y="462"/>
      <point x="227" y="468"/>
      <point x="227" y="475" type="curve" smooth="yes"/>
      <point x="227" y="485"/>
      <point x="220" y="490"/>
      <point x="213" y="490" type="curve" smooth="yes"/>
      <point x="35" y="490" type="line"/>
      <point x="35" y="557"/>
      <point x="89" y="602"/>
      <point x="135" y="630" type="curve" smooth="yes"/>
      <point x="178" y="655"/>
      <point x="222" y="688"/>
      <point x="222" y="747" type="curve" smooth="yes"/>
      <point x="222" y="807"/>
      <point x="171" y="840"/>
      <point x="117" y="840" type="curve" smooth="yes"/>
      <point x="64" y="840"/>
      <point x="25" y="805"/>
      <point x="8" y="786" type="curve" smooth="yes"/>
      <point x="4" y="782"/>
      <point x="3" y="779"/>
      <point x="3" y="775" type="curve" smooth="yes"/>
      <point x="3" y="767"/>
      <point x="10" y="761"/>
      <point x="17" y="761" type="curve" smooth="yes"/>
      <point x="23" y="761"/>
      <point x="26" y="766"/>
      <point x="37" y="776" type="curve" smooth="yes"/>
      <point x="51" y="789"/>
      <point x="83" y="813"/>
      <point x="118" y="813" type="curve" smooth="yes"/>
      <point x="164" y="813"/>
      <point x="194" y="782"/>
      <point x="194" y="747" type="curve" smooth="yes"/>
      <point x="194" y="713"/>
      <point x="175" y="690"/>
      <point x="148" y="672" type="curve"/>
      <point x="54" y="613"/>
      <point x="6" y="572"/>
      <point x="6" y="475" type="curve" smooth="yes"/>
      <point x="6" y="462" type="line"/>
    </contour>
  </outline>
</glyph>
<glyph name="acute" format="1">
  <advance width="490"/>
  <unicode hex="00B4"/>
  <outline>
    <contour>
      <point x="329" y="692" type="line" smooth="yes"/>
      <point x="336" y="697"/>
      <point x="337" y="701"/>
      <point x="337" y="708" type="curve" smooth="yes"/>
      <point x="337" y="722"/>
      <point x="324" y="735"/>
      <point x="313" y="735" type="curve" smooth="yes"/>
      <point x="303" y="735"/>
      <point x="296" y="728"/>
      <point x="287" y="721" type="curve" smooth="yes"/>
      <point x="159" y="617" type="line" smooth="yes"/>
      <point x="153" y="612"/>
      <point x="153" y="607"/>
      <point x="153" y="604" type="curve" smooth="yes"/>
      <point x="153" y="595"/>
      <point x="161" y="587"/>
      <point x="170" y="587" type="curve" smooth="yes"/>
      <point x="174" y="587"/>
      <point x="179" y="589"/>
      <point x="186" y="594" type="curve" smooth="yes"/>
    </contour>
  </outline>
</glyph>
<glyph name="mu" format="1">
  <advance width="490"/>
  <unicode hex="00B5"/>
  <outline>
    <contour>
      <point x="215" y="27" type="curve" smooth="yes"/>
      <point x="126" y="27"/>
      <point x="104" y="92"/>
      <point x="104" y="294" type="curve" smooth="yes"/>
      <point x="104" y="370"/>
      <point x="110" y="427"/>
      <point x="114" y="462" type="curve" smooth="yes"/>
      <point x="115" y="471"/>
      <point x="116" y="479"/>
      <point x="116" y="483" type="curve" smooth="yes"/>
      <point x="116" y="494"/>
      <point x="108" y="500"/>
      <point x="100" y="500" type="curve" smooth="yes"/>
      <point x="89" y="500"/>
      <point x="82" y="496"/>
      <point x="79" y="474" type="curve" smooth="yes"/>
      <point x="74" y="435"/>
      <point x="66" y="336"/>
      <point x="66" y="256" type="curve" smooth="yes"/>
      <point x="66" y="104"/>
      <point x="81" y="-35"/>
      <point x="102" y="-176" type="curve" smooth="yes"/>
      <point x="103" y="-185"/>
      <point x="111" y="-189"/>
      <point x="119" y="-189" type="curve" smooth="yes"/>
      <point x="134" y="-189"/>
      <point x="139" y="-177"/>
      <point x="137" y="-168" type="curve" smooth="yes"/>
      <point x="129" y="-120"/>
      <point x="118" y="-35"/>
      <point x="115" y="28" type="curve"/>
      <point x="142" y="7"/>
      <point x="185" y="-3"/>
      <point x="213" y="-3" type="curve" smooth="yes"/>
      <point x="290" y="-3"/>
      <point x="366" y="34"/>
      <point x="399" y="82" type="curve"/>
      <point x="399" y="24" type="line" smooth="yes"/>
      <point x="399" y="10"/>
      <point x="408" y="0"/>
      <point x="421" y="0" type="curve" smooth="yes"/>
      <point x="433" y="0"/>
      <point x="442" y="8"/>
      <point x="442" y="19" type="curve" smooth="yes"/>
      <point x="442" y="483" type="line" smooth="yes"/>
      <point x="442" y="492"/>
      <point x="433" y="500"/>
      <point x="423" y="500" type="curve" smooth="yes"/>
      <point x="414" y="500"/>
      <point x="405" y="492"/>
      <point x="405" y="483" type="curve" smooth="yes"/>
      <point x="403" y="167" type="line" smooth="yes"/>
      <point x="403" y="143"/>
      <point x="399" y="127"/>
      <point x="388" y="115" type="curve" smooth="yes"/>
      <point x="365" y="89"/>
      <point x="312" y="27"/>
    </contour>
  </outline>
</glyph>
<glyph name="periodcentered" format="1">
  <advance width="162"/>
  <unicode hex="00B7"/>
  <outline>
    <contour>
      <point x="79" y="219" type="curve" smooth="yes"/>
      <point x="95" y="219"/>
      <point x="110" y="237"/>
      <point x="110" y="257" type="curve" smooth="yes"/>
      <point x="110" y="272"/>
      <point x="99" y="284"/>
      <point x="87" y="284" type="curve" smooth="yes"/>
      <point x="70" y="284"/>
      <point x="56" y="267"/>
      <point x="56" y="248" type="curve" smooth="yes"/>
      <point x="56" y="232"/>
      <point x="65" y="219"/>
    </contour>
  </outline>
</glyph>
<glyph name="guillemotright" format="1">
  <advance width="581"/>
  <unicode hex="00BB"/>
  <outline>
    <contour>
      <point x="316" y="78" type="curve" smooth="yes"/>
      <point x="306" y="78"/>
      <point x="297" y="87"/>
      <point x="297" y="96" type="curve" smooth="yes"/>
      <point x="297" y="101"/>
      <point x="299" y="105"/>
      <point x="304" y="110" type="curve" smooth="yes"/>
      <point x="458" y="249" type="line"/>
      <point x="288" y="397" type="line" smooth="yes"/>
      <point x="284" y="401"/>
      <point x="281" y="406"/>
      <point x="281" y="412" type="curve" smooth="yes"/>
      <point x="281" y="422"/>
      <point x="290" y="430"/>
      <point x="299" y="430" type="curve" smooth="yes"/>
      <point x="302" y="430"/>
      <point x="307" y="429"/>
      <point x="312" y="425" type="curve" smooth="yes"/>
      <point x="499" y="264" type="line" smooth="yes"/>
      <point x="505" y="259"/>
      <point x="506" y="254"/>
      <point x="506" y="249" type="curve" smooth="yes"/>
      <point x="506" y="243"/>
      <point x="503" y="238"/>
      <point x="499" y="235" type="curve" smooth="yes"/>
      <point x="329" y="83" type="line" smooth="yes"/>
      <point x="324" y="79"/>
      <point x="320" y="78"/>
    </contour>
    <contour>
      <point x="106" y="78" type="curve" smooth="yes"/>
      <point x="96" y="78"/>
      <point x="87" y="87"/>
      <point x="87" y="96" type="curve" smooth="yes"/>
      <point x="87" y="101"/>
      <point x="89" y="105"/>
      <point x="94" y="110" type="curve" smooth="yes"/>
      <point x="248" y="249" type="line"/>
      <point x="78" y="397" type="line" smooth="yes"/>
      <point x="74" y="401"/>
      <point x="71" y="406"/>
      <point x="71" y="412" type="curve" smooth="yes"/>
      <point x="71" y="422"/>
      <point x="80" y="430"/>
      <point x="89" y="430" type="curve" smooth="yes"/>
      <point x="92" y="430"/>
      <point x="97" y="429"/>
      <point x="102" y="425" type="curve" smooth="yes"/>
      <point x="289" y="264" type="line" smooth="yes"/>
      <point x="295" y="259"/>
      <point x="296" y="254"/>
      <point x="296" y="249" type="curve" smooth="yes"/>
      <point x="296" y="243"/>
      <point x="293" y="238"/>
      <point x="289" y="235" type="curve" smooth="yes"/>
      <point x="119" y="83" type="line" smooth="yes"/>
      <point x="114" y="79"/>
      <point x="110" y="78"/>
    </contour>
  </outline>
</glyph>
<glyph name="questiondown" format="1">
  <advance width="523"/>
  <unicode hex="00BF"/>
  <outline>
    <contour>
      <point x="199" y="229" type="line" smooth="yes"/>
      <point x="147" y="183"/>
      <point x="62" y="120"/>
      <point x="62" y="9" type="curve" smooth="yes"/>
      <point x="62" y="-113"/>
      <point x="151" y="-195"/>
      <point x="282" y="-195" type="curve" smooth="yes"/>
      <point x="358" y="-195"/>
      <point x="414" y="-155"/>
      <point x="446" y="-120" type="curve" smooth="yes"/>
      <point x="456" y="-109"/>
      <point x="465" y="-98"/>
      <point x="465" y="-89" type="curve" smooth="yes"/>
      <point x="465" y="-81"/>
      <point x="457" y="-73"/>
      <point x="447" y="-73" type="curve" smooth="yes"/>
      <point x="441" y="-73"/>
      <point x="437" y="-76"/>
      <point x="435" y="-78" type="curve" smooth="yes"/>
      <point x="403" y="-115"/>
      <point x="356" y="-160"/>
      <point x="282" y="-160" type="curve" smooth="yes"/>
      <point x="146" y="-160"/>
      <point x="97" y="-72"/>
      <point x="97" y="9" type="curve" smooth="yes"/>
      <point x="97" y="88"/>
      <point x="155" y="142"/>
      <point x="219" y="199" type="curve" smooth="yes"/>
      <point x="345" y="312" type="line" smooth="yes"/>
      <point x="349" y="316"/>
      <point x="351" y="320"/>
      <point x="351" y="325" type="curve" smooth="yes"/>
      <point x="351" y="334"/>
      <point x="343" y="343"/>
      <point x="333" y="343" type="curve" smooth="yes"/>
      <point x="329" y="343"/>
      <point x="325" y="340"/>
      <point x="321" y="337" type="curve" smooth="yes"/>
    </contour>
    <contour>
      <point x="363" y="501" type="curve" smooth="yes"/>
      <point x="346" y="501"/>
      <point x="331" y="483"/>
      <point x="331" y="462" type="curve" smooth="yes"/>
      <point x="331" y="448"/>
      <point x="342" y="435"/>
      <point x="354" y="435" type="curve" smooth="yes"/>
      <point x="371" y="435"/>
      <point x="386" y="453"/>
      <point x="386" y="472" type="curve" smooth="yes"/>
      <point x="386" y="487"/>
      <point x="376" y="501"/>
    </contour>
  </outline>
</glyph>
<glyph name="AE" format="1">
  <advance width="1030"/>
  <unicode hex="00C6"/>
  <outline>
    <contour>
      <point x="545" y="35" type="line"/>
      <point x="969" y="35" type="line" smooth="yes"/>
      <point x="979" y="35"/>
      <point x="987" y="28"/>
      <point x="987" y="18" type="curve" smooth="yes"/>
      <point x="987" y="8"/>
      <point x="979" y="0"/>
      <point x="969" y="0" type="curve" smooth="yes"/>
      <point x="527" y="0" type="line" smooth="yes"/>
      <point x="518" y="0"/>
      <point x="510" y="8"/>
      <point x="510" y="18" type="curve" smooth="yes"/>
      <point x="510" y="315" type="line"/>
      <point x="266" y="265" type="line"/>
      <point x="81" y="4" type="line" smooth="yes"/>
      <point x="77" y="-1"/>
      <point x="72" y="-3"/>
      <point x="67" y="-3" type="curve" smooth="yes"/>
      <point x="57" y="-3"/>
      <point x="49" y="5"/>
      <point x="49" y="13" type="curve" smooth="yes"/>
      <point x="49" y="18"/>
      <point x="50" y="21"/>
      <point x="52" y="24" type="curve" smooth="yes"/>
      <point x="217" y="255" type="line"/>
      <point x="171" y="246" type="line" smooth="yes"/>
      <point x="161" y="244"/>
      <point x="154" y="254"/>
      <point x="154" y="262" type="curve" smooth="yes"/>
      <point x="154" y="272"/>
      <point x="159" y="279"/>
      <point x="170" y="281" type="curve" smooth="yes"/>
      <point x="246" y="297" type="line"/>
      <point x="513" y="674" type="line" smooth="yes"/>
      <point x="515" y="677"/>
      <point x="519" y="681"/>
      <point x="524" y="681" type="curve" smooth="yes"/>
      <point x="969" y="681" type="line" smooth="yes"/>
      <point x="979" y="681"/>
      <point x="987" y="674"/>
      <point x="987" y="664" type="curve" smooth="yes"/>
      <point x="987" y="654"/>
      <point x="979" y="646"/>
      <point x="969" y="646" type="curve" smooth="yes"/>
      <point x="545" y="646" type="line"/>
      <point x="545" y="354" type="line"/>
      <point x="918" y="354" type="line" smooth="yes"/>
      <point x="927" y="354"/>
      <point x="935" y="346"/>
      <point x="935" y="337" type="curve" smooth="yes"/>
      <point x="935" y="327"/>
      <point x="927" y="318"/>
      <point x="918" y="318" type="curve" smooth="yes"/>
      <point x="545" y="319" type="line"/>
    </contour>
    <contour>
      <point x="296" y="307" type="line"/>
      <point x="510" y="351" type="line"/>
      <point x="510" y="608" type="line"/>
    </contour>
  </outline>
</glyph>
<glyph name="Egrave" format="1">
  <advance width="600"/>
  <unicode hex="00C8"/>
  <outline>
    <contour>
      <point x="106" y="38" type="line"/>
      <point x="106" y="334" type="line"/>
      <point x="478" y="334" type="line" smooth="yes"/>
      <point x="488" y="334"/>
      <point x="496" y="343"/>
      <point x="496" y="353" type="curve" smooth="yes"/>
      <point x="496" y="364"/>
      <point x="488" y="372"/>
      <point x="478" y="372" type="curve" smooth="yes"/>
      <point x="106" y="372" type="line"/>
      <point x="106" y="644" type="line"/>
      <point x="528" y="644" type="line" smooth="yes"/>
      <point x="538" y="644"/>
      <point x="547" y="653"/>
      <point x="547" y="664" type="curve" smooth="yes"/>
      <point x="547" y="674"/>
      <point x="538" y="682"/>
      <point x="528" y="682" type="curve" smooth="yes"/>
      <point x="87" y="682" type="line" smooth="yes"/>
      <point x="77" y="682"/>
      <point x="68" y="674"/>
      <point x="68" y="664" type="curve" smooth="yes"/>
      <point x="68" y="20" type="line" smooth="yes"/>
      <point x="68" y="9"/>
      <point x="77" y="0"/>
      <point x="87" y="0" type="curve" smooth="yes"/>
      <point x="526" y="0" type="line" smooth="yes"/>
      <point x="536" y="0"/>
      <point x="545" y="9"/>
      <point x="545" y="20" type="curve" smooth="yes"/>
      <point x="545" y="30"/>
      <point x="536" y="38"/>
      <point x="526" y="38" type="curve" smooth="yes"/>
    </contour>
    <contour>
      <point x="245" y="901" type="line" smooth="yes"/>
      <point x="239" y="909"/>
      <point x="232" y="912"/>
      <point x="224" y="912" type="curve" smooth="yes"/>
      <point x="210" y="912"/>
      <point x="197" y="901"/>
      <point x="197" y="887" type="curve" smooth="yes"/>
      <point x="197" y="880"/>
      <point x="200" y="874"/>
      <point x="205" y="868" type="curve" smooth="yes"/>
      <point x="328" y="742" type="line" smooth="yes"/>
      <point x="332" y="738"/>
      <point x="337" y="736"/>
      <point x="341" y="736" type="curve" smooth="yes"/>
      <point x="350" y="736"/>
      <point x="360" y="742"/>
      <point x="360" y="752" type="curve" smooth="yes"/>
      <point x="360" y="756"/>
      <point x="358" y="760"/>
      <point x="354" y="765" type="curve" smooth="yes"/>
    </contour>
  </outline>
</glyph>
<glyph name="Eacute" format="1">
  <advance width="600"/>
  <unicode hex="00C9"/>
  <outline>
    <contour>
      <point x="106" y="38" type="line"/>
      <point x="106" y="334" type="line"/>
      <point x="478" y="334" type="line" smooth="yes"/>
      <point x="488" y="334"/>
      <point x="496" y="343"/>
      <point x="496" y="353" type="curve" smooth="yes"/>
      <point x="496" y="364"/>
      <point x="488" y="372"/>
      <point x="478" y="372" type="curve" smooth="yes"/>
      <point x="106" y="372" type="line"/>
      <point x="106" y="644" type="line"/>
      <point x="528" y="644" type="line" smooth="yes"/>
      <point x="538" y="644"/>
      <point x="547" y="653"/>
      <point x="547" y="664" type="curve" smooth="yes"/>
      <point x="547" y="674"/>
      <point x="538" y="682"/>
      <point x="528" y="682" type="curve" smooth="yes"/>
      <point x="87" y="682" type="line" smooth="yes"/>
      <point x="77" y="682"/>
      <point x="68" y="674"/>
      <point x="68" y="664" type="curve" smooth="yes"/>
      <point x="68" y="20" type="line" smooth="yes"/>
      <point x="68" y="9"/>
      <point x="77" y="0"/>
      <point x="87" y="0" type="curve" smooth="yes"/>
      <point x="526" y="0" type="line" smooth="yes"/>
      <point x="536" y="0"/>
      <point x="545" y="9"/>
      <point x="545" y="20" type="curve" smooth="yes"/>
      <point x="545" y="30"/>
      <point x="536" y="38"/>
      <point x="526" y="38" type="curve" smooth="yes"/>
    </contour>
    <contour>
      <point x="394" y="857" type="line" smooth="yes"/>
      <point x="401" y="862"/>
      <point x="402" y="866"/>
      <point x="402" y="873" type="curve" smooth="yes"/>
      <point x="402" y="887"/>
      <point x="389" y="900"/>
      <point x="378" y="900" type="curve" smooth="yes"/>
      <point x="368" y="900"/>
      <point x="361" y="893"/>
      <point x="352" y="886" type="curve" smooth="yes"/>
      <point x="224" y="782" type="line" smooth="yes"/>
      <point x="218" y="777"/>
      <point x="218" y="772"/>
      <point x="218" y="769" type="curve" smooth="yes"/>
      <point x="218" y="760"/>
      <point x="226" y="752"/>
      <point x="235" y="752" type="curve" smooth="yes"/>
      <point x="239" y="752"/>
      <point x="244" y="754"/>
      <point x="251" y="759" type="curve" smooth="yes"/>
    </contour>
  </outline>
</glyph>
<glyph name="Ecircumflex" format="1">
  <advance width="600"/>
  <unicode hex="00CA"/>
  <outline>
    <contour>
      <point x="328" y="902" type="curve" smooth="yes"/>
      <point x="333" y="902"/>
      <point x="339" y="900"/>
      <point x="343" y="896" type="curve" smooth="yes"/>
      <point x="455" y="783" type="line" smooth="yes"/>
      <point x="459" y="779"/>
      <point x="461" y="776"/>
      <point x="461" y="771" type="curve" smooth="yes"/>
      <point x="461" y="762"/>
      <point x="453" y="753"/>
      <point x="444" y="753" type="curve" smooth="yes"/>
      <point x="439" y="753"/>
      <point x="435" y="755"/>
      <point x="431" y="758" type="curve" smooth="yes"/>
      <point x="326" y="853" type="line"/>
      <point x="202" y="757" type="line" smooth="yes"/>
      <point x="199" y="755"/>
      <point x="195" y="753"/>
      <point x="191" y="753" type="curve" smooth="yes"/>
      <point x="181" y="753"/>
      <point x="173" y="762"/>
      <point x="173" y="771" type="curve" smooth="yes"/>
      <point x="173" y="776"/>
      <point x="176" y="781"/>
      <point x="180" y="784" type="curve" smooth="yes"/>
      <point x="315" y="897" type="line" smooth="yes"/>
      <point x="319" y="900"/>
      <point x="324" y="902"/>
    </contour>
    <contour>
      <point x="106" y="38" type="line"/>
      <point x="526" y="38" type="line" smooth="yes"/>
      <point x="536" y="38"/>
      <point x="545" y="30"/>
      <point x="545" y="20" type="curve" smooth="yes"/>
      <point x="545" y="9"/>
      <point x="536" y="0"/>
      <point x="526" y="0" type="curve" smooth="yes"/>
      <point x="87" y="0" type="line" smooth="yes"/>
      <point x="77" y="0"/>
      <point x="68" y="9"/>
      <point x="68" y="20" type="curve" smooth="yes"/>
      <point x="68" y="664" type="line" smooth="yes"/>
      <point x="68" y="674"/>
      <point x="77" y="682"/>
      <point x="87" y="682" type="curve" smooth="yes"/>
      <point x="528" y="682" type="line" smooth="yes"/>
      <point x="538" y="682"/>
      <point x="547" y="674"/>
      <point x="547" y="664" type="curve" smooth="yes"/>
      <point x="547" y="653"/>
      <point x="538" y="644"/>
      <point x="528" y="644" type="curve" smooth="yes"/>
      <point x="106" y="644" type="line"/>
      <point x="106" y="372" type="line"/>
      <point x="478" y="372" type="line" smooth="yes"/>
      <point x="488" y="372"/>
      <point x="496" y="364"/>
      <point x="496" y="353" type="curve" smooth="yes"/>
      <point x="496" y="343"/>
      <point x="488" y="334"/>
      <point x="478" y="334" type="curve" smooth="yes"/>
      <point x="106" y="334" type="line"/>
    </contour>
  </outline>
</glyph>
<glyph name="Edieresis" format="1">
  <advance width="600"/>
  <unicode hex="00CB"/>
  <outline>
    <contour>
      <point x="270" y="790" type="curve" smooth="yes"/>
      <point x="270" y="807"/>
      <point x="252" y="820"/>
      <point x="233" y="820" type="curve" smooth="yes"/>
      <point x="210" y="820"/>
      <point x="191" y="804"/>
      <point x="191" y="785" type="curve" smooth="yes"/>
      <point x="191" y="768"/>
      <point x="208" y="755"/>
      <point x="227" y="755" type="curve" smooth="yes"/>
      <point x="251" y="755"/>
      <point x="270" y="771"/>
    </contour>
    <contour>
      <point x="433" y="790" type="curve" smooth="yes"/>
      <point x="433" y="807"/>
      <point x="416" y="820"/>
      <point x="397" y="820" type="curve" smooth="yes"/>
      <point x="374" y="820"/>
      <point x="355" y="804"/>
      <point x="355" y="785" type="curve" smooth="yes"/>
      <point x="355" y="768"/>
      <point x="372" y="755"/>
      <point x="391" y="755" type="curve" smooth="yes"/>
      <point x="415" y="755"/>
      <point x="433" y="771"/>
    </contour>
    <contour>
      <point x="106" y="38" type="line"/>
      <point x="106" y="334" type="line"/>
      <point x="478" y="334" type="line" smooth="yes"/>
      <point x="488" y="334"/>
      <point x="496" y="343"/>
      <point x="496" y="353" type="curve" smooth="yes"/>
      <point x="496" y="364"/>
      <point x="488" y="372"/>
      <point x="478" y="372" type="curve" smooth="yes"/>
      <point x="106" y="372" type="line"/>
      <point x="106" y="644" type="line"/>
      <point x="528" y="644" type="line" smooth="yes"/>
      <point x="538" y="644"/>
      <point x="547" y="653"/>
      <point x="547" y="664" type="curve" smooth="yes"/>
      <point x="547" y="674"/>
      <point x="538" y="682"/>
      <point x="528" y="682" type="curve" smooth="yes"/>
      <point x="87" y="682" type="line" smooth="yes"/>
      <point x="77" y="682"/>
      <point x="68" y="674"/>
      <point x="68" y="664" type="curve" smooth="yes"/>
      <point x="68" y="20" type="line" smooth="yes"/>
      <point x="68" y="9"/>
      <point x="77" y="0"/>
      <point x="87" y="0" type="curve" smooth="yes"/>
      <point x="526" y="0" type="line" smooth="yes"/>
      <point x="536" y="0"/>
      <point x="545" y="9"/>
      <point x="545" y="20" type="curve" smooth="yes"/>
      <point x="545" y="30"/>
      <point x="536" y="38"/>
      <point x="526" y="38" type="curve" smooth="yes"/>
    </contour>
  </outline>
</glyph>
<glyph name="Iacute" format="1">
  <advance width="423"/>
  <unicode hex="00CD"/>
  <outline>
    <contour>
      <point x="235" y="37" type="line"/>
      <point x="235" y="643" type="line"/>
      <point x="347" y="643" type="line" smooth="yes"/>
      <point x="357" y="643"/>
      <point x="366" y="652"/>
      <point x="366" y="662" type="curve" smooth="yes"/>
      <point x="366" y="673"/>
      <point x="357" y="681"/>
      <point x="347" y="681" type="curve" smooth="yes"/>
      <point x="83" y="681" type="line" smooth="yes"/>
      <point x="73" y="681"/>
      <point x="64" y="673"/>
      <point x="64" y="662" type="curve" smooth="yes"/>
      <point x="64" y="652"/>
      <point x="73" y="643"/>
      <point x="83" y="643" type="curve" smooth="yes"/>
      <point x="197" y="643" type="line"/>
      <point x="197" y="37" type="line"/>
      <point x="83" y="37" type="line" smooth="yes"/>
      <point x="73" y="37"/>
      <point x="64" y="29"/>
      <point x="64" y="19" type="curve" smooth="yes"/>
      <point x="64" y="8"/>
      <point x="73" y="-1"/>
      <point x="83" y="-1" type="curve" smooth="yes"/>
      <point x="347" y="-1" type="line" smooth="yes"/>
      <point x="357" y="-1"/>
      <point x="366" y="8"/>
      <point x="366" y="19" type="curve" smooth="yes"/>
      <point x="366" y="29"/>
      <point x="359" y="37"/>
      <point x="347" y="37" type="curve" smooth="yes"/>
    </contour>
    <contour>
      <point x="318" y="857" type="line" smooth="yes"/>
      <point x="325" y="862"/>
      <point x="326" y="866"/>
      <point x="326" y="873" type="curve" smooth="yes"/>
      <point x="326" y="887"/>
      <point x="313" y="900"/>
      <point x="302" y="900" type="curve" smooth="yes"/>
      <point x="292" y="900"/>
      <point x="285" y="893"/>
      <point x="276" y="886" type="curve" smooth="yes"/>
      <point x="148" y="782" type="line" smooth="yes"/>
      <point x="142" y="777"/>
      <point x="142" y="772"/>
      <point x="142" y="769" type="curve" smooth="yes"/>
      <point x="142" y="760"/>
      <point x="150" y="752"/>
      <point x="159" y="752" type="curve" smooth="yes"/>
      <point x="163" y="752"/>
      <point x="168" y="754"/>
      <point x="175" y="759" type="curve" smooth="yes"/>
    </contour>
  </outline>
</glyph>
<glyph name="Eth" format="1">
  <advance width="645"/>
  <unicode hex="00D0"/>
  <outline>
    <contour>
      <point x="269" y="-21" type="curve" smooth="yes"/>
      <point x="462" y="-21"/>
      <point x="602" y="76"/>
      <point x="602" y="299" type="curve" smooth="yes"/>
      <point x="602" y="625"/>
      <point x="314" y="681"/>
      <point x="150" y="681" type="curve" smooth="yes"/>
      <point x="140" y="681"/>
      <point x="130" y="673"/>
      <point x="130" y="662" type="curve" smooth="yes"/>
      <point x="130" y="328" type="line"/>
      <point x="55" y="328" type="line" smooth="yes"/>
      <point x="45" y="328"/>
      <point x="37" y="318"/>
      <point x="37" y="308" type="curve" smooth="yes"/>
      <point x="37" y="298"/>
      <point x="45" y="290"/>
      <point x="55" y="290" type="curve" smooth="yes"/>
      <point x="130" y="290" type="line"/>
      <point x="130" y="15" type="line" smooth="yes"/>
      <point x="130" y="7"/>
      <point x="136" y="-1"/>
      <point x="145" y="-3" type="curve" smooth="yes"/>
      <point x="153" y="-5"/>
      <point x="211" y="-21"/>
    </contour>
    <contour>
      <point x="165" y="290" type="line"/>
      <point x="283" y="290" type="line" smooth="yes"/>
      <point x="293" y="290"/>
      <point x="301" y="298"/>
      <point x="301" y="308" type="curve" smooth="yes"/>
      <point x="301" y="318"/>
      <point x="293" y="328"/>
      <point x="283" y="328" type="curve" smooth="yes"/>
      <point x="165" y="328" type="line"/>
      <point x="165" y="643" type="line"/>
      <point x="386" y="634"/>
      <point x="566" y="545"/>
      <point x="566" y="299" type="curve" smooth="yes"/>
      <point x="566" y="109"/>
      <point x="459" y="18"/>
      <point x="269" y="18" type="curve" smooth="yes"/>
      <point x="235" y="18"/>
      <point x="192" y="25"/>
      <point x="165" y="31" type="curve"/>
    </contour>
  </outline>
</glyph>
<glyph name="Ntilde" format="1">
  <advance width="609"/>
  <unicode hex="00D1"/>
  <outline>
    <contour>
      <point x="517" y="7" type="line" smooth="yes"/>
      <point x="520" y="2"/>
      <point x="525" y="0"/>
      <point x="532" y="0" type="curve" smooth="yes"/>
      <point x="543" y="0"/>
      <point x="551" y="8"/>
      <point x="551" y="19" type="curve" smooth="yes"/>
      <point x="551" y="664" type="line" smooth="yes"/>
      <point x="551" y="674"/>
      <point x="543" y="682"/>
      <point x="532" y="682" type="curve" smooth="yes"/>
      <point x="522" y="682"/>
      <point x="514" y="674"/>
      <point x="514" y="664" type="curve" smooth="yes"/>
      <point x="514" y="77" type="line"/>
      <point x="105" y="670" type="line" smooth="yes"/>
      <point x="100" y="678"/>
      <point x="94" y="681"/>
      <point x="86" y="681" type="curve" smooth="yes"/>
      <point x="76" y="681"/>
      <point x="69" y="673"/>
      <point x="69" y="662" type="curve" smooth="yes"/>
      <point x="68" y="19" type="line" smooth="yes"/>
      <point x="68" y="8"/>
      <point x="76" y="0"/>
      <point x="86" y="0" type="curve" smooth="yes"/>
      <point x="96" y="0"/>
      <point x="105" y="8"/>
      <point x="105" y="19" type="curve" smooth="yes"/>
      <point x="106" y="603" type="line"/>
    </contour>
    <contour>
      <point x="462" y="844" type="curve" smooth="yes"/>
      <point x="450" y="812"/>
      <point x="429" y="761"/>
      <point x="391" y="761" type="curve" smooth="yes"/>
      <point x="370" y="761"/>
      <point x="349" y="786"/>
      <point x="332" y="811" type="curve" smooth="yes"/>
      <point x="313" y="839"/>
      <point x="292" y="869"/>
      <point x="251" y="869" type="curve" smooth="yes"/>
      <point x="204" y="869"/>
      <point x="150" y="816"/>
      <point x="150" y="774" type="curve" smooth="yes"/>
      <point x="150" y="766"/>
      <point x="153" y="758"/>
      <point x="163" y="758" type="curve" smooth="yes"/>
      <point x="170" y="758"/>
      <point x="175" y="762"/>
      <point x="178" y="771" type="curve" smooth="yes"/>
      <point x="195" y="829"/>
      <point x="235" y="842"/>
      <point x="251" y="842" type="curve" smooth="yes"/>
      <point x="271" y="842"/>
      <point x="282" y="829"/>
      <point x="308" y="792" type="curve" smooth="yes"/>
      <point x="327" y="766"/>
      <point x="348" y="735"/>
      <point x="389" y="735" type="curve" smooth="yes"/>
      <point x="443" y="735"/>
      <point x="492" y="803"/>
      <point x="492" y="841" type="curve" smooth="yes"/>
      <point x="492" y="849"/>
      <point x="487" y="855"/>
      <point x="478" y="855" type="curve" smooth="yes"/>
      <point x="469" y="855"/>
      <point x="464" y="850"/>
    </contour>
  </outline>
</glyph>
<glyph name="Ograve" format="1">
  <advance width="650"/>
  <unicode hex="00D2"/>
  <outline>
    <contour>
      <point x="308" y="-2" type="curve" smooth="yes"/>
      <point x="464" y="-2"/>
      <point x="598" y="167"/>
      <point x="598" y="368" type="curve" smooth="yes"/>
      <point x="598" y="540"/>
      <point x="494" y="682"/>
      <point x="352" y="682" type="curve" smooth="yes"/>
      <point x="196" y="682"/>
      <point x="62" y="513"/>
      <point x="62" y="312" type="curve" smooth="yes"/>
      <point x="62" y="142"/>
      <point x="165" y="-2"/>
    </contour>
    <contour>
      <point x="344" y="649" type="curve" smooth="yes"/>
      <point x="473" y="649"/>
      <point x="564" y="508"/>
      <point x="564" y="364" type="curve" smooth="yes"/>
      <point x="564" y="183"/>
      <point x="440" y="31"/>
      <point x="308" y="31" type="curve" smooth="yes"/>
      <point x="185" y="31"/>
      <point x="96" y="159"/>
      <point x="96" y="312" type="curve" smooth="yes"/>
      <point x="96" y="500"/>
      <point x="213" y="649"/>
    </contour>
    <contour>
      <point x="315" y="901" type="line" smooth="yes"/>
      <point x="309" y="909"/>
      <point x="302" y="912"/>
      <point x="294" y="912" type="curve" smooth="yes"/>
      <point x="280" y="912"/>
      <point x="267" y="901"/>
      <point x="267" y="887" type="curve" smooth="yes"/>
      <point x="267" y="880"/>
      <point x="270" y="874"/>
      <point x="275" y="868" type="curve" smooth="yes"/>
      <point x="398" y="742" type="line" smooth="yes"/>
      <point x="402" y="738"/>
      <point x="407" y="736"/>
      <point x="411" y="736" type="curve" smooth="yes"/>
      <point x="420" y="736"/>
      <point x="430" y="742"/>
      <point x="430" y="752" type="curve" smooth="yes"/>
      <point x="430" y="756"/>
      <point x="428" y="760"/>
      <point x="424" y="765" type="curve" smooth="yes"/>
    </contour>
  </outline>
</glyph>
<glyph name="Ocircumflex" format="1">
  <advance width="650"/>
  <unicode hex="00D4"/>
  <outline>
    <contour>
      <point x="308" y="-2" type="curve" smooth="yes"/>
      <point x="165" y="-2"/>
      <point x="62" y="142"/>
      <point x="62" y="312" type="curve" smooth="yes"/>
      <point x="62" y="513"/>
      <point x="196" y="682"/>
      <point x="352" y="682" type="curve" smooth="yes"/>
      <point x="494" y="682"/>
      <point x="598" y="540"/>
      <point x="598" y="368" type="curve" smooth="yes"/>
      <point x="598" y="167"/>
      <point x="464" y="-2"/>
    </contour>
    <contour>
      <point x="344" y="649" type="curve" smooth="yes"/>
      <point x="213" y="649"/>
      <point x="96" y="500"/>
      <point x="96" y="312" type="curve" smooth="yes"/>
      <point x="96" y="159"/>
      <point x="185" y="31"/>
      <point x="308" y="31" type="curve" smooth="yes"/>
      <point x="440" y="31"/>
      <point x="564" y="183"/>
      <point x="564" y="364" type="curve" smooth="yes"/>
      <point x="564" y="508"/>
      <point x="473" y="649"/>
    </contour>
    <contour>
      <point x="370" y="902" type="curve" smooth="yes"/>
      <point x="375" y="902"/>
      <point x="381" y="900"/>
      <point x="385" y="896" type="curve" smooth="yes"/>
      <point x="497" y="783" type="line" smooth="yes"/>
      <point x="501" y="779"/>
      <point x="503" y="776"/>
      <point x="503" y="771" type="curve" smooth="yes"/>
      <point x="503" y="762"/>
      <point x="495" y="753"/>
      <point x="486" y="753" type="curve" smooth="yes"/>
      <point x="481" y="753"/>
      <point x="477" y="755"/>
      <point x="473" y="758" type="curve" smooth="yes"/>
      <point x="368" y="853" type="line"/>
      <point x="244" y="757" type="line" smooth="yes"/>
      <point x="241" y="755"/>
      <point x="237" y="753"/>
      <point x="233" y="753" type="curve" smooth="yes"/>
      <point x="223" y="753"/>
      <point x="215" y="762"/>
      <point x="215" y="771" type="curve" smooth="yes"/>
      <point x="215" y="776"/>
      <point x="218" y="781"/>
      <point x="222" y="784" type="curve" smooth="yes"/>
      <point x="357" y="897" type="line" smooth="yes"/>
      <point x="361" y="900"/>
      <point x="366" y="902"/>
    </contour>
  </outline>
</glyph>
<glyph name="multiply" format="1">
  <advance width="431"/>
  <unicode hex="00D7"/>
  <outline>
    <contour>
      <point x="336" y="340" type="curve" smooth="yes"/>
      <point x="336" y="337"/>
      <point x="334" y="332"/>
      <point x="332" y="330" type="curve" smooth="yes"/>
      <point x="245" y="243" type="line"/>
      <point x="331" y="155" type="line" smooth="yes"/>
      <point x="334" y="152"/>
      <point x="336" y="148"/>
      <point x="336" y="144" type="curve" smooth="yes"/>
      <point x="336" y="133"/>
      <point x="329" y="126"/>
      <point x="320" y="126" type="curve" smooth="yes"/>
      <point x="315" y="126"/>
      <point x="310" y="128"/>
      <point x="307" y="131" type="curve" smooth="yes"/>
      <point x="221" y="218" type="line"/>
      <point x="132" y="130" type="line" smooth="yes"/>
      <point x="129" y="127"/>
      <point x="125" y="125"/>
      <point x="120" y="125" type="curve" smooth="yes"/>
      <point x="109" y="125"/>
      <point x="103" y="134"/>
      <point x="103" y="142" type="curve" smooth="yes"/>
      <point x="103" y="146"/>
      <point x="105" y="151"/>
      <point x="108" y="154" type="curve" smooth="yes"/>
      <point x="197" y="243" type="line"/>
      <point x="116" y="322" type="line" smooth="yes"/>
      <point x="113" y="325"/>
      <point x="111" y="329"/>
      <point x="111" y="334" type="curve" smooth="yes"/>
      <point x="111" y="343"/>
      <point x="119" y="351"/>
      <point x="128" y="351" type="curve" smooth="yes"/>
      <point x="133" y="351"/>
      <point x="137" y="349"/>
      <point x="140" y="346" type="curve" smooth="yes"/>
      <point x="221" y="267" type="line"/>
      <point x="308" y="354" type="line" smooth="yes"/>
      <point x="310" y="356"/>
      <point x="314" y="358"/>
      <point x="318" y="358" type="curve" smooth="yes"/>
      <point x="330" y="358"/>
      <point x="336" y="351"/>
    </contour>
  </outline>
</glyph>
<glyph name="Ugrave" format="1">
  <advance width="673"/>
  <unicode hex="00D9"/>
  <outline>
    <contour>
      <point x="614" y="653" type="curve" smooth="yes"/>
      <point x="615.851" y="594.691"/>
      <point x="617.916" y="536.168"/>
      <point x="617.916" y="477.233" type="curve" smooth="yes"/>
      <point x="617.916" y="408.815"/>
      <point x="615.133" y="339.84"/>
      <point x="606" y="270" type="curve" smooth="yes"/>
      <point x="585" y="110"/>
      <point x="502" y="0"/>
      <point x="329" y="0" type="curve" smooth="yes"/>
      <point x="171" y="0"/>
      <point x="78" y="125"/>
      <point x="69" y="367" type="curve" smooth="yes"/>
      <point x="67.1877" y="415.48"/>
      <point x="66.607" y="461.701"/>
      <point x="66.607" y="505.665" type="curve" smooth="yes"/>
      <point x="66.607" y="558.734"/>
      <point x="67.4531" y="608.512"/>
      <point x="68" y="655" type="curve" smooth="yes"/>
      <point x="68" y="671"/>
      <point x="74" y="681"/>
      <point x="88" y="681" type="curve" smooth="yes"/>
      <point x="103" y="681"/>
      <point x="106" y="670"/>
      <point x="106" y="654" type="curve" smooth="yes"/>
      <point x="104.735" y="597.711"/>
      <point x="103.47" y="540.623"/>
      <point x="103.47" y="482.734" type="curve" smooth="yes"/>
      <point x="103.47" y="449.093"/>
      <point x="103.897" y="415.182"/>
      <point x="105" y="381" type="curve" smooth="yes"/>
      <point x="110" y="236"/>
      <point x="145" y="31"/>
      <point x="330" y="31" type="curve" smooth="yes"/>
      <point x="490" y="31"/>
      <point x="554" y="139"/>
      <point x="570" y="277" type="curve" smooth="yes"/>
      <point x="576.76" y="339.4"/>
      <point x="578.382" y="402.07"/>
      <point x="578.382" y="466.558" type="curve" smooth="yes"/>
      <point x="578.382" y="526.085"/>
      <point x="577" y="587.16"/>
      <point x="577" y="651" type="curve" smooth="yes"/>
      <point x="577" y="667"/>
      <point x="578" y="681"/>
      <point x="596" y="681" type="curve" smooth="yes"/>
      <point x="611" y="681"/>
      <point x="614" y="668"/>
    </contour>
    <contour>
      <point x="293" y="901" type="curve" smooth="yes"/>
      <point x="402" y="765" type="line" smooth="yes"/>
      <point x="406" y="760"/>
      <point x="408" y="756"/>
      <point x="408" y="752" type="curve" smooth="yes"/>
      <point x="408" y="742"/>
      <point x="398" y="736"/>
      <point x="389" y="736" type="curve" smooth="yes"/>
      <point x="385" y="736"/>
      <point x="380" y="738"/>
      <point x="376" y="742" type="curve" smooth="yes"/>
      <point x="253" y="868" type="line" smooth="yes"/>
      <point x="248" y="874"/>
      <point x="245" y="880"/>
      <point x="245" y="887" type="curve" smooth="yes"/>
      <point x="245" y="901"/>
      <point x="258" y="912"/>
      <point x="272" y="912" type="curve" smooth="yes"/>
      <point x="280" y="912"/>
      <point x="287" y="909"/>
    </contour>
  </outline>
</glyph>
<glyph name="Ucircumflex" format="1">
  <advance width="673"/>
  <unicode hex="00DB"/>
  <outline>
    <contour>
      <point x="363" y="902" type="curve" smooth="yes"/>
      <point x="359" y="902"/>
      <point x="354" y="900"/>
      <point x="350" y="897" type="curve" smooth="yes"/>
      <point x="215" y="784" type="line" smooth="yes"/>
      <point x="211" y="781"/>
      <point x="208" y="776"/>
      <point x="208" y="771" type="curve" smooth="yes"/>
      <point x="208" y="762"/>
      <point x="216" y="753"/>
      <point x="226" y="753" type="curve" smooth="yes"/>
      <point x="230" y="753"/>
      <point x="234" y="755"/>
      <point x="237" y="757" type="curve" smooth="yes"/>
      <point x="361" y="853" type="line"/>
      <point x="466" y="758" type="line" smooth="yes"/>
      <point x="470" y="755"/>
      <point x="474" y="753"/>
      <point x="479" y="753" type="curve" smooth="yes"/>
      <point x="488" y="753"/>
      <point x="496" y="762"/>
      <point x="496" y="771" type="curve" smooth="yes"/>
      <point x="496" y="776"/>
      <point x="494" y="779"/>
      <point x="490" y="783" type="curve" smooth="yes"/>
      <point x="378" y="896" type="line" smooth="yes"/>
      <point x="374" y="900"/>
      <point x="368" y="902"/>
    </contour>
    <contour>
      <point x="614" y="653" type="curve" smooth="yes"/>
      <point x="614" y="668"/>
      <point x="611" y="681"/>
      <point x="596" y="681" type="curve" smooth="yes"/>
      <point x="578" y="681"/>
      <point x="577" y="667"/>
      <point x="577" y="651" type="curve" smooth="yes"/>
      <point x="577" y="518"/>
      <point x="583" y="397"/>
      <point x="570" y="277" type="curve" smooth="yes"/>
      <point x="554" y="139"/>
      <point x="490" y="31"/>
      <point x="330" y="31" type="curve" smooth="yes"/>
      <point x="145" y="31"/>
      <point x="110" y="236"/>
      <point x="105" y="381" type="curve" smooth="yes"/>
      <point x="102" y="474"/>
      <point x="104" y="565"/>
      <point x="106" y="654" type="curve" smooth="yes"/>
      <point x="106" y="670"/>
      <point x="103" y="681"/>
      <point x="88" y="681" type="curve" smooth="yes"/>
      <point x="74" y="681"/>
      <point x="68" y="671"/>
      <point x="68" y="655" type="curve" smooth="yes"/>
      <point x="67" y="570"/>
      <point x="65" y="474"/>
      <point x="69" y="367" type="curve" smooth="yes"/>
      <point x="78" y="125"/>
      <point x="171" y="0"/>
      <point x="329" y="0" type="curve" smooth="yes"/>
      <point x="502" y="0"/>
      <point x="585" y="110"/>
      <point x="606" y="270" type="curve" smooth="yes"/>
      <point x="623" y="400"/>
      <point x="618" y="527"/>
    </contour>
  </outline>
</glyph>
<glyph name="Udieresis" format="1">
  <advance width="673"/>
  <unicode hex="00DC"/>
  <outline>
    <contour>
      <point x="301" y="790" type="curve" smooth="yes"/>
      <point x="301" y="771"/>
      <point x="282" y="755"/>
      <point x="259" y="755" type="curve" smooth="yes"/>
      <point x="239" y="755"/>
      <point x="223" y="768"/>
      <point x="223" y="785" type="curve" smooth="yes"/>
      <point x="223" y="804"/>
      <point x="241" y="820"/>
      <point x="265" y="820" type="curve" smooth="yes"/>
      <point x="283" y="820"/>
      <point x="301" y="807"/>
    </contour>
    <contour>
      <point x="465" y="790" type="curve" smooth="yes"/>
      <point x="465" y="771"/>
      <point x="446" y="755"/>
      <point x="423" y="755" type="curve" smooth="yes"/>
      <point x="403" y="755"/>
      <point x="386" y="768"/>
      <point x="386" y="785" type="curve" smooth="yes"/>
      <point x="386" y="804"/>
      <point x="405" y="820"/>
      <point x="429" y="820" type="curve" smooth="yes"/>
      <point x="447" y="820"/>
      <point x="465" y="807"/>
    </contour>
    <contour>
      <point x="614" y="653" type="curve" smooth="yes"/>
      <point x="615.851" y="594.691"/>
      <point x="617.916" y="536.168"/>
      <point x="617.916" y="477.233" type="curve" smooth="yes"/>
      <point x="617.916" y="408.815"/>
      <point x="615.133" y="339.84"/>
      <point x="606" y="270" type="curve" smooth="yes"/>
      <point x="585" y="110"/>
      <point x="502" y="0"/>
      <point x="329" y="0" type="curve" smooth="yes"/>
      <point x="171" y="0"/>
      <point x="78" y="125"/>
      <point x="69" y="367" type="curve" smooth="yes"/>
      <point x="67.1877" y="415.48"/>
      <point x="66.607" y="461.701"/>
      <point x="66.607" y="505.665" type="curve" smooth="yes"/>
      <point x="66.607" y="558.734"/>
      <point x="67.4531" y="608.512"/>
      <point x="68" y="655" type="curve" smooth="yes"/>
      <point x="68" y="671"/>
      <point x="74" y="681"/>
      <point x="88" y="681" type="curve" smooth="yes"/>
      <point x="103" y="681"/>
      <point x="106" y="670"/>
      <point x="106" y="654" type="curve" smooth="yes"/>
      <point x="104.735" y="597.711"/>
      <point x="103.47" y="540.623"/>
      <point x="103.47" y="482.734" type="curve" smooth="yes"/>
      <point x="103.47" y="449.093"/>
      <point x="103.897" y="415.182"/>
      <point x="105" y="381" type="curve" smooth="yes"/>
      <point x="110" y="236"/>
      <point x="145" y="31"/>
      <point x="330" y="31" type="curve" smooth="yes"/>
      <point x="490" y="31"/>
      <point x="554" y="139"/>
      <point x="570" y="277" type="curve" smooth="yes"/>
      <point x="576.76" y="339.4"/>
      <point x="578.382" y="402.07"/>
      <point x="578.382" y="466.558" type="curve" smooth="yes"/>
      <point x="578.382" y="526.085"/>
      <point x="577" y="587.16"/>
      <point x="577" y="651" type="curve" smooth="yes"/>
      <point x="577" y="667"/>
      <point x="578" y="681"/>
      <point x="596" y="681" type="curve" smooth="yes"/>
      <point x="611" y="681"/>
      <point x="614" y="668"/>
    </contour>
  </outline>
</glyph>
<glyph name="agrave" format="1">
  <advance width="495"/>
  <unicode hex="00E0"/>
  <outline>
    <contour>
      <point x="438" y="476" type="line"/>
      <point x="413" y="489"/>
      <point x="352" y="515"/>
      <point x="291" y="515" type="curve" smooth="yes"/>
      <point x="117" y="515"/>
      <point x="52" y="327"/>
      <point x="52" y="223" type="curve" smooth="yes"/>
      <point x="52" y="95"/>
      <point x="132" y="8"/>
      <point x="238" y="8" type="curve" smooth="yes"/>
      <point x="293" y="8"/>
      <point x="357" y="39"/>
      <point x="400" y="66" type="curve"/>
      <point x="400" y="23" type="line" smooth="yes"/>
      <point x="400" y="10"/>
      <point x="407" y="0"/>
      <point x="419" y="0" type="curve" smooth="yes"/>
      <point x="430" y="0"/>
      <point x="438" y="9"/>
      <point x="438" y="21" type="curve" smooth="yes"/>
    </contour>
    <contour>
      <point x="398" y="110" type="line"/>
      <point x="372" y="93"/>
      <point x="301" y="45"/>
      <point x="236" y="45" type="curve" smooth="yes"/>
      <point x="129" y="45"/>
      <point x="91" y="148"/>
      <point x="91" y="225" type="curve" smooth="yes"/>
      <point x="91" y="316"/>
      <point x="144" y="478"/>
      <point x="294" y="478" type="curve" smooth="yes"/>
      <point x="331" y="478"/>
      <point x="380" y="463"/>
      <point x="402" y="452" type="curve"/>
    </contour>
    <contour>
      <point x="256" y="747" type="line" smooth="yes"/>
      <point x="250" y="755"/>
      <point x="243" y="758"/>
      <point x="235" y="758" type="curve" smooth="yes"/>
      <point x="221" y="758"/>
      <point x="208" y="747"/>
      <point x="208" y="733" type="curve" smooth="yes"/>
      <point x="208" y="726"/>
      <point x="211" y="720"/>
      <point x="216" y="714" type="curve" smooth="yes"/>
      <point x="339" y="588" type="line" smooth="yes"/>
      <point x="343" y="584"/>
      <point x="348" y="582"/>
      <point x="352" y="582" type="curve" smooth="yes"/>
      <point x="361" y="582"/>
      <point x="371" y="588"/>
      <point x="371" y="598" type="curve" smooth="yes"/>
      <point x="371" y="602"/>
      <point x="369" y="606"/>
      <point x="365" y="611" type="curve" smooth="yes"/>
    </contour>
  </outline>
</glyph>
<glyph name="aacute" format="1">
  <advance width="495"/>
  <unicode hex="00E1"/>
  <outline>
    <contour>
      <point x="438" y="476" type="curve"/>
      <point x="438" y="21" type="line" smooth="yes"/>
      <point x="438" y="9"/>
      <point x="430" y="0"/>
      <point x="419" y="0" type="curve" smooth="yes"/>
      <point x="407" y="0"/>
      <point x="400" y="10"/>
      <point x="400" y="23" type="curve" smooth="yes"/>
      <point x="400" y="66" type="line"/>
      <point x="357" y="39"/>
      <point x="293" y="8"/>
      <point x="238" y="8" type="curve" smooth="yes"/>
      <point x="132" y="8"/>
      <point x="52" y="95"/>
      <point x="52" y="223" type="curve" smooth="yes"/>
      <point x="52" y="327"/>
      <point x="117" y="515"/>
      <point x="291" y="515" type="curve" smooth="yes"/>
      <point x="352" y="515"/>
      <point x="413" y="489"/>
    </contour>
    <contour>
      <point x="398" y="110" type="curve"/>
      <point x="402" y="452" type="line"/>
      <point x="380" y="463"/>
      <point x="331" y="478"/>
      <point x="294" y="478" type="curve" smooth="yes"/>
      <point x="144" y="478"/>
      <point x="91" y="316"/>
      <point x="91" y="225" type="curve" smooth="yes"/>
      <point x="91" y="148"/>
      <point x="129" y="45"/>
      <point x="236" y="45" type="curve" smooth="yes"/>
      <point x="301" y="45"/>
      <point x="372" y="93"/>
    </contour>
    <contour>
      <point x="416" y="692" type="curve" smooth="yes"/>
      <point x="273" y="594" type="line" smooth="yes"/>
      <point x="266" y="589"/>
      <point x="261" y="587"/>
      <point x="257" y="587" type="curve" smooth="yes"/>
      <point x="248" y="587"/>
      <point x="240" y="595"/>
      <point x="240" y="604" type="curve" smooth="yes"/>
      <point x="240" y="607"/>
      <point x="240" y="612"/>
      <point x="246" y="617" type="curve" smooth="yes"/>
      <point x="374" y="721" type="line" smooth="yes"/>
      <point x="383" y="728"/>
      <point x="390" y="735"/>
      <point x="400" y="735" type="curve" smooth="yes"/>
      <point x="411" y="735"/>
      <point x="424" y="722"/>
      <point x="424" y="708" type="curve" smooth="yes"/>
      <point x="424" y="701"/>
      <point x="423" y="697"/>
    </contour>
  </outline>
</glyph>
<glyph name="acircumflex" format="1">
  <advance width="495"/>
  <unicode hex="00E2"/>
  <outline>
    <contour>
      <point x="310" y="748" type="curve" smooth="yes"/>
      <point x="306" y="748"/>
      <point x="301" y="746"/>
      <point x="297" y="743" type="curve" smooth="yes"/>
      <point x="162" y="630" type="line" smooth="yes"/>
      <point x="158" y="627"/>
      <point x="155" y="622"/>
      <point x="155" y="617" type="curve" smooth="yes"/>
      <point x="155" y="608"/>
      <point x="163" y="599"/>
      <point x="173" y="599" type="curve" smooth="yes"/>
      <point x="177" y="599"/>
      <point x="181" y="601"/>
      <point x="184" y="603" type="curve" smooth="yes"/>
      <point x="308" y="699" type="line"/>
      <point x="413" y="604" type="line" smooth="yes"/>
      <point x="417" y="601"/>
      <point x="421" y="599"/>
      <point x="426" y="599" type="curve" smooth="yes"/>
      <point x="435" y="599"/>
      <point x="443" y="608"/>
      <point x="443" y="617" type="curve" smooth="yes"/>
      <point x="443" y="622"/>
      <point x="441" y="625"/>
      <point x="437" y="629" type="curve" smooth="yes"/>
      <point x="325" y="742" type="line" smooth="yes"/>
      <point x="321" y="746"/>
      <point x="315" y="748"/>
    </contour>
    <contour>
      <point x="438" y="476" type="line"/>
      <point x="413" y="489"/>
      <point x="352" y="515"/>
      <point x="291" y="515" type="curve" smooth="yes"/>
      <point x="117" y="515"/>
      <point x="52" y="327"/>
      <point x="52" y="223" type="curve" smooth="yes"/>
      <point x="52" y="95"/>
      <point x="132" y="8"/>
      <point x="238" y="8" type="curve" smooth="yes"/>
      <point x="293" y="8"/>
      <point x="357" y="39"/>
      <point x="400" y="66" type="curve"/>
      <point x="400" y="23" type="line" smooth="yes"/>
      <point x="400" y="10"/>
      <point x="407" y="0"/>
      <point x="419" y="0" type="curve" smooth="yes"/>
      <point x="430" y="0"/>
      <point x="438" y="9"/>
      <point x="438" y="21" type="curve" smooth="yes"/>
    </contour>
    <contour>
      <point x="398" y="110" type="line"/>
      <point x="372" y="93"/>
      <point x="301" y="45"/>
      <point x="236" y="45" type="curve" smooth="yes"/>
      <point x="129" y="45"/>
      <point x="91" y="148"/>
      <point x="91" y="225" type="curve" smooth="yes"/>
      <point x="91" y="316"/>
      <point x="144" y="478"/>
      <point x="294" y="478" type="curve" smooth="yes"/>
      <point x="331" y="478"/>
      <point x="380" y="463"/>
      <point x="402" y="452" type="curve"/>
    </contour>
  </outline>
</glyph>
<glyph name="adieresis" format="1">
  <advance width="495"/>
  <unicode hex="00E4"/>
  <outline>
    <contour>
      <point x="243" y="636" type="curve" smooth="yes"/>
      <point x="243" y="616"/>
      <point x="224" y="600"/>
      <point x="200" y="600" type="curve" smooth="yes"/>
      <point x="181" y="600"/>
      <point x="164" y="613"/>
      <point x="164" y="630" type="curve" smooth="yes"/>
      <point x="164" y="649"/>
      <point x="183" y="666"/>
      <point x="207" y="666" type="curve" smooth="yes"/>
      <point x="225" y="666"/>
      <point x="243" y="652"/>
    </contour>
    <contour>
      <point x="409" y="636" type="curve" smooth="yes"/>
      <point x="409" y="616"/>
      <point x="390" y="600"/>
      <point x="366" y="600" type="curve" smooth="yes"/>
      <point x="346" y="600"/>
      <point x="330" y="613"/>
      <point x="330" y="630" type="curve" smooth="yes"/>
      <point x="330" y="649"/>
      <point x="348" y="666"/>
      <point x="372" y="666" type="curve" smooth="yes"/>
      <point x="391" y="666"/>
      <point x="409" y="652"/>
    </contour>
    <contour>
      <point x="438" y="476" type="curve"/>
      <point x="438" y="21" type="line" smooth="yes"/>
      <point x="438" y="9"/>
      <point x="430" y="0"/>
      <point x="419" y="0" type="curve" smooth="yes"/>
      <point x="407" y="0"/>
      <point x="400" y="10"/>
      <point x="400" y="23" type="curve" smooth="yes"/>
      <point x="400" y="66" type="line"/>
      <point x="357" y="39"/>
      <point x="293" y="8"/>
      <point x="238" y="8" type="curve" smooth="yes"/>
      <point x="132" y="8"/>
      <point x="52" y="95"/>
      <point x="52" y="223" type="curve" smooth="yes"/>
      <point x="52" y="327"/>
      <point x="117" y="515"/>
      <point x="291" y="515" type="curve" smooth="yes"/>
      <point x="352" y="515"/>
      <point x="413" y="489"/>
    </contour>
    <contour>
      <point x="398" y="110" type="curve"/>
      <point x="402" y="452" type="line"/>
      <point x="380" y="463"/>
      <point x="331" y="478"/>
      <point x="294" y="478" type="curve" smooth="yes"/>
      <point x="144" y="478"/>
      <point x="91" y="316"/>
      <point x="91" y="225" type="curve" smooth="yes"/>
      <point x="91" y="148"/>
      <point x="129" y="45"/>
      <point x="236" y="45" type="curve" smooth="yes"/>
      <point x="301" y="45"/>
      <point x="372" y="93"/>
    </contour>
  </outline>
</glyph>
<glyph name="aring" format="1">
  <advance width="495"/>
  <unicode hex="00E5"/>
  <outline>
    <contour>
      <point x="294" y="587" type="curve" smooth="yes"/>
      <point x="359" y="587"/>
      <point x="424" y="631"/>
      <point x="424" y="697" type="curve" smooth="yes"/>
      <point x="424" y="751"/>
      <point x="374" y="794"/>
      <point x="317" y="794" type="curve" smooth="yes"/>
      <point x="251" y="794"/>
      <point x="186" y="747"/>
      <point x="186" y="683" type="curve" smooth="yes"/>
      <point x="186" y="629"/>
      <point x="235" y="587"/>
    </contour>
    <contour>
      <point x="313" y="766" type="curve" smooth="yes"/>
      <point x="364" y="766"/>
      <point x="401" y="730"/>
      <point x="401" y="695" type="curve" smooth="yes"/>
      <point x="401" y="645"/>
      <point x="344" y="614"/>
      <point x="303" y="614" type="curve" smooth="yes"/>
      <point x="249" y="614"/>
      <point x="209" y="640"/>
      <point x="209" y="683" type="curve" smooth="yes"/>
      <point x="209" y="718"/>
      <point x="250" y="766"/>
    </contour>
    <contour>
      <point x="438" y="476" type="line"/>
      <point x="413" y="489"/>
      <point x="352" y="515"/>
      <point x="291" y="515" type="curve" smooth="yes"/>
      <point x="117" y="515"/>
      <point x="52" y="327"/>
      <point x="52" y="223" type="curve" smooth="yes"/>
      <point x="52" y="95"/>
      <point x="132" y="8"/>
      <point x="238" y="8" type="curve" smooth="yes"/>
      <point x="293" y="8"/>
      <point x="357" y="39"/>
      <point x="400" y="66" type="curve"/>
      <point x="400" y="23" type="line" smooth="yes"/>
      <point x="400" y="10"/>
      <point x="407" y="0"/>
      <point x="419" y="0" type="curve" smooth="yes"/>
      <point x="430" y="0"/>
      <point x="438" y="9"/>
      <point x="438" y="21" type="curve" smooth="yes"/>
    </contour>
    <contour>
      <point x="398" y="110" type="line"/>
      <point x="372" y="93"/>
      <point x="301" y="45"/>
      <point x="236" y="45" type="curve" smooth="yes"/>
      <point x="129" y="45"/>
      <point x="91" y="148"/>
      <point x="91" y="225" type="curve" smooth="yes"/>
      <point x="91" y="316"/>
      <point x="144" y="478"/>
      <point x="294" y="478" type="curve" smooth="yes"/>
      <point x="331" y="478"/>
      <point x="380" y="463"/>
      <point x="402" y="452" type="curve"/>
    </contour>
  </outline>
</glyph>
<glyph name="igrave" format="1">
  <advance width="184"/>
  <unicode hex="00EC"/>
  <outline>
    <contour>
      <point x="117" y="476" type="line" smooth="yes"/>
      <point x="117" y="487"/>
      <point x="107" y="496"/>
      <point x="97" y="496" type="curve" smooth="yes"/>
      <point x="87" y="496"/>
      <point x="77" y="487"/>
      <point x="77" y="476" type="curve" smooth="yes"/>
      <point x="71" y="20" type="line" smooth="yes"/>
      <point x="71" y="9"/>
      <point x="80" y="0"/>
      <point x="91" y="0" type="curve" smooth="yes"/>
      <point x="101" y="0"/>
      <point x="111" y="9"/>
      <point x="111" y="20" type="curve" smooth="yes"/>
    </contour>
    <contour>
      <point x="67" y="747" type="line" smooth="yes"/>
      <point x="61" y="755"/>
      <point x="54" y="758"/>
      <point x="46" y="758" type="curve" smooth="yes"/>
      <point x="32" y="758"/>
      <point x="19" y="747"/>
      <point x="19" y="733" type="curve" smooth="yes"/>
      <point x="19" y="726"/>
      <point x="22" y="720"/>
      <point x="27" y="714" type="curve" smooth="yes"/>
      <point x="150" y="588" type="line" smooth="yes"/>
      <point x="154" y="584"/>
      <point x="159" y="582"/>
      <point x="163" y="582" type="curve" smooth="yes"/>
      <point x="172" y="582"/>
      <point x="182" y="588"/>
      <point x="182" y="598" type="curve" smooth="yes"/>
      <point x="182" y="602"/>
      <point x="180" y="606"/>
      <point x="176" y="611" type="curve" smooth="yes"/>
    </contour>
  </outline>
</glyph>
<glyph name="icircumflex" format="1">
  <advance width="224"/>
  <unicode hex="00EE"/>
  <outline>
    <contour>
      <point x="141" y="476" type="curve" smooth="yes"/>
      <point x="135" y="20" type="line" smooth="yes"/>
      <point x="135" y="9"/>
      <point x="126" y="0"/>
      <point x="115" y="0" type="curve" smooth="yes"/>
      <point x="105" y="0"/>
      <point x="96" y="9"/>
      <point x="96" y="20" type="curve" smooth="yes"/>
      <point x="102" y="476" type="line" smooth="yes"/>
      <point x="102" y="487"/>
      <point x="111" y="496"/>
      <point x="122" y="496" type="curve" smooth="yes"/>
      <point x="132" y="496"/>
      <point x="141" y="487"/>
    </contour>
    <contour>
      <point x="134" y="748" type="curve" smooth="yes"/>
      <point x="139" y="748"/>
      <point x="145" y="746"/>
      <point x="149" y="742" type="curve" smooth="yes"/>
      <point x="261" y="629" type="line" smooth="yes"/>
      <point x="265" y="625"/>
      <point x="267" y="622"/>
      <point x="267" y="617" type="curve" smooth="yes"/>
      <point x="267" y="608"/>
      <point x="259" y="599"/>
      <point x="250" y="599" type="curve" smooth="yes"/>
      <point x="245" y="599"/>
      <point x="241" y="601"/>
      <point x="237" y="604" type="curve" smooth="yes"/>
      <point x="132" y="699" type="line"/>
      <point x="8" y="603" type="line" smooth="yes"/>
      <point x="5" y="601"/>
      <point x="1" y="599"/>
      <point x="-3" y="599" type="curve" smooth="yes"/>
      <point x="-13" y="599"/>
      <point x="-21" y="608"/>
      <point x="-21" y="617" type="curve" smooth="yes"/>
      <point x="-21" y="622"/>
      <point x="-18" y="627"/>
      <point x="-14" y="630" type="curve" smooth="yes"/>
      <point x="121" y="743" type="line" smooth="yes"/>
      <point x="125" y="746"/>
      <point x="130" y="748"/>
    </contour>
  </outline>
</glyph>
<glyph name="idieresis" format="1">
  <advance width="248"/>
  <unicode hex="00EF"/>
  <outline>
    <contour>
      <point x="146" y="476" type="line" smooth="yes"/>
      <point x="146" y="487"/>
      <point x="137" y="496"/>
      <point x="127" y="496" type="curve" smooth="yes"/>
      <point x="116" y="496"/>
      <point x="107" y="487"/>
      <point x="107" y="476" type="curve" smooth="yes"/>
      <point x="101" y="20" type="line" smooth="yes"/>
      <point x="101" y="9"/>
      <point x="110" y="0"/>
      <point x="120" y="0" type="curve" smooth="yes"/>
      <point x="131" y="0"/>
      <point x="140" y="9"/>
      <point x="140" y="20" type="curve" smooth="yes"/>
    </contour>
    <contour>
      <point x="87" y="636" type="curve" smooth="yes"/>
      <point x="87" y="652"/>
      <point x="69" y="666"/>
      <point x="51" y="666" type="curve" smooth="yes"/>
      <point x="27" y="666"/>
      <point x="8" y="649"/>
      <point x="8" y="630" type="curve" smooth="yes"/>
      <point x="8" y="613"/>
      <point x="25" y="600"/>
      <point x="44" y="600" type="curve" smooth="yes"/>
      <point x="68" y="600"/>
      <point x="87" y="616"/>
    </contour>
    <contour>
      <point x="253" y="636" type="curve" smooth="yes"/>
      <point x="253" y="652"/>
      <point x="235" y="666"/>
      <point x="216" y="666" type="curve" smooth="yes"/>
      <point x="192" y="666"/>
      <point x="174" y="649"/>
      <point x="174" y="630" type="curve" smooth="yes"/>
      <point x="174" y="613"/>
      <point x="190" y="600"/>
      <point x="210" y="600" type="curve" smooth="yes"/>
      <point x="234" y="600"/>
      <point x="253" y="616"/>
    </contour>
  </outline>
</glyph>
<glyph name="ntilde" format="1">
  <advance width="525"/>
  <unicode hex="00F1"/>
  <outline>
    <contour>
      <point x="105" y="482" type="curve" smooth="yes"/>
      <point x="105" y="265" type="line"/>
      <point x="125" y="380"/>
      <point x="229" y="499"/>
      <point x="333" y="499" type="curve" smooth="yes"/>
      <point x="453" y="499"/>
      <point x="469" y="388"/>
      <point x="469" y="148" type="curve" smooth="yes"/>
      <point x="469" y="108"/>
      <point x="469" y="66"/>
      <point x="468" y="20" type="curve" smooth="yes"/>
      <point x="468" y="9"/>
      <point x="461" y="0"/>
      <point x="451" y="0" type="curve" smooth="yes"/>
      <point x="442" y="0"/>
      <point x="433" y="8"/>
      <point x="433" y="19" type="curve" smooth="yes"/>
      <point x="432" y="65"/>
      <point x="432" y="106"/>
      <point x="432" y="145" type="curve" smooth="yes"/>
      <point x="431" y="357"/>
      <point x="430" y="464"/>
      <point x="328" y="464" type="curve" smooth="yes"/>
      <point x="280" y="464"/>
      <point x="219" y="438"/>
      <point x="162" y="334" type="curve" smooth="yes"/>
      <point x="127" y="269"/>
      <point x="106" y="179"/>
      <point x="105" y="105" type="curve" smooth="yes"/>
      <point x="104" y="21" type="line" smooth="yes"/>
      <point x="104" y="9"/>
      <point x="98" y="0"/>
      <point x="86" y="0" type="curve" smooth="yes"/>
      <point x="76" y="0"/>
      <point x="68" y="7"/>
      <point x="68" y="17" type="curve" smooth="yes"/>
      <point x="68" y="482" type="line" smooth="yes"/>
      <point x="68" y="492"/>
      <point x="76" y="500"/>
      <point x="86" y="500" type="curve" smooth="yes"/>
      <point x="97" y="500"/>
      <point x="105" y="492"/>
    </contour>
    <contour>
      <point x="433" y="690" type="curve" smooth="yes"/>
      <point x="435" y="696"/>
      <point x="440" y="701"/>
      <point x="449" y="701" type="curve" smooth="yes"/>
      <point x="458" y="701"/>
      <point x="463" y="695"/>
      <point x="463" y="687" type="curve" smooth="yes"/>
      <point x="463" y="649"/>
      <point x="414" y="581"/>
      <point x="360" y="581" type="curve" smooth="yes"/>
      <point x="319" y="581"/>
      <point x="298" y="612"/>
      <point x="279" y="638" type="curve" smooth="yes"/>
      <point x="253" y="675"/>
      <point x="242" y="688"/>
      <point x="222" y="688" type="curve" smooth="yes"/>
      <point x="206" y="688"/>
      <point x="166" y="675"/>
      <point x="149" y="617" type="curve" smooth="yes"/>
      <point x="146" y="608"/>
      <point x="141" y="604"/>
      <point x="134" y="604" type="curve" smooth="yes"/>
      <point x="124" y="604"/>
      <point x="121" y="612"/>
      <point x="121" y="620" type="curve" smooth="yes"/>
      <point x="121" y="662"/>
      <point x="175" y="715"/>
      <point x="222" y="715" type="curve" smooth="yes"/>
      <point x="263" y="715"/>
      <point x="284" y="685"/>
      <point x="303" y="657" type="curve" smooth="yes"/>
      <point x="320" y="632"/>
      <point x="341" y="607"/>
      <point x="362" y="607" type="curve" smooth="yes"/>
      <point x="400" y="607"/>
      <point x="421" y="658"/>
    </contour>
  </outline>
</glyph>
<glyph name="ograve" format="1">
  <advance width="525"/>
  <unicode hex="00F2"/>
  <outline>
    <contour>
      <point x="252" y="0" type="curve" smooth="yes"/>
      <point x="138" y="0"/>
      <point x="52" y="103"/>
      <point x="52" y="229" type="curve" smooth="yes"/>
      <point x="52" y="376"/>
      <point x="158" y="500"/>
      <point x="284" y="500" type="curve" smooth="yes"/>
      <point x="397" y="500"/>
      <point x="484" y="395"/>
      <point x="484" y="271" type="curve" smooth="yes"/>
      <point x="484" y="123"/>
      <point x="378" y="0"/>
    </contour>
    <contour>
      <point x="279" y="471" type="curve" smooth="yes"/>
      <point x="177" y="471"/>
      <point x="90" y="358"/>
      <point x="90" y="231" type="curve" smooth="yes"/>
      <point x="90" y="123"/>
      <point x="155" y="29"/>
      <point x="252" y="29" type="curve" smooth="yes"/>
      <point x="352" y="29"/>
      <point x="445" y="140"/>
      <point x="445" y="266" type="curve" smooth="yes"/>
      <point x="445" y="375"/>
      <point x="372" y="471"/>
    </contour>
    <contour>
      <point x="261" y="747" type="curve" smooth="yes"/>
      <point x="370" y="611" type="line" smooth="yes"/>
      <point x="374" y="606"/>
      <point x="376" y="602"/>
      <point x="376" y="598" type="curve" smooth="yes"/>
      <point x="376" y="588"/>
      <point x="366" y="582"/>
      <point x="357" y="582" type="curve" smooth="yes"/>
      <point x="353" y="582"/>
      <point x="348" y="584"/>
      <point x="344" y="588" type="curve" smooth="yes"/>
      <point x="221" y="714" type="line" smooth="yes"/>
      <point x="216" y="720"/>
      <point x="213" y="726"/>
      <point x="213" y="733" type="curve" smooth="yes"/>
      <point x="213" y="747"/>
      <point x="226" y="758"/>
      <point x="240" y="758" type="curve" smooth="yes"/>
      <point x="248" y="758"/>
      <point x="255" y="755"/>
    </contour>
  </outline>
</glyph>
<glyph name="oacute" format="1">
  <advance width="525"/>
  <unicode hex="00F3"/>
  <outline>
    <contour>
      <point x="252" y="0" type="curve" smooth="yes"/>
      <point x="378" y="0"/>
      <point x="484" y="123"/>
      <point x="484" y="271" type="curve" smooth="yes"/>
      <point x="484" y="395"/>
      <point x="397" y="500"/>
      <point x="284" y="500" type="curve" smooth="yes"/>
      <point x="158" y="500"/>
      <point x="52" y="376"/>
      <point x="52" y="229" type="curve" smooth="yes"/>
      <point x="52" y="103"/>
      <point x="138" y="0"/>
    </contour>
    <contour>
      <point x="279" y="471" type="curve" smooth="yes"/>
      <point x="372" y="471"/>
      <point x="445" y="375"/>
      <point x="445" y="266" type="curve" smooth="yes"/>
      <point x="445" y="140"/>
      <point x="352" y="29"/>
      <point x="252" y="29" type="curve" smooth="yes"/>
      <point x="155" y="29"/>
      <point x="90" y="123"/>
      <point x="90" y="231" type="curve" smooth="yes"/>
      <point x="90" y="358"/>
      <point x="177" y="471"/>
    </contour>
    <contour>
      <point x="386" y="692" type="line" smooth="yes"/>
      <point x="393" y="697"/>
      <point x="394" y="701"/>
      <point x="394" y="708" type="curve" smooth="yes"/>
      <point x="394" y="722"/>
      <point x="381" y="735"/>
      <point x="370" y="735" type="curve" smooth="yes"/>
      <point x="360" y="735"/>
      <point x="353" y="728"/>
      <point x="344" y="721" type="curve" smooth="yes"/>
      <point x="216" y="617" type="line" smooth="yes"/>
      <point x="210" y="612"/>
      <point x="210" y="607"/>
      <point x="210" y="604" type="curve" smooth="yes"/>
      <point x="210" y="595"/>
      <point x="218" y="587"/>
      <point x="227" y="587" type="curve" smooth="yes"/>
      <point x="231" y="587"/>
      <point x="236" y="589"/>
      <point x="243" y="594" type="curve" smooth="yes"/>
    </contour>
  </outline>
</glyph>
<glyph name="otilde" format="1">
  <advance width="525"/>
  <unicode hex="00F5"/>
  <outline>
    <contour>
      <point x="252" y="0" type="curve" smooth="yes"/>
      <point x="378" y="0"/>
      <point x="484" y="123"/>
      <point x="484" y="271" type="curve" smooth="yes"/>
      <point x="484" y="395"/>
      <point x="397" y="500"/>
      <point x="284" y="500" type="curve" smooth="yes"/>
      <point x="158" y="500"/>
      <point x="52" y="376"/>
      <point x="52" y="229" type="curve" smooth="yes"/>
      <point x="52" y="103"/>
      <point x="138" y="0"/>
    </contour>
    <contour>
      <point x="279" y="471" type="curve" smooth="yes"/>
      <point x="372" y="471"/>
      <point x="445" y="375"/>
      <point x="445" y="266" type="curve" smooth="yes"/>
      <point x="445" y="140"/>
      <point x="352" y="29"/>
      <point x="252" y="29" type="curve" smooth="yes"/>
      <point x="155" y="29"/>
      <point x="90" y="123"/>
      <point x="90" y="231" type="curve" smooth="yes"/>
      <point x="90" y="358"/>
      <point x="177" y="471"/>
    </contour>
    <contour>
      <point x="449" y="690" type="curve" smooth="yes"/>
      <point x="437" y="658"/>
      <point x="416" y="607"/>
      <point x="378" y="607" type="curve" smooth="yes"/>
      <point x="357" y="607"/>
      <point x="336" y="632"/>
      <point x="319" y="657" type="curve" smooth="yes"/>
      <point x="300" y="685"/>
      <point x="279" y="715"/>
      <point x="238" y="715" type="curve" smooth="yes"/>
      <point x="191" y="715"/>
      <point x="137" y="662"/>
      <point x="137" y="620" type="curve" smooth="yes"/>
      <point x="137" y="612"/>
      <point x="140" y="604"/>
      <point x="150" y="604" type="curve" smooth="yes"/>
      <point x="157" y="604"/>
      <point x="162" y="608"/>
      <point x="165" y="617" type="curve" smooth="yes"/>
      <point x="182" y="675"/>
      <point x="222" y="688"/>
      <point x="238" y="688" type="curve" smooth="yes"/>
      <point x="258" y="688"/>
      <point x="269" y="675"/>
      <point x="295" y="638" type="curve" smooth="yes"/>
      <point x="314" y="612"/>
      <point x="335" y="581"/>
      <point x="376" y="581" type="curve" smooth="yes"/>
      <point x="430" y="581"/>
      <point x="479" y="649"/>
      <point x="479" y="687" type="curve" smooth="yes"/>
      <point x="479" y="695"/>
      <point x="474" y="701"/>
      <point x="465" y="701" type="curve" smooth="yes"/>
      <point x="456" y="701"/>
      <point x="451" y="696"/>
    </contour>
  </outline>
</glyph>
<glyph name="odieresis" format="1">
  <advance width="525"/>
  <unicode hex="00F6"/>
  <outline>
    <contour>
      <point x="252" y="0" type="curve" smooth="yes"/>
      <point x="138" y="0"/>
      <point x="52" y="103"/>
      <point x="52" y="229" type="curve" smooth="yes"/>
      <point x="52" y="376"/>
      <point x="158" y="500"/>
      <point x="284" y="500" type="curve" smooth="yes"/>
      <point x="397" y="500"/>
      <point x="484" y="395"/>
      <point x="484" y="271" type="curve" smooth="yes"/>
      <point x="484" y="123"/>
      <point x="378" y="0"/>
    </contour>
    <contour>
      <point x="279" y="471" type="curve" smooth="yes"/>
      <point x="177" y="471"/>
      <point x="90" y="358"/>
      <point x="90" y="231" type="curve" smooth="yes"/>
      <point x="90" y="123"/>
      <point x="155" y="29"/>
      <point x="252" y="29" type="curve" smooth="yes"/>
      <point x="352" y="29"/>
      <point x="445" y="140"/>
      <point x="445" y="266" type="curve" smooth="yes"/>
      <point x="445" y="375"/>
      <point x="372" y="471"/>
    </contour>
    <contour>
      <point x="258" y="636" type="curve" smooth="yes"/>
      <point x="258" y="616"/>
      <point x="239" y="600"/>
      <point x="216" y="600" type="curve" smooth="yes"/>
      <point x="196" y="600"/>
      <point x="179" y="613"/>
      <point x="179" y="630" type="curve" smooth="yes"/>
      <point x="179" y="649"/>
      <point x="198" y="666"/>
      <point x="222" y="666" type="curve" smooth="yes"/>
      <point x="241" y="666"/>
      <point x="258" y="652"/>
    </contour>
    <contour>
      <point x="424" y="636" type="curve" smooth="yes"/>
      <point x="424" y="616"/>
      <point x="405" y="600"/>
      <point x="381" y="600" type="curve" smooth="yes"/>
      <point x="361" y="600"/>
      <point x="345" y="613"/>
      <point x="345" y="630" type="curve" smooth="yes"/>
      <point x="345" y="649"/>
      <point x="363" y="666"/>
      <point x="387" y="666" type="curve" smooth="yes"/>
      <point x="406" y="666"/>
      <point x="424" y="652"/>
    </contour>
  </outline>
</glyph>
<glyph name="divide" format="1">
  <advance width="423"/>
  <unicode hex="00F7"/>
  <outline>
    <contour>
      <point x="350" y="226" type="line" smooth="yes"/>
      <point x="359" y="226"/>
      <point x="368" y="233"/>
      <point x="368" y="243" type="curve" smooth="yes"/>
      <point x="368" y="252"/>
      <point x="359" y="259"/>
      <point x="350" y="259" type="curve" smooth="yes"/>
      <point x="82" y="259" type="line" smooth="yes"/>
      <point x="73" y="259"/>
      <point x="64" y="252"/>
      <point x="64" y="243" type="curve" smooth="yes"/>
      <point x="64" y="233"/>
      <point x="73" y="226"/>
      <point x="82" y="226" type="curve" smooth="yes"/>
    </contour>
    <contour>
      <point x="221" y="313" type="curve" smooth="yes"/>
      <point x="234" y="313"/>
      <point x="245" y="327"/>
      <point x="245" y="345" type="curve" smooth="yes"/>
      <point x="245" y="355"/>
      <point x="237" y="365"/>
      <point x="228" y="365" type="curve" smooth="yes"/>
      <point x="214" y="365"/>
      <point x="203" y="350"/>
      <point x="203" y="336" type="curve" smooth="yes"/>
      <point x="203" y="323"/>
      <point x="210" y="313"/>
    </contour>
    <contour>
      <point x="204" y="121" type="curve" smooth="yes"/>
      <point x="218" y="121"/>
      <point x="228" y="135"/>
      <point x="228" y="153" type="curve" smooth="yes"/>
      <point x="228" y="164"/>
      <point x="221" y="173"/>
      <point x="211" y="173" type="curve" smooth="yes"/>
      <point x="198" y="173"/>
      <point x="186" y="158"/>
      <point x="186" y="144" type="curve" smooth="yes"/>
      <point x="186" y="131"/>
      <point x="194" y="121"/>
    </contour>
  </outline>
</glyph>
<glyph name="ucircumflex" format="1">
  <advance width="502"/>
  <unicode hex="00FB"/>
  <outline>
    <contour>
      <point x="297" y="748" type="curve" smooth="yes"/>
      <point x="293" y="748"/>
      <point x="288" y="746"/>
      <point x="284" y="743" type="curve" smooth="yes"/>
      <point x="149" y="630" type="line" smooth="yes"/>
      <point x="145" y="627"/>
      <point x="142" y="622"/>
      <point x="142" y="617" type="curve" smooth="yes"/>
      <point x="142" y="608"/>
      <point x="150" y="599"/>
      <point x="160" y="599" type="curve" smooth="yes"/>
      <point x="164" y="599"/>
      <point x="168" y="601"/>
      <point x="171" y="603" type="curve" smooth="yes"/>
      <point x="295" y="699" type="line"/>
      <point x="400" y="604" type="line" smooth="yes"/>
      <point x="404" y="601"/>
      <point x="408" y="599"/>
      <point x="413" y="599" type="curve" smooth="yes"/>
      <point x="422" y="599"/>
      <point x="430" y="608"/>
      <point x="430" y="617" type="curve" smooth="yes"/>
      <point x="430" y="622"/>
      <point x="428" y="625"/>
      <point x="424" y="629" type="curve" smooth="yes"/>
      <point x="312" y="742" type="line" smooth="yes"/>
      <point x="308" y="746"/>
      <point x="302" y="748"/>
    </contour>
    <contour>
      <point x="391" y="115" type="curve" smooth="yes"/>
      <point x="368" y="89"/>
      <point x="313" y="27"/>
      <point x="216" y="27" type="curve" smooth="yes"/>
      <point x="102" y="27"/>
      <point x="103" y="162"/>
      <point x="103" y="294" type="curve" smooth="yes"/>
      <point x="103" y="370"/>
      <point x="112" y="427"/>
      <point x="116" y="462" type="curve" smooth="yes"/>
      <point x="117" y="471"/>
      <point x="118" y="479"/>
      <point x="118" y="483" type="curve" smooth="yes"/>
      <point x="119" y="493"/>
      <point x="110" y="500"/>
      <point x="100" y="500" type="curve" smooth="yes"/>
      <point x="91" y="500"/>
      <point x="84" y="496"/>
      <point x="81" y="474" type="curve" smooth="yes"/>
      <point x="76" y="435"/>
      <point x="67" y="372"/>
      <point x="68" y="293" type="curve" smooth="yes"/>
      <point x="69" y="144"/>
      <point x="68" y="-3"/>
      <point x="216" y="-3" type="curve" smooth="yes"/>
      <point x="293" y="-3"/>
      <point x="369" y="34"/>
      <point x="402" y="82" type="curve"/>
      <point x="402" y="24" type="line" smooth="yes"/>
      <point x="402" y="10"/>
      <point x="411" y="0"/>
      <point x="424" y="0" type="curve" smooth="yes"/>
      <point x="436" y="0"/>
      <point x="445" y="8"/>
      <point x="445" y="19" type="curve" smooth="yes"/>
      <point x="445" y="483" type="line" smooth="yes"/>
      <point x="445" y="492"/>
      <point x="436" y="500"/>
      <point x="426" y="500" type="curve" smooth="yes"/>
      <point x="417" y="500"/>
      <point x="408" y="492"/>
      <point x="408" y="483" type="curve" smooth="yes"/>
      <point x="406" y="167" type="line" smooth="yes"/>
      <point x="406" y="143"/>
      <point x="402" y="127"/>
    </contour>
  </outline>
</glyph>
<glyph name="yacute" format="1">
  <advance width="479"/>
  <unicode hex="00FD"/>
  <outline>
    <contour>
      <point x="351" y="692" type="line" smooth="yes"/>
      <point x="355" y="695"/>
      <point x="358" y="702"/>
      <point x="358" y="708" type="curve" smooth="yes"/>
      <point x="358" y="722"/>
      <point x="346" y="735"/>
      <point x="333" y="735" type="curve" smooth="yes"/>
      <point x="325" y="735"/>
      <point x="316" y="727"/>
      <point x="309" y="721" type="curve" smooth="yes"/>
      <point x="177" y="614" type="line" smooth="yes"/>
      <point x="175" y="612"/>
      <point x="175" y="607"/>
      <point x="175" y="604" type="curve" smooth="yes"/>
      <point x="175" y="595"/>
      <point x="183" y="587"/>
      <point x="192" y="587" type="curve" smooth="yes"/>
      <point x="196" y="587"/>
      <point x="202" y="590"/>
      <point x="208" y="594" type="curve" smooth="yes"/>
    </contour>
    <contour>
      <point x="465" y="470" type="line" smooth="yes"/>
      <point x="467" y="474"/>
      <point x="468" y="479"/>
      <point x="468" y="482" type="curve" smooth="yes"/>
      <point x="468" y="493"/>
      <point x="460" y="501"/>
      <point x="449" y="501" type="curve" smooth="yes"/>
      <point x="441" y="501"/>
      <point x="434" y="496"/>
      <point x="431" y="489" type="curve" smooth="yes"/>
      <point x="251" y="98" type="line"/>
      <point x="59" y="487" type="line" smooth="yes"/>
      <point x="54" y="496"/>
      <point x="47" y="500"/>
      <point x="40" y="500" type="curve" smooth="yes"/>
      <point x="29" y="500"/>
      <point x="21" y="491"/>
      <point x="21" y="480" type="curve" smooth="yes"/>
      <point x="21" y="476"/>
      <point x="22" y="473"/>
      <point x="24" y="469" type="curve" smooth="yes"/>
      <point x="231" y="53" type="line"/>
      <point x="127" y="-173" type="line" smooth="yes"/>
      <point x="125" y="-178"/>
      <point x="123" y="-183"/>
      <point x="123" y="-187" type="curve" smooth="yes"/>
      <point x="123" y="-197"/>
      <point x="133" y="-205"/>
      <point x="143" y="-205" type="curve" smooth="yes"/>
      <point x="151" y="-205"/>
      <point x="157" y="-201"/>
      <point x="161" y="-193" type="curve" smooth="yes"/>
    </contour>
  </outline>
</glyph>
<glyph name="thorn" format="1">
  <advance width="510"/>
  <unicode hex="00FE"/>
  <outline>
    <contour>
      <point x="311" y="490" type="curve"/>
      <point x="222" y="490"/>
      <point x="156" y="453"/>
      <point x="105" y="406" type="curve"/>
      <point x="105" y="677" type="line" smooth="yes"/>
      <point x="105" y="688"/>
      <point x="97" y="697"/>
      <point x="86" y="697" type="curve" smooth="yes"/>
      <point x="76" y="697"/>
      <point x="68" y="688"/>
      <point x="68" y="677" type="curve" smooth="yes"/>
      <point x="68" y="-184" type="line" smooth="yes"/>
      <point x="68" y="-195"/>
      <point x="76" y="-203"/>
      <point x="86" y="-203" type="curve" smooth="yes"/>
      <point x="97" y="-203"/>
      <point x="105" y="-195"/>
      <point x="105" y="-184" type="curve" smooth="yes"/>
      <point x="105" y="42" type="line"/>
      <point x="143" y="27"/>
      <point x="198" y="8"/>
      <point x="251" y="8" type="curve" smooth="yes"/>
      <point x="426" y="8"/>
      <point x="469" y="157"/>
      <point x="469" y="272" type="curve" smooth="yes"/>
      <point x="469" y="376"/>
      <point x="420" y="485"/>
    </contour>
    <contour>
      <point x="257" y="44" type="curve" smooth="yes"/>
      <point x="194" y="44"/>
      <point x="127" y="73"/>
      <point x="105" y="83" type="curve"/>
      <point x="105" y="358" type="line"/>
      <point x="124" y="386"/>
      <point x="189" y="456"/>
      <point x="303" y="456" type="curve" smooth="yes"/>
      <point x="409" y="456"/>
      <point x="437" y="341"/>
      <point x="437" y="272" type="curve" smooth="yes"/>
      <point x="437" y="141"/>
      <point x="392" y="44"/>
    </contour>
  </outline>
</glyph>
<glyph name="ydieresis" format="1">
  <advance width="479"/>
  <unicode hex="00FF"/>
  <outline>
    <contour>
      <point x="208" y="636" type="curve" smooth="yes"/>
      <point x="208" y="616"/>
      <point x="189" y="600"/>
      <point x="165" y="600" type="curve" smooth="yes"/>
      <point x="145" y="600"/>
      <point x="128" y="613"/>
      <point x="128" y="630" type="curve" smooth="yes"/>
      <point x="128" y="649"/>
      <point x="147" y="666"/>
      <point x="171" y="666" type="curve" smooth="yes"/>
      <point x="190" y="666"/>
      <point x="208" y="652"/>
    </contour>
    <contour>
      <point x="373" y="636" type="curve" smooth="yes"/>
      <point x="373" y="616"/>
      <point x="355" y="600"/>
      <point x="331" y="600" type="curve" smooth="yes"/>
      <point x="311" y="600"/>
      <point x="294" y="613"/>
      <point x="294" y="630" type="curve" smooth="yes"/>
      <point x="294" y="649"/>
      <point x="313" y="666"/>
      <point x="337" y="666" type="curve" smooth="yes"/>
      <point x="356" y="666"/>
      <point x="373" y="652"/>
    </contour>
    <contour>
      <point x="465" y="470" type="curve" smooth="yes"/>
      <point x="161" y="-193" type="line" smooth="yes"/>
      <point x="157" y="-201"/>
      <point x="151" y="-205"/>
      <point x="143" y="-205" type="curve" smooth="yes"/>
      <point x="133" y="-205"/>
      <point x="123" y="-197"/>
      <point x="123" y="-187" type="curve" smooth="yes"/>
      <point x="123" y="-183"/>
      <point x="125" y="-178"/>
      <point x="127" y="-173" type="curve" smooth="yes"/>
      <point x="231" y="53" type="line"/>
      <point x="24" y="469" type="line" smooth="yes"/>
      <point x="22" y="473"/>
      <point x="21" y="476"/>
      <point x="21" y="480" type="curve" smooth="yes"/>
      <point x="21" y="491"/>
      <point x="29" y="500"/>
      <point x="40" y="500" type="curve" smooth="yes"/>
      <point x="47" y="500"/>
      <point x="54" y="496"/>
      <point x="59" y="487" type="curve" smooth="yes"/>
      <point x="251" y="98" type="line"/>
      <point x="431" y="489" type="line" smooth="yes"/>
      <point x="434" y="496"/>
      <point x="441" y="501"/>
      <point x="449" y="501" type="curve" smooth="yes"/>
      <point x="460" y="501"/>
      <point x="468" y="493"/>
      <point x="468" y="482" type="curve" smooth="yes"/>
      <point x="468" y="479"/>
      <point x="467" y="474"/>
    </contour>
  </outline>
</glyph>
<glyph name="Aogonek" format="1">
  <advance width="614"/>
  <unicode hex="0104"/>
  <outline>
    <contour>
      <point x="547" y="-206" type="curve" smooth="yes"/>
      <point x="581" y="-206"/>
      <point x="640" y="-186"/>
      <point x="640" y="-162" type="curve" smooth="yes"/>
      <point x="640" y="-154"/>
      <point x="632" y="-147"/>
      <point x="625" y="-147" type="curve" smooth="yes"/>
      <point x="622" y="-147"/>
      <point x="619" y="-148"/>
      <point x="616" y="-150" type="curve" smooth="yes"/>
      <point x="594" y="-166"/>
      <point x="571" y="-174"/>
      <point x="548" y="-174" type="curve" smooth="yes"/>
      <point x="510" y="-174"/>
      <point x="480" y="-149"/>
      <point x="480" y="-110" type="curve" smooth="yes"/>
      <point x="480" y="-61"/>
      <point x="518" y="-33"/>
      <point x="553" y="-7" type="curve" smooth="yes"/>
      <point x="574" y="9"/>
      <point x="574" y="14"/>
      <point x="568" y="32" type="curve" smooth="yes"/>
      <point x="346" y="677" type="line" smooth="yes"/>
      <point x="344" y="683"/>
      <point x="338" y="689"/>
      <point x="328" y="689" type="curve" smooth="yes"/>
      <point x="319" y="689"/>
      <point x="312" y="684"/>
      <point x="309" y="677" type="curve" smooth="yes"/>
      <point x="139" y="244" type="line"/>
      <point x="80" y="231" type="line" smooth="yes"/>
      <point x="72" y="229"/>
      <point x="65" y="222"/>
      <point x="65" y="212" type="curve" smooth="yes"/>
      <point x="65" y="202"/>
      <point x="73" y="192"/>
      <point x="85" y="194" type="curve"/>
      <point x="122" y="203" type="line"/>
      <point x="53" y="27" type="line" smooth="yes"/>
      <point x="52" y="25"/>
      <point x="51" y="21"/>
      <point x="51" y="18" type="curve" smooth="yes"/>
      <point x="51" y="8"/>
      <point x="60" y="0"/>
      <point x="72" y="0" type="curve" smooth="yes"/>
      <point x="80" y="0"/>
      <point x="86" y="4"/>
      <point x="89" y="11" type="curve" smooth="yes"/>
      <point x="167" y="211" type="line"/>
      <point x="444" y="272" type="line"/>
      <point x="531" y="15" type="line"/>
      <point x="489" y="-12"/>
      <point x="449" y="-55"/>
      <point x="449" y="-109" type="curve" smooth="yes"/>
      <point x="449" y="-164"/>
      <point x="490" y="-206"/>
    </contour>
    <contour>
      <point x="184" y="253" type="line"/>
      <point x="325" y="614" type="line"/>
      <point x="431" y="307" type="line"/>
    </contour>
  </outline>
</glyph>
<glyph name="aogonek" format="1">
  <advance width="495"/>
  <unicode hex="0105"/>
  <outline>
    <contour>
      <point x="400" y="19" type="line"/>
      <point x="356" y="-8"/>
      <point x="313" y="-53"/>
      <point x="313" y="-109" type="curve" smooth="yes"/>
      <point x="313" y="-164"/>
      <point x="354" y="-206"/>
      <point x="411" y="-206" type="curve" smooth="yes"/>
      <point x="445" y="-206"/>
      <point x="504" y="-186"/>
      <point x="504" y="-162" type="curve" smooth="yes"/>
      <point x="504" y="-154"/>
      <point x="496" y="-147"/>
      <point x="489" y="-147" type="curve" smooth="yes"/>
      <point x="486" y="-147"/>
      <point x="483" y="-148"/>
      <point x="480" y="-150" type="curve" smooth="yes"/>
      <point x="458" y="-166"/>
      <point x="435" y="-174"/>
      <point x="412" y="-174" type="curve" smooth="yes"/>
      <point x="374" y="-174"/>
      <point x="344" y="-149"/>
      <point x="344" y="-110" type="curve" smooth="yes"/>
      <point x="344" y="-61"/>
      <point x="382" y="-33"/>
      <point x="410" y="-12" type="curve" smooth="yes"/>
      <point x="422" y="-3"/>
      <point x="438" y="5"/>
      <point x="438" y="21" type="curve" smooth="yes"/>
      <point x="438" y="476" type="line"/>
      <point x="413" y="489"/>
      <point x="352" y="515"/>
      <point x="291" y="515" type="curve" smooth="yes"/>
      <point x="117" y="515"/>
      <point x="52" y="327"/>
      <point x="52" y="223" type="curve" smooth="yes"/>
      <point x="52" y="95"/>
      <point x="132" y="8"/>
      <point x="238" y="8" type="curve" smooth="yes"/>
      <point x="293" y="8"/>
      <point x="357" y="39"/>
      <point x="400" y="66" type="curve"/>
    </contour>
    <contour>
      <point x="398" y="110" type="line"/>
      <point x="372" y="93"/>
      <point x="301" y="45"/>
      <point x="236" y="45" type="curve" smooth="yes"/>
      <point x="129" y="45"/>
      <point x="91" y="148"/>
      <point x="91" y="225" type="curve" smooth="yes"/>
      <point x="91" y="316"/>
      <point x="144" y="478"/>
      <point x="294" y="478" type="curve" smooth="yes"/>
      <point x="331" y="478"/>
      <point x="380" y="463"/>
      <point x="402" y="452" type="curve"/>
    </contour>
  </outline>
</glyph>
